<svg xmlns="http://www.w3.org/2000/svg" xmlns:xlink="http://www.w3.org/1999/xlink" version="1.2" width="2150.00mm" height="100.00mm" viewBox="0 0 1223.4685 56.9055">
<style type="text/css">
<![CDATA[
tspan { white-space: pre; }
]]>
</style>
<!-- Page: 1/1 -->
<g transform="translate(0.0000, 19.7037)">
<line stroke-linejoin="round" stroke-linecap="round" stroke-width="0.1223" stroke="currentColor" x1="0.0611" y1="0" x2="337.9389" y2="0"/>
</g>
<g transform="translate(0.0000, 18.0537)">
<line stroke-linejoin="round" stroke-linecap="round" stroke-width="0.1223" stroke="currentColor" x1="0.0611" y1="0" x2="337.9389" y2="0"/>
</g>
<g transform="translate(0.0000, 16.4037)">
<line stroke-linejoin="round" stroke-linecap="round" stroke-width="0.1223" stroke="currentColor" x1="0.0611" y1="0" x2="337.9389" y2="0"/>
</g>
<g transform="translate(0.0000, 14.7537)">
<line stroke-linejoin="round" stroke-linecap="round" stroke-width="0.1223" stroke="currentColor" x1="0.0611" y1="0" x2="337.9389" y2="0"/>
</g>
<g transform="translate(0.0000, 13.1037)">
<line stroke-linejoin="round" stroke-linecap="round" stroke-width="0.1223" stroke="currentColor" x1="0.0611" y1="0" x2="337.9389" y2="0"/>
</g>
<g transform="translate(0.0000, 11.4537)">
<rect x="290.7138" y="-0.1436" width="1.2257" height="0.2873" ry="0.1436" fill="currentColor"/>
</g>
<g transform="translate(0.0000, 11.4537)">
<rect x="289.4338" y="-0.1436" width="1.1800" height="0.2873" ry="0.1436" fill="currentColor"/>
</g>
<g transform="translate(0.0000, 9.8037)">
<rect x="288.1538" y="-0.1436" width="1.1800" height="0.2873" ry="0.1436" fill="currentColor"/>
</g>
<g transform="translate(0.0000, 11.4537)">
<rect x="288.1538" y="-0.1436" width="1.1800" height="0.2873" ry="0.1436" fill="currentColor"/>
</g>
<g transform="translate(0.0000, 11.4537)">
<rect x="286.8738" y="-0.1436" width="1.1800" height="0.2873" ry="0.1436" fill="currentColor"/>
</g>
<g transform="translate(0.0000, 11.4537)">
<rect x="285.5481" y="-0.1436" width="1.2257" height="0.2873" ry="0.1436" fill="currentColor"/>
</g>
<g transform="translate(0.0000, 11.4537)">
<rect x="164.8281" y="-0.1436" width="1.1114" height="0.2873" ry="0.1436" fill="currentColor"/>
</g>
<g transform="translate(0.0000, 11.4537)">
<rect x="163.8036" y="-0.1436" width="0.9245" height="0.2873" ry="0.1436" fill="currentColor"/>
</g>
<g transform="translate(0.0000, 9.8037)">
<rect x="162.8061" y="-0.1436" width="0.8976" height="0.2873" ry="0.1436" fill="currentColor"/>
</g>
<g transform="translate(0.0000, 11.4537)">
<rect x="162.8061" y="-0.1436" width="0.8976" height="0.2873" ry="0.1436" fill="currentColor"/>
</g>
<g transform="translate(0.0000, 11.4537)">
<rect x="161.8085" y="-0.1436" width="0.8976" height="0.2873" ry="0.1436" fill="currentColor"/>
</g>
<g transform="translate(0.0000, 11.4537)">
<rect x="160.7609" y="-0.1436" width="0.9476" height="0.2873" ry="0.1436" fill="currentColor"/>
</g>
<g transform="translate(0.0000, 11.4537)">
<rect x="49.1681" y="-0.1436" width="1.2714" height="0.2873" ry="0.1436" fill="currentColor"/>
</g>
<g transform="translate(0.0000, 11.4537)">
<rect x="19.6597" y="-0.1436" width="0.7976" height="0.2873" ry="0.1436" fill="currentColor"/>
</g>
<g transform="translate(0.0000, 11.4537)">
<rect x="18.8121" y="-0.1436" width="0.7476" height="0.2873" ry="0.1436" fill="currentColor"/>
</g>
<g transform="translate(0.0000, 9.8037)">
<rect x="17.9645" y="-0.1436" width="0.7476" height="0.2873" ry="0.1436" fill="currentColor"/>
</g>
<g transform="translate(0.0000, 11.4537)">
<rect x="17.9645" y="-0.1436" width="0.7476" height="0.2873" ry="0.1436" fill="currentColor"/>
</g>
<g transform="translate(0.0000, 11.4537)">
<rect x="17.1169" y="-0.1436" width="0.7476" height="0.2873" ry="0.1436" fill="currentColor"/>
</g>
<g transform="translate(0.0000, 11.4537)">
<rect x="16.2194" y="-0.1436" width="0.7976" height="0.2873" ry="0.1436" fill="currentColor"/>
</g>
<a style="color:inherit;" xlink:href="textedit://C:/Users/jwloy/Documents/GitHub/ill20231216/public/pieces/ill20231212/notation/grace%20note%20clusters.ly:124:79:80">
<g transform="translate(160.8359, 11.4537)">
<path transform="scale(0.0026, -0.0026)" d="M204 141c63 0 120 -35 120 -103c0 -70 -50 -119 -97 -147c-33 -20 -70 -32 -108 -32c-63 0 -119 35 -119 103c0 70 49 119 96 147c33 20 70 32 108 32z" fill="currentColor"/>
</g>
</a>
<g transform="translate(161.6040, 16.4037)">
<rect x="-0.0795" y="-11.8057" width="0.1590" height="11.7071" ry="0.0400" fill="currentColor"/>
</g>
<a style="color:inherit;" xlink:href="textedit://C:/Users/jwloy/Documents/GitHub/ill20231216/public/pieces/ill20231212/notation/grace%20note%20clusters.ly:124:86:87">
<g transform="translate(161.8335, 17.2287)">
<path transform="scale(0.0026, -0.0026)" d="M204 141c63 0 120 -35 120 -103c0 -70 -50 -119 -97 -147c-33 -20 -70 -32 -108 -32c-63 0 -119 35 -119 103c0 70 49 119 96 147c33 20 70 32 108 32z" fill="currentColor"/>
</g>
</a>
<a style="color:inherit;" xlink:href="textedit://C:/Users/jwloy/Documents/GitHub/ill20231216/public/pieces/ill20231212/notation/grace%20note%20clusters.ly:124:89:90">
<g transform="translate(161.8335, 15.5787)">
<path transform="scale(0.0026, -0.0026)" d="M204 141c63 0 120 -35 120 -103c0 -70 -50 -119 -97 -147c-33 -20 -70 -32 -108 -32c-63 0 -119 35 -119 103c0 70 49 119 96 147c33 20 70 32 108 32z" fill="currentColor"/>
</g>
</a>
<a style="color:inherit;" xlink:href="textedit://C:/Users/jwloy/Documents/GitHub/ill20231216/public/pieces/ill20231212/notation/grace%20note%20clusters.ly:124:93:94">
<g transform="translate(161.8335, 12.2787)">
<path transform="scale(0.0026, -0.0026)" d="M204 141c63 0 120 -35 120 -103c0 -70 -50 -119 -97 -147c-33 -20 -70 -32 -108 -32c-63 0 -119 35 -119 103c0 70 49 119 96 147c33 20 70 32 108 32z" fill="currentColor"/>
</g>
</a>
<a style="color:inherit;" xlink:href="textedit://C:/Users/jwloy/Documents/GitHub/ill20231216/public/pieces/ill20231212/notation/grace%20note%20clusters.ly:124:97:98">
<g transform="translate(161.8335, 10.6287)">
<path transform="scale(0.0026, -0.0026)" d="M204 141c63 0 120 -35 120 -103c0 -70 -50 -119 -97 -147c-33 -20 -70 -32 -108 -32c-63 0 -119 35 -119 103c0 70 49 119 96 147c33 20 70 32 108 32z" fill="currentColor"/>
</g>
</a>
<g transform="translate(162.6016, 16.4037)">
<rect x="-0.0795" y="-11.8057" width="0.1590" height="12.5321" ry="0.0400" fill="currentColor"/>
</g>
<g transform="translate(159.6088, 16.4037)">
<rect x="-0.0795" y="-11.8057" width="0.1590" height="10.0571" ry="0.0400" fill="currentColor"/>
</g>
<g transform="translate(160.6064, 16.4037)">
<rect x="-0.0795" y="-11.8057" width="0.1590" height="10.8821" ry="0.0400" fill="currentColor"/>
</g>
<a style="color:inherit;" xlink:href="textedit://C:/Users/jwloy/Documents/GitHub/ill20231216/public/pieces/ill20231212/notation/grace%20note%20clusters.ly:124:167:168">
<g transform="translate(166.1600, 15.5787)">
<path transform="scale(0.0026, -0.0026)" d="M204 141c63 0 120 -35 120 -103c0 -70 -50 -119 -97 -147c-33 -20 -70 -32 -108 -32c-63 0 -119 35 -119 103c0 70 49 119 96 147c33 20 70 32 108 32z" fill="currentColor"/>
</g>
</a>
<a style="color:inherit;" xlink:href="textedit://C:/Users/jwloy/Documents/GitHub/ill20231216/public/pieces/ill20231212/notation/grace%20note%20clusters.ly:124:58:59">
<g transform="translate(159.8383, 12.2787)">
<path transform="scale(0.0026, -0.0026)" d="M204 141c63 0 120 -35 120 -103c0 -70 -50 -119 -97 -147c-33 -20 -70 -32 -108 -32c-63 0 -119 35 -119 103c0 70 49 119 96 147c33 20 70 32 108 32z" fill="currentColor"/>
</g>
</a>
<a style="color:inherit;" xlink:href="textedit://C:/Users/jwloy/Documents/GitHub/ill20231216/public/pieces/ill20231212/notation/grace%20note%20clusters.ly:124:62:63">
<g transform="translate(159.8383, 15.5787)">
<path transform="scale(0.0026, -0.0026)" d="M204 141c63 0 120 -35 120 -103c0 -70 -50 -119 -97 -147c-33 -20 -70 -32 -108 -32c-63 0 -119 35 -119 103c0 70 49 119 96 147c33 20 70 32 108 32z" fill="currentColor"/>
</g>
</a>
<a style="color:inherit;" xlink:href="textedit://C:/Users/jwloy/Documents/GitHub/ill20231216/public/pieces/ill20231212/notation/grace%20note%20clusters.ly:124:75:76">
<g transform="translate(160.8359, 13.1037)">
<path transform="scale(0.0026, -0.0026)" d="M204 141c63 0 120 -35 120 -103c0 -70 -50 -119 -97 -147c-33 -20 -70 -32 -108 -32c-63 0 -119 35 -119 103c0 70 49 119 96 147c33 20 70 32 108 32z" fill="currentColor"/>
</g>
</a>
<a style="color:inherit;" xlink:href="textedit://C:/Users/jwloy/Documents/GitHub/ill20231216/public/pieces/ill20231212/notation/grace%20note%20clusters.ly:124:68:69">
<g transform="translate(160.8359, 16.4037)">
<path transform="scale(0.0026, -0.0026)" d="M204 141c63 0 120 -35 120 -103c0 -70 -50 -119 -97 -147c-33 -20 -70 -32 -108 -32c-63 0 -119 35 -119 103c0 70 49 119 96 147c33 20 70 32 108 32z" fill="currentColor"/>
</g>
</a>
<a style="color:inherit;" xlink:href="textedit://C:/Users/jwloy/Documents/GitHub/ill20231216/public/pieces/ill20231212/notation/grace%20note%20clusters.ly:124:71:72">
<g transform="translate(160.8359, 14.7537)">
<path transform="scale(0.0026, -0.0026)" d="M204 141c63 0 120 -35 120 -103c0 -70 -50 -119 -97 -147c-33 -20 -70 -32 -108 -32c-63 0 -119 35 -119 103c0 70 49 119 96 147c33 20 70 32 108 32z" fill="currentColor"/>
</g>
</a>
<a style="color:inherit;" xlink:href="textedit://C:/Users/jwloy/Documents/GitHub/ill20231216/public/pieces/ill20231212/notation/grace%20note%20clusters.ly:124:156:157">
<g transform="translate(164.8800, 11.4537)">
<path transform="scale(0.0026, -0.0026)" d="M204 141c63 0 120 -35 120 -103c0 -70 -50 -119 -97 -147c-33 -20 -70 -32 -108 -32c-63 0 -119 35 -119 103c0 70 49 119 96 147c33 20 70 32 108 32z" fill="currentColor"/>
</g>
</a>
<a style="color:inherit;" xlink:href="textedit://C:/Users/jwloy/Documents/GitHub/ill20231216/public/pieces/ill20231212/notation/grace%20note%20clusters.ly:133:148:149">
<g transform="translate(293.4400, 13.1037)">
<path transform="scale(0.0026, -0.0026)" d="M204 141c63 0 120 -35 120 -103c0 -70 -50 -119 -97 -147c-33 -20 -70 -32 -108 -32c-63 0 -119 35 -119 103c0 70 49 119 96 147c33 20 70 32 108 32z" fill="currentColor"/>
</g>
</a>
<a style="color:inherit;" xlink:href="textedit://C:/Users/jwloy/Documents/GitHub/ill20231216/public/pieces/ill20231212/notation/grace%20note%20clusters.ly:124:145:146">
<g transform="translate(164.8800, 16.4037)">
<path transform="scale(0.0026, -0.0026)" d="M204 141c63 0 120 -35 120 -103c0 -70 -50 -119 -97 -147c-33 -20 -70 -32 -108 -32c-63 0 -119 35 -119 103c0 70 49 119 96 147c33 20 70 32 108 32z" fill="currentColor"/>
</g>
</a>
<a style="color:inherit;" xlink:href="textedit://C:/Users/jwloy/Documents/GitHub/ill20231216/public/pieces/ill20231212/notation/grace%20note%20clusters.ly:124:148:149">
<g transform="translate(164.8800, 14.7537)">
<path transform="scale(0.0026, -0.0026)" d="M204 141c63 0 120 -35 120 -103c0 -70 -50 -119 -97 -147c-33 -20 -70 -32 -108 -32c-63 0 -119 35 -119 103c0 70 49 119 96 147c33 20 70 32 108 32z" fill="currentColor"/>
</g>
</a>
<a style="color:inherit;" xlink:href="textedit://C:/Users/jwloy/Documents/GitHub/ill20231216/public/pieces/ill20231212/notation/grace%20note%20clusters.ly:124:152:153">
<g transform="translate(164.8800, 13.1037)">
<path transform="scale(0.0026, -0.0026)" d="M204 141c63 0 120 -35 120 -103c0 -70 -50 -119 -97 -147c-33 -20 -70 -32 -108 -32c-63 0 -119 35 -119 103c0 70 49 119 96 147c33 20 70 32 108 32z" fill="currentColor"/>
</g>
</a>
<g transform="translate(164.5967, 16.4037)">
<rect x="-0.0795" y="-11.8057" width="0.1590" height="12.5321" ry="0.0400" fill="currentColor"/>
</g>
<g transform="translate(165.6481, 16.4037)">
<rect x="-0.0795" y="-11.8057" width="0.1590" height="11.7071" ry="0.0400" fill="currentColor"/>
</g>
<a style="color:inherit;" xlink:href="textedit://C:/Users/jwloy/Documents/GitHub/ill20231216/public/pieces/ill20231212/notation/grace%20note%20clusters.ly:124:163:164">
<g transform="translate(166.1600, 12.2787)">
<path transform="scale(0.0026, -0.0026)" d="M204 141c63 0 120 -35 120 -103c0 -70 -50 -119 -97 -147c-33 -20 -70 -32 -108 -32c-63 0 -119 35 -119 103c0 70 49 119 96 147c33 20 70 32 108 32z" fill="currentColor"/>
</g>
</a>
<g transform="translate(294.2081, 16.4037)">
<rect x="-0.0795" y="-12.9443" width="0.1590" height="11.1958" ry="0.0400" fill="currentColor"/>
</g>
<a style="color:inherit;" xlink:href="textedit://C:/Users/jwloy/Documents/GitHub/ill20231216/public/pieces/ill20231212/notation/grace%20note%20clusters.ly:124:138:139">
<g transform="translate(163.8286, 10.6287)">
<path transform="scale(0.0026, -0.0026)" d="M204 141c63 0 120 -35 120 -103c0 -70 -50 -119 -97 -147c-33 -20 -70 -32 -108 -32c-63 0 -119 35 -119 103c0 70 49 119 96 147c33 20 70 32 108 32z" fill="currentColor"/>
</g>
</a>
<a style="color:inherit;" xlink:href="textedit://C:/Users/jwloy/Documents/GitHub/ill20231216/public/pieces/ill20231212/notation/grace%20note%20clusters.ly:124:134:135">
<g transform="translate(163.8286, 12.2787)">
<path transform="scale(0.0026, -0.0026)" d="M204 141c63 0 120 -35 120 -103c0 -70 -50 -119 -97 -147c-33 -20 -70 -32 -108 -32c-63 0 -119 35 -119 103c0 70 49 119 96 147c33 20 70 32 108 32z" fill="currentColor"/>
</g>
</a>
<a style="color:inherit;" xlink:href="textedit://C:/Users/jwloy/Documents/GitHub/ill20231216/public/pieces/ill20231212/notation/grace%20note%20clusters.ly:124:130:131">
<g transform="translate(163.8286, 15.5787)">
<path transform="scale(0.0026, -0.0026)" d="M204 141c63 0 120 -35 120 -103c0 -70 -50 -119 -97 -147c-33 -20 -70 -32 -108 -32c-63 0 -119 35 -119 103c0 70 49 119 96 147c33 20 70 32 108 32z" fill="currentColor"/>
</g>
</a>
<a style="color:inherit;" xlink:href="textedit://C:/Users/jwloy/Documents/GitHub/ill20231216/public/pieces/ill20231212/notation/grace%20note%20clusters.ly:124:127:128">
<g transform="translate(163.8286, 17.2287)">
<path transform="scale(0.0026, -0.0026)" d="M204 141c63 0 120 -35 120 -103c0 -70 -50 -119 -97 -147c-33 -20 -70 -32 -108 -32c-63 0 -119 35 -119 103c0 70 49 119 96 147c33 20 70 32 108 32z" fill="currentColor"/>
</g>
</a>
<a style="color:inherit;" xlink:href="textedit://C:/Users/jwloy/Documents/GitHub/ill20231216/public/pieces/ill20231212/notation/grace%20note%20clusters.ly:133:152:153">
<g transform="translate(293.4400, 14.7537)">
<path transform="scale(0.0026, -0.0026)" d="M204 141c63 0 120 -35 120 -103c0 -70 -50 -119 -97 -147c-33 -20 -70 -32 -108 -32c-63 0 -119 35 -119 103c0 70 49 119 96 147c33 20 70 32 108 32z" fill="currentColor"/>
</g>
</a>
<g transform="translate(163.5992, 16.4037)">
<rect x="-0.0795" y="-11.8057" width="0.1590" height="13.3571" ry="0.0400" fill="currentColor"/>
</g>
<a style="color:inherit;" xlink:href="textedit://C:/Users/jwloy/Documents/GitHub/ill20231216/public/pieces/ill20231212/notation/grace%20note%20clusters.ly:124:118:119">
<g transform="translate(162.8311, 9.8037)">
<path transform="scale(0.0026, -0.0026)" d="M204 141c63 0 120 -35 120 -103c0 -70 -50 -119 -97 -147c-33 -20 -70 -32 -108 -32c-63 0 -119 35 -119 103c0 70 49 119 96 147c33 20 70 32 108 32z" fill="currentColor"/>
</g>
</a>
<a style="color:inherit;" xlink:href="textedit://C:/Users/jwloy/Documents/GitHub/ill20231216/public/pieces/ill20231212/notation/grace%20note%20clusters.ly:124:114:115">
<g transform="translate(162.8311, 11.4537)">
<path transform="scale(0.0026, -0.0026)" d="M204 141c63 0 120 -35 120 -103c0 -70 -50 -119 -97 -147c-33 -20 -70 -32 -108 -32c-63 0 -119 35 -119 103c0 70 49 119 96 147c33 20 70 32 108 32z" fill="currentColor"/>
</g>
</a>
<a style="color:inherit;" xlink:href="textedit://C:/Users/jwloy/Documents/GitHub/ill20231216/public/pieces/ill20231212/notation/grace%20note%20clusters.ly:124:110:111">
<g transform="translate(162.8311, 13.9287)">
<path transform="scale(0.0026, -0.0026)" d="M204 141c63 0 120 -35 120 -103c0 -70 -50 -119 -97 -147c-33 -20 -70 -32 -108 -32c-63 0 -119 35 -119 103c0 70 49 119 96 147c33 20 70 32 108 32z" fill="currentColor"/>
</g>
</a>
<a style="color:inherit;" xlink:href="textedit://C:/Users/jwloy/Documents/GitHub/ill20231216/public/pieces/ill20231212/notation/grace%20note%20clusters.ly:124:107:108">
<g transform="translate(162.8311, 16.4037)">
<path transform="scale(0.0026, -0.0026)" d="M204 141c63 0 120 -35 120 -103c0 -70 -50 -119 -97 -147c-33 -20 -70 -32 -108 -32c-63 0 -119 35 -119 103c0 70 49 119 96 147c33 20 70 32 108 32z" fill="currentColor"/>
</g>
</a>
<a style="color:inherit;" xlink:href="textedit://C:/Users/jwloy/Documents/GitHub/ill20231216/public/pieces/ill20231212/notation/grace%20note%20clusters.ly:124:104:105">
<g transform="translate(162.8311, 18.0537)">
<path transform="scale(0.0026, -0.0026)" d="M204 141c63 0 120 -35 120 -103c0 -70 -50 -119 -97 -147c-33 -20 -70 -32 -108 -32c-63 0 -119 35 -119 103c0 70 49 119 96 147c33 20 70 32 108 32z" fill="currentColor"/>
</g>
</a>
<g transform="translate(153.6233, 16.4037)">
<rect x="-0.0795" y="-11.8057" width="0.1590" height="9.2321" ry="0.0400" fill="currentColor"/>
</g>
<a style="color:inherit;" xlink:href="textedit://C:/Users/jwloy/Documents/GitHub/ill20231216/public/pieces/ill20231212/notation/grace%20note%20clusters.ly:124:19:20">
<g transform="translate(151.8577, 13.9287)">
<path transform="scale(0.0026, -0.0026)" d="M204 141c63 0 120 -35 120 -103c0 -70 -50 -119 -97 -147c-33 -20 -70 -32 -108 -32c-63 0 -119 35 -119 103c0 70 49 119 96 147c33 20 70 32 108 32z" fill="currentColor"/>
</g>
</a>
<g transform="translate(152.6258, 16.4037)">
<rect x="-0.0795" y="-11.8057" width="0.1590" height="9.2321" ry="0.0400" fill="currentColor"/>
</g>
<a style="color:inherit;" xlink:href="textedit://C:/Users/jwloy/Documents/GitHub/ill20231216/public/pieces/ill20231212/notation/grace%20note%20clusters.ly:124:23:24">
<g transform="translate(152.8553, 13.9287)">
<path transform="scale(0.0026, -0.0026)" d="M204 141c63 0 120 -35 120 -103c0 -70 -50 -119 -97 -147c-33 -20 -70 -32 -108 -32c-63 0 -119 35 -119 103c0 70 49 119 96 147c33 20 70 32 108 32z" fill="currentColor"/>
</g>
</a>
<a style="color:inherit;" xlink:href="textedit://C:/Users/jwloy/Documents/GitHub/ill20231216/public/pieces/ill20231212/notation/grace%20note%20clusters.ly:124:27:28">
<g transform="translate(153.8528, 13.9287)">
<path transform="scale(0.0026, -0.0026)" d="M204 141c63 0 120 -35 120 -103c0 -70 -50 -119 -97 -147c-33 -20 -70 -32 -108 -32c-63 0 -119 35 -119 103c0 70 49 119 96 147c33 20 70 32 108 32z" fill="currentColor"/>
</g>
</a>
<g transform="translate(154.6209, 16.4037)">
<rect x="-0.0795" y="-11.8057" width="0.1590" height="9.2321" ry="0.0400" fill="currentColor"/>
</g>
<a style="color:inherit;" xlink:href="textedit://C:/Users/jwloy/Documents/GitHub/ill20231216/public/pieces/ill20231212/notation/grace%20note%20clusters.ly:93:10:11">
<g transform="translate(13.5176, 3.4594)">
<polygon stroke-linejoin="round" stroke-linecap="round" stroke-width="0.0800" fill="currentColor" stroke="currentColor" points="9.4424 -0.2768 9.4424 0.2768 0.0400 0.2768 0.0400 -0.2768"/>
</g>
<g transform="translate(13.5176, 4.5115)">
<polygon stroke-linejoin="round" stroke-linecap="round" stroke-width="0.0800" fill="currentColor" stroke="currentColor" points="9.4424 -0.2768 9.4424 0.2768 0.0400 0.2768 0.0400 -0.2768"/>
</g>
<g transform="translate(13.5176, 5.5636)">
<polygon stroke-linejoin="round" stroke-linecap="round" stroke-width="0.0800" fill="currentColor" stroke="currentColor" points="9.4424 -0.2768 9.4424 0.2768 0.0400 0.2768 0.0400 -0.2768"/>
</g>
</a>
<a style="color:inherit;" xlink:href="textedit://C:/Users/jwloy/Documents/GitHub/ill20231216/public/pieces/ill20231212/notation/grace%20note%20clusters.ly:137:8:9">
<g transform="translate(296.0000, 13.9287)">
<path transform="scale(0.0052, -0.0052)" d="M222 135c53 0 104 -27 104 -86c0 -71 -56 -120 -103 -148c-36 -22 -76 -36 -118 -36c-53 0 -105 27 -105 86c0 71 57 120 104 148c36 22 76 36 118 36z" fill="currentColor"/>
</g>
</a>
<a style="color:inherit;" xlink:href="textedit://C:/Users/jwloy/Documents/GitHub/ill20231216/public/pieces/ill20231212/notation/grace%20note%20clusters.ly:121:8:9">
<g transform="translate(149.0000, 13.9287)">
<path transform="scale(0.0052, -0.0052)" d="M222 135c53 0 104 -27 104 -86c0 -71 -56 -120 -103 -148c-36 -22 -76 -36 -118 -36c-53 0 -105 27 -105 86c0 71 57 120 104 148c36 22 76 36 118 36z" fill="currentColor"/>
</g>
</a>
<a style="color:inherit;" xlink:href="textedit://C:/Users/jwloy/Documents/GitHub/ill20231216/public/pieces/ill20231212/notation/grace%20note%20clusters.ly:121:13:14">
<g transform="translate(149.8550, 12.2787)">
<path transform="scale(0.0052, -0.0052)" d="M-114 0c-8 0 -13 8 -10 15l114 254c2 4 6 6 10 6s8 -2 10 -6l114 -254c3 -7 -2 -15 -10 -15h-68c-4 0 -7 2 -9 6l-71 156l-70 -156c-2 -4 -6 -6 -10 -6z" fill="currentColor"/>
</g>
</a>
<g transform="translate(149.0795, 16.4037)">
<rect x="-0.0795" y="-2.2174" width="0.1590" height="11.2924" ry="0.0400" fill="currentColor"/>
</g>
<a style="color:inherit;" xlink:href="textedit://C:/Users/jwloy/Documents/GitHub/ill20231216/public/pieces/ill20231212/notation/grace%20note%20clusters.ly:124:12:13">
<g transform="translate(150.8601, 13.9287)">
<path transform="scale(0.0026, -0.0026)" d="M204 141c63 0 120 -35 120 -103c0 -70 -50 -119 -97 -147c-33 -20 -70 -32 -108 -32c-63 0 -119 35 -119 103c0 70 49 119 96 147c33 20 70 32 108 32z" fill="currentColor"/>
</g>
</a>
<g transform="translate(151.6282, 16.4037)">
<rect x="-0.0795" y="-11.8057" width="0.1590" height="9.2321" ry="0.0400" fill="currentColor"/>
</g>
<a style="color:inherit;" xlink:href="textedit://C:/Users/jwloy/Documents/GitHub/ill20231216/public/pieces/ill20231212/notation/grace%20note%20clusters.ly:124:43:44">
<g transform="translate(157.8432, 13.9287)">
<path transform="scale(0.0026, -0.0026)" d="M204 141c63 0 120 -35 120 -103c0 -70 -50 -119 -97 -147c-33 -20 -70 -32 -108 -32c-63 0 -119 35 -119 103c0 70 49 119 96 147c33 20 70 32 108 32z" fill="currentColor"/>
</g>
</a>
<a style="color:inherit;" xlink:href="textedit://C:/Users/jwloy/Documents/GitHub/ill20231216/public/pieces/ill20231212/notation/grace%20note%20clusters.ly:133:157:158">
<g transform="translate(294.7200, 13.9287)">
<path transform="scale(0.0026, -0.0026)" d="M204 141c63 0 120 -35 120 -103c0 -70 -50 -119 -97 -147c-33 -20 -70 -32 -108 -32c-63 0 -119 35 -119 103c0 70 49 119 96 147c33 20 70 32 108 32z" fill="currentColor"/>
</g>
</a>
<a style="color:inherit;" xlink:href="textedit://C:/Users/jwloy/Documents/GitHub/ill20231216/public/pieces/ill20231212/notation/grace%20note%20clusters.ly:124:39:40">
<g transform="translate(156.8456, 13.9287)">
<path transform="scale(0.0026, -0.0026)" d="M204 141c63 0 120 -35 120 -103c0 -70 -50 -119 -97 -147c-33 -20 -70 -32 -108 -32c-63 0 -119 35 -119 103c0 70 49 119 96 147c33 20 70 32 108 32z" fill="currentColor"/>
</g>
</a>
<g transform="translate(157.6137, 16.4037)">
<rect x="-0.0795" y="-11.8057" width="0.1590" height="9.2321" ry="0.0400" fill="currentColor"/>
</g>
<g transform="translate(158.6113, 16.4037)">
<rect x="-0.0795" y="-11.8057" width="0.1590" height="9.2321" ry="0.0400" fill="currentColor"/>
</g>
<a style="color:inherit;" xlink:href="textedit://C:/Users/jwloy/Documents/GitHub/ill20231216/public/pieces/ill20231212/notation/grace%20note%20clusters.ly:124:48:49">
<g transform="translate(158.8407, 13.1037)">
<path transform="scale(0.0026, -0.0026)" d="M204 141c63 0 120 -35 120 -103c0 -70 -50 -119 -97 -147c-33 -20 -70 -32 -108 -32c-63 0 -119 35 -119 103c0 70 49 119 96 147c33 20 70 32 108 32z" fill="currentColor"/>
</g>
</a>
<a style="color:inherit;" xlink:href="textedit://C:/Users/jwloy/Documents/GitHub/ill20231216/public/pieces/ill20231212/notation/grace%20note%20clusters.ly:124:52:53">
<g transform="translate(158.8407, 14.7537)">
<path transform="scale(0.0026, -0.0026)" d="M204 141c63 0 120 -35 120 -103c0 -70 -50 -119 -97 -147c-33 -20 -70 -32 -108 -32c-63 0 -119 35 -119 103c0 70 49 119 96 147c33 20 70 32 108 32z" fill="currentColor"/>
</g>
</a>
<g transform="translate(156.6161, 16.4037)">
<rect x="-0.0795" y="-11.8057" width="0.1590" height="9.2321" ry="0.0400" fill="currentColor"/>
</g>
<a style="color:inherit;" xlink:href="textedit://C:/Users/jwloy/Documents/GitHub/ill20231216/public/pieces/ill20231212/notation/grace%20note%20clusters.ly:124:35:36">
<g transform="translate(155.8480, 13.9287)">
<path transform="scale(0.0026, -0.0026)" d="M204 141c63 0 120 -35 120 -103c0 -70 -50 -119 -97 -147c-33 -20 -70 -32 -108 -32c-63 0 -119 35 -119 103c0 70 49 119 96 147c33 20 70 32 108 32z" fill="currentColor"/>
</g>
</a>
<g transform="translate(295.4881, 16.4037)">
<rect x="-0.0795" y="-12.9443" width="0.1590" height="10.3708" ry="0.0400" fill="currentColor"/>
</g>
<g transform="translate(155.6185, 16.4037)">
<rect x="-0.0795" y="-11.8057" width="0.1590" height="9.2321" ry="0.0400" fill="currentColor"/>
</g>
<a style="color:inherit;" xlink:href="textedit://C:/Users/jwloy/Documents/GitHub/ill20231216/public/pieces/ill20231212/notation/grace%20note%20clusters.ly:124:31:32">
<g transform="translate(154.8504, 13.9287)">
<path transform="scale(0.0026, -0.0026)" d="M204 141c63 0 120 -35 120 -103c0 -70 -50 -119 -97 -147c-33 -20 -70 -32 -108 -32c-63 0 -119 35 -119 103c0 70 49 119 96 147c33 20 70 32 108 32z" fill="currentColor"/>
</g>
</a>
<a style="color:inherit;" xlink:href="textedit://C:/Users/jwloy/Documents/GitHub/ill20231216/public/pieces/ill20231212/notation/grace%20note%20clusters.ly:133:71:72">
<g transform="translate(287.0400, 10.6287)">
<path transform="scale(0.0026, -0.0026)" d="M204 141c63 0 120 -35 120 -103c0 -70 -50 -119 -97 -147c-33 -20 -70 -32 -108 -32c-63 0 -119 35 -119 103c0 70 49 119 96 147c33 20 70 32 108 32z" fill="currentColor"/>
</g>
</a>
<a style="color:inherit;" xlink:href="textedit://C:/Users/jwloy/Documents/GitHub/ill20231216/public/pieces/ill20231212/notation/grace%20note%20clusters.ly:133:130:131">
<g transform="translate(290.8800, 11.4537)">
<path transform="scale(0.0026, -0.0026)" d="M204 141c63 0 120 -35 120 -103c0 -70 -50 -119 -97 -147c-33 -20 -70 -32 -108 -32c-63 0 -119 35 -119 103c0 70 49 119 96 147c33 20 70 32 108 32z" fill="currentColor"/>
</g>
</a>
<a style="color:inherit;" xlink:href="textedit://C:/Users/jwloy/Documents/GitHub/ill20231216/public/pieces/ill20231212/notation/grace%20note%20clusters.ly:133:60:61">
<g transform="translate(287.0400, 17.2287)">
<path transform="scale(0.0026, -0.0026)" d="M204 141c63 0 120 -35 120 -103c0 -70 -50 -119 -97 -147c-33 -20 -70 -32 -108 -32c-63 0 -119 35 -119 103c0 70 49 119 96 147c33 20 70 32 108 32z" fill="currentColor"/>
</g>
</a>
<a style="color:inherit;" xlink:href="textedit://C:/Users/jwloy/Documents/GitHub/ill20231216/public/pieces/ill20231212/notation/grace%20note%20clusters.ly:133:63:64">
<g transform="translate(287.0400, 15.5787)">
<path transform="scale(0.0026, -0.0026)" d="M204 141c63 0 120 -35 120 -103c0 -70 -50 -119 -97 -147c-33 -20 -70 -32 -108 -32c-63 0 -119 35 -119 103c0 70 49 119 96 147c33 20 70 32 108 32z" fill="currentColor"/>
</g>
</a>
<a style="color:inherit;" xlink:href="textedit://C:/Users/jwloy/Documents/GitHub/ill20231216/public/pieces/ill20231212/notation/grace%20note%20clusters.ly:133:67:68">
<g transform="translate(287.0400, 12.2787)">
<path transform="scale(0.0026, -0.0026)" d="M204 141c63 0 120 -35 120 -103c0 -70 -50 -119 -97 -147c-33 -20 -70 -32 -108 -32c-63 0 -119 35 -119 103c0 70 49 119 96 147c33 20 70 32 108 32z" fill="currentColor"/>
</g>
</a>
<g transform="translate(286.5281, 16.4037)">
<rect x="-0.0795" y="-12.9443" width="0.1590" height="12.8458" ry="0.0400" fill="currentColor"/>
</g>
<g transform="translate(287.8081, 16.4037)">
<rect x="-0.0795" y="-12.9443" width="0.1590" height="13.6708" ry="0.0400" fill="currentColor"/>
</g>
<a style="color:inherit;" xlink:href="textedit://C:/Users/jwloy/Documents/GitHub/ill20231216/public/pieces/ill20231212/notation/grace%20note%20clusters.ly:133:126:127">
<g transform="translate(290.8800, 13.1037)">
<path transform="scale(0.0026, -0.0026)" d="M204 141c63 0 120 -35 120 -103c0 -70 -50 -119 -97 -147c-33 -20 -70 -32 -108 -32c-63 0 -119 35 -119 103c0 70 49 119 96 147c33 20 70 32 108 32z" fill="currentColor"/>
</g>
</a>
<a style="color:inherit;" xlink:href="textedit://C:/Users/jwloy/Documents/GitHub/ill20231216/public/pieces/ill20231212/notation/grace%20note%20clusters.ly:133:78:79">
<g transform="translate(288.3200, 18.0537)">
<path transform="scale(0.0026, -0.0026)" d="M204 141c63 0 120 -35 120 -103c0 -70 -50 -119 -97 -147c-33 -20 -70 -32 -108 -32c-63 0 -119 35 -119 103c0 70 49 119 96 147c33 20 70 32 108 32z" fill="currentColor"/>
</g>
</a>
<a style="color:inherit;" xlink:href="textedit://C:/Users/jwloy/Documents/GitHub/ill20231216/public/pieces/ill20231212/notation/grace%20note%20clusters.ly:133:32:33">
<g transform="translate(284.4800, 12.2787)">
<path transform="scale(0.0026, -0.0026)" d="M204 141c63 0 120 -35 120 -103c0 -70 -50 -119 -97 -147c-33 -20 -70 -32 -108 -32c-63 0 -119 35 -119 103c0 70 49 119 96 147c33 20 70 32 108 32z" fill="currentColor"/>
</g>
</a>
<a style="color:inherit;" xlink:href="textedit://C:/Users/jwloy/Documents/GitHub/ill20231216/public/pieces/ill20231212/notation/grace%20note%20clusters.ly:133:36:37">
<g transform="translate(284.4800, 15.5787)">
<path transform="scale(0.0026, -0.0026)" d="M204 141c63 0 120 -35 120 -103c0 -70 -50 -119 -97 -147c-33 -20 -70 -32 -108 -32c-63 0 -119 35 -119 103c0 70 49 119 96 147c33 20 70 32 108 32z" fill="currentColor"/>
</g>
</a>
<g transform="translate(285.2481, 16.4037)">
<rect x="-0.0795" y="-12.9443" width="0.1590" height="12.0208" ry="0.0400" fill="currentColor"/>
</g>
<a style="color:inherit;" xlink:href="textedit://C:/Users/jwloy/Documents/GitHub/ill20231216/public/pieces/ill20231212/notation/grace%20note%20clusters.ly:133:81:82">
<g transform="translate(288.3200, 16.4037)">
<path transform="scale(0.0026, -0.0026)" d="M204 141c63 0 120 -35 120 -103c0 -70 -50 -119 -97 -147c-33 -20 -70 -32 -108 -32c-63 0 -119 35 -119 103c0 70 49 119 96 147c33 20 70 32 108 32z" fill="currentColor"/>
</g>
</a>
<g transform="translate(291.6481, 16.4037)">
<rect x="-0.0795" y="-12.9443" width="0.1590" height="12.8458" ry="0.0400" fill="currentColor"/>
</g>
<a style="color:inherit;" xlink:href="textedit://C:/Users/jwloy/Documents/GitHub/ill20231216/public/pieces/ill20231212/notation/grace%20note%20clusters.ly:133:42:43">
<g transform="translate(285.7600, 16.4037)">
<path transform="scale(0.0026, -0.0026)" d="M204 141c63 0 120 -35 120 -103c0 -70 -50 -119 -97 -147c-33 -20 -70 -32 -108 -32c-63 0 -119 35 -119 103c0 70 49 119 96 147c33 20 70 32 108 32z" fill="currentColor"/>
</g>
</a>
<a style="color:inherit;" xlink:href="textedit://C:/Users/jwloy/Documents/GitHub/ill20231216/public/pieces/ill20231212/notation/grace%20note%20clusters.ly:133:45:46">
<g transform="translate(285.7600, 14.7537)">
<path transform="scale(0.0026, -0.0026)" d="M204 141c63 0 120 -35 120 -103c0 -70 -50 -119 -97 -147c-33 -20 -70 -32 -108 -32c-63 0 -119 35 -119 103c0 70 49 119 96 147c33 20 70 32 108 32z" fill="currentColor"/>
</g>
</a>
<a style="color:inherit;" xlink:href="textedit://C:/Users/jwloy/Documents/GitHub/ill20231216/public/pieces/ill20231212/notation/grace%20note%20clusters.ly:133:49:50">
<g transform="translate(285.7600, 13.1037)">
<path transform="scale(0.0026, -0.0026)" d="M204 141c63 0 120 -35 120 -103c0 -70 -50 -119 -97 -147c-33 -20 -70 -32 -108 -32c-63 0 -119 35 -119 103c0 70 49 119 96 147c33 20 70 32 108 32z" fill="currentColor"/>
</g>
</a>
<a style="color:inherit;" xlink:href="textedit://C:/Users/jwloy/Documents/GitHub/ill20231216/public/pieces/ill20231212/notation/grace%20note%20clusters.ly:133:53:54">
<g transform="translate(285.7600, 11.4537)">
<path transform="scale(0.0026, -0.0026)" d="M204 141c63 0 120 -35 120 -103c0 -70 -50 -119 -97 -147c-33 -20 -70 -32 -108 -32c-63 0 -119 35 -119 103c0 70 49 119 96 147c33 20 70 32 108 32z" fill="currentColor"/>
</g>
</a>
<a style="color:inherit;" xlink:href="textedit://C:/Users/jwloy/Documents/GitHub/ill20231216/public/pieces/ill20231212/notation/grace%20note%20clusters.ly:115:33:34">
<g transform="translate(111.2000, 16.4037)">
<path stroke-width="0.0978" stroke-linejoin="round" stroke-linecap="round" stroke="currentColor" fill="currentColor" d="M1.9101 0.4771C3.3165 1.4680 15.1936 1.4680 16.6000 0.4771L16.6000 0.4771C15.1936 1.3213 3.3165 1.3213 1.9101 0.4771z"/>
</g>
</a>
<a style="color:inherit;" xlink:href="textedit://C:/Users/jwloy/Documents/GitHub/ill20231216/public/pieces/ill20231212/notation/grace%20note%20clusters.ly:133:119:120">
<g transform="translate(290.8800, 16.4037)">
<path transform="scale(0.0026, -0.0026)" d="M204 141c63 0 120 -35 120 -103c0 -70 -50 -119 -97 -147c-33 -20 -70 -32 -108 -32c-63 0 -119 35 -119 103c0 70 49 119 96 147c33 20 70 32 108 32z" fill="currentColor"/>
</g>
</a>
<a style="color:inherit;" xlink:href="textedit://C:/Users/jwloy/Documents/GitHub/ill20231216/public/pieces/ill20231212/notation/grace%20note%20clusters.ly:133:10:11">
<g transform="translate(282.6086, 3.4594)">
<polygon stroke-linejoin="round" stroke-linecap="round" stroke-width="0.0800" fill="currentColor" stroke="currentColor" points="12.9190 -0.2768 12.9190 0.2768 0.0400 0.2768 0.0400 -0.2768"/>
</g>
<g transform="translate(282.6086, 4.5115)">
<polygon stroke-linejoin="round" stroke-linecap="round" stroke-width="0.0800" fill="currentColor" stroke="currentColor" points="12.9190 -0.2768 12.9190 0.2768 0.0400 0.2768 0.0400 -0.2768"/>
</g>
<g transform="translate(282.6086, 5.5636)">
<polygon stroke-linejoin="round" stroke-linecap="round" stroke-width="0.0800" fill="currentColor" stroke="currentColor" points="12.9190 -0.2768 12.9190 0.2768 0.0400 0.2768 0.0400 -0.2768"/>
</g>
</a>
<a style="color:inherit;" xlink:href="textedit://C:/Users/jwloy/Documents/GitHub/ill20231216/public/pieces/ill20231212/notation/grace%20note%20clusters.ly:124:10:11">
<g transform="translate(151.5487, 4.5980)">
<polygon stroke-linejoin="round" stroke-linecap="round" stroke-width="0.0800" fill="currentColor" stroke="currentColor" points="17.9789 -0.2768 17.9789 0.2768 0.0400 0.2768 0.0400 -0.2768"/>
</g>
<g transform="translate(151.5487, 5.6502)">
<polygon stroke-linejoin="round" stroke-linecap="round" stroke-width="0.0800" fill="currentColor" stroke="currentColor" points="17.9789 -0.2768 17.9789 0.2768 0.0400 0.2768 0.0400 -0.2768"/>
</g>
<g transform="translate(151.5487, 6.7023)">
<polygon stroke-linejoin="round" stroke-linecap="round" stroke-width="0.0800" fill="currentColor" stroke="currentColor" points="17.9789 -0.2768 17.9789 0.2768 0.0400 0.2768 0.0400 -0.2768"/>
</g>
</a>
<a style="color:inherit;" xlink:href="textedit://C:/Users/jwloy/Documents/GitHub/ill20231216/public/pieces/ill20231212/notation/grace%20note%20clusters.ly:115:8:9">
<g transform="translate(105.1135, 2.9462)">
<text font-family="serif" font-style="italic" font-size="2.8814" text-anchor="start" fill="currentColor">
<tspan>5:2</tspan>
</text>
</g>
</a>
<a style="color:inherit;" xlink:href="textedit://C:/Users/jwloy/Documents/GitHub/ill20231216/public/pieces/ill20231212/notation/grace%20note%20clusters.ly:115:8:9">
<g transform="translate(87.5511, 2.0072)">
<line stroke-linejoin="round" stroke-linecap="round" stroke-width="0.1957" stroke="currentColor" x1="39.2789" y1="-0.0000" x2="39.2789" y2="1.1550"/>
</g>
<g transform="translate(87.5511, 2.0072)">
<line stroke-linejoin="round" stroke-linecap="round" stroke-width="0.1957" stroke="currentColor" x1="-0.3300" y1="-0.0000" x2="-0.3300" y2="1.1550"/>
</g>
<g transform="translate(87.5511, 2.0072)">
<line stroke-linejoin="round" stroke-linecap="round" stroke-width="0.1957" stroke="currentColor" x1="39.2789" y1="-0.0000" x2="21.9865" y2="-0.0000"/>
</g>
<g transform="translate(87.5511, 2.0072)">
<line stroke-linejoin="round" stroke-linecap="round" stroke-width="0.1957" stroke="currentColor" x1="-0.3300" y1="-0.0000" x2="17.1624" y2="-0.0000"/>
</g>
</a>
<a style="color:inherit;" xlink:href="textedit://C:/Users/jwloy/Documents/GitHub/ill20231216/public/pieces/ill20231212/notation/grace%20note%20clusters.ly:112:11:12">
<g transform="translate(65.0000, 16.4037)">
<path stroke-width="0.0978" stroke-linejoin="round" stroke-linecap="round" stroke="currentColor" fill="currentColor" d="M1.9101 0.4717C3.4159 1.4808 19.2942 1.4808 20.8000 0.4717L20.8000 0.4717C19.2942 1.3341 3.4159 1.3341 1.9101 0.4717z"/>
</g>
</a>
<a style="color:inherit;" xlink:href="textedit://C:/Users/jwloy/Documents/GitHub/ill20231216/public/pieces/ill20231212/notation/grace%20note%20clusters.ly:107:10:11">
<g transform="translate(46.6773, 4.0287)">
<polygon stroke-linejoin="round" stroke-linecap="round" stroke-width="0.0800" fill="currentColor" stroke="currentColor" points="7.3503 -0.2768 7.3503 0.2768 0.0400 0.2768 0.0400 -0.2768"/>
</g>
<g transform="translate(46.6773, 5.0808)">
<polygon stroke-linejoin="round" stroke-linecap="round" stroke-width="0.0800" fill="currentColor" stroke="currentColor" points="7.3503 -0.2768 7.3503 0.2768 0.0400 0.2768 0.0400 -0.2768"/>
</g>
<g transform="translate(46.6773, 6.1329)">
<polygon stroke-linejoin="round" stroke-linecap="round" stroke-width="0.0800" fill="currentColor" stroke="currentColor" points="7.3503 -0.2768 7.3503 0.2768 0.0400 0.2768 0.0400 -0.2768"/>
</g>
</a>
<g transform="translate(290.3681, 16.4037)">
<rect x="-0.0795" y="-12.9443" width="0.1590" height="13.6708" ry="0.0400" fill="currentColor"/>
</g>
<a style="color:inherit;" xlink:href="textedit://C:/Users/jwloy/Documents/GitHub/ill20231216/public/pieces/ill20231212/notation/grace%20note%20clusters.ly:133:112:113">
<g transform="translate(289.6000, 10.6287)">
<path transform="scale(0.0026, -0.0026)" d="M204 141c63 0 120 -35 120 -103c0 -70 -50 -119 -97 -147c-33 -20 -70 -32 -108 -32c-63 0 -119 35 -119 103c0 70 49 119 96 147c33 20 70 32 108 32z" fill="currentColor"/>
</g>
</a>
<a style="color:inherit;" xlink:href="textedit://C:/Users/jwloy/Documents/GitHub/ill20231216/public/pieces/ill20231212/notation/grace%20note%20clusters.ly:133:108:109">
<g transform="translate(289.6000, 12.2787)">
<path transform="scale(0.0026, -0.0026)" d="M204 141c63 0 120 -35 120 -103c0 -70 -50 -119 -97 -147c-33 -20 -70 -32 -108 -32c-63 0 -119 35 -119 103c0 70 49 119 96 147c33 20 70 32 108 32z" fill="currentColor"/>
</g>
</a>
<a style="color:inherit;" xlink:href="textedit://C:/Users/jwloy/Documents/GitHub/ill20231216/public/pieces/ill20231212/notation/grace%20note%20clusters.ly:133:104:105">
<g transform="translate(289.6000, 15.5787)">
<path transform="scale(0.0026, -0.0026)" d="M204 141c63 0 120 -35 120 -103c0 -70 -50 -119 -97 -147c-33 -20 -70 -32 -108 -32c-63 0 -119 35 -119 103c0 70 49 119 96 147c33 20 70 32 108 32z" fill="currentColor"/>
</g>
</a>
<a style="color:inherit;" xlink:href="textedit://C:/Users/jwloy/Documents/GitHub/ill20231216/public/pieces/ill20231212/notation/grace%20note%20clusters.ly:133:101:102">
<g transform="translate(289.6000, 17.2287)">
<path transform="scale(0.0026, -0.0026)" d="M204 141c63 0 120 -35 120 -103c0 -70 -50 -119 -97 -147c-33 -20 -70 -32 -108 -32c-63 0 -119 35 -119 103c0 70 49 119 96 147c33 20 70 32 108 32z" fill="currentColor"/>
</g>
</a>
<a style="color:inherit;" xlink:href="textedit://C:/Users/jwloy/Documents/GitHub/ill20231216/public/pieces/ill20231212/notation/grace%20note%20clusters.ly:133:122:123">
<g transform="translate(290.8800, 14.7537)">
<path transform="scale(0.0026, -0.0026)" d="M204 141c63 0 120 -35 120 -103c0 -70 -50 -119 -97 -147c-33 -20 -70 -32 -108 -32c-63 0 -119 35 -119 103c0 70 49 119 96 147c33 20 70 32 108 32z" fill="currentColor"/>
</g>
</a>
<g transform="translate(289.0881, 16.4037)">
<rect x="-0.0795" y="-12.9443" width="0.1590" height="14.4958" ry="0.0400" fill="currentColor"/>
</g>
<a style="color:inherit;" xlink:href="textedit://C:/Users/jwloy/Documents/GitHub/ill20231216/public/pieces/ill20231212/notation/grace%20note%20clusters.ly:133:92:93">
<g transform="translate(288.3200, 9.8037)">
<path transform="scale(0.0026, -0.0026)" d="M204 141c63 0 120 -35 120 -103c0 -70 -50 -119 -97 -147c-33 -20 -70 -32 -108 -32c-63 0 -119 35 -119 103c0 70 49 119 96 147c33 20 70 32 108 32z" fill="currentColor"/>
</g>
</a>
<a style="color:inherit;" xlink:href="textedit://C:/Users/jwloy/Documents/GitHub/ill20231216/public/pieces/ill20231212/notation/grace%20note%20clusters.ly:133:88:89">
<g transform="translate(288.3200, 11.4537)">
<path transform="scale(0.0026, -0.0026)" d="M204 141c63 0 120 -35 120 -103c0 -70 -50 -119 -97 -147c-33 -20 -70 -32 -108 -32c-63 0 -119 35 -119 103c0 70 49 119 96 147c33 20 70 32 108 32z" fill="currentColor"/>
</g>
</a>
<a style="color:inherit;" xlink:href="textedit://C:/Users/jwloy/Documents/GitHub/ill20231216/public/pieces/ill20231212/notation/grace%20note%20clusters.ly:133:84:85">
<g transform="translate(288.3200, 13.9287)">
<path transform="scale(0.0026, -0.0026)" d="M204 141c63 0 120 -35 120 -103c0 -70 -50 -119 -97 -147c-33 -20 -70 -32 -108 -32c-63 0 -119 35 -119 103c0 70 49 119 96 147c33 20 70 32 108 32z" fill="currentColor"/>
</g>
</a>
<a style="color:inherit;" xlink:href="textedit://C:/Users/jwloy/Documents/GitHub/ill20231216/public/pieces/ill20231212/notation/grace%20note%20clusters.ly:129:8:9">
<g transform="translate(170.0000, 16.4037)">
<path transform="scale(0.0066, -0.0066)" d="M-23 -113c0 26 10 40 36 40c34 0 85 -15 130 -37l-137 164c-7 8 -10 17 -10 25c0 33 49 64 86 96c26 22 39 54 39 85c0 24 -8 47 -24 67l-39 46c-2 3 -3 6 -3 9c0 7 7 14 14 14c3 0 7 -1 10 -5l152 -182c7 -8 10 -17 10 -25c0 -33 -49 -64 -86 -96
c-26 -22 -39 -54 -39 -85c0 -24 8 -47 24 -67l87 -104c2 -3 3 -5 3 -8c0 -7 -7 -14 -14 -14c-3 0 -7 1 -10 5c-19 22 -66 43 -102 43c-40 0 -52 -29 -52 -70c0 -35 11 -75 28 -96c6 -7 -4 -16 -10 -9c-46 55 -93 150 -93 204z" fill="currentColor"/>
</g>
</a>
<g transform="translate(292.9281, 16.4037)">
<rect x="-0.0795" y="-12.9443" width="0.1590" height="12.0208" ry="0.0400" fill="currentColor"/>
</g>
<a style="color:inherit;" xlink:href="textedit://C:/Users/jwloy/Documents/GitHub/ill20231216/public/pieces/ill20231212/notation/grace%20note%20clusters.ly:129:11:12">
<g transform="translate(191.0000, 16.4037)">
<path transform="scale(0.0066, -0.0066)" d="M-23 -113c0 26 10 40 36 40c34 0 85 -15 130 -37l-137 164c-7 8 -10 17 -10 25c0 33 49 64 86 96c26 22 39 54 39 85c0 24 -8 47 -24 67l-39 46c-2 3 -3 6 -3 9c0 7 7 14 14 14c3 0 7 -1 10 -5l152 -182c7 -8 10 -17 10 -25c0 -33 -49 -64 -86 -96
c-26 -22 -39 -54 -39 -85c0 -24 8 -47 24 -67l87 -104c2 -3 3 -5 3 -8c0 -7 -7 -14 -14 -14c-3 0 -7 1 -10 5c-19 22 -66 43 -102 43c-40 0 -52 -29 -52 -70c0 -35 11 -75 28 -96c6 -7 -4 -16 -10 -9c-46 55 -93 150 -93 204z" fill="currentColor"/>
</g>
</a>
<a style="color:inherit;" xlink:href="textedit://C:/Users/jwloy/Documents/GitHub/ill20231216/public/pieces/ill20231212/notation/grace%20note%20clusters.ly:133:141:142">
<g transform="translate(292.1600, 15.5787)">
<path transform="scale(0.0026, -0.0026)" d="M204 141c63 0 120 -35 120 -103c0 -70 -50 -119 -97 -147c-33 -20 -70 -32 -108 -32c-63 0 -119 35 -119 103c0 70 49 119 96 147c33 20 70 32 108 32z" fill="currentColor"/>
</g>
</a>
<a style="color:inherit;" xlink:href="textedit://C:/Users/jwloy/Documents/GitHub/ill20231216/public/pieces/ill20231212/notation/grace%20note%20clusters.ly:124:174:175">
<g transform="translate(167.4400, 13.1037)">
<path transform="scale(0.0026, -0.0026)" d="M204 141c63 0 120 -35 120 -103c0 -70 -50 -119 -97 -147c-33 -20 -70 -32 -108 -32c-63 0 -119 35 -119 103c0 70 49 119 96 147c33 20 70 32 108 32z" fill="currentColor"/>
</g>
</a>
<a style="color:inherit;" xlink:href="textedit://C:/Users/jwloy/Documents/GitHub/ill20231216/public/pieces/ill20231212/notation/grace%20note%20clusters.ly:124:178:179">
<g transform="translate(167.4400, 14.7537)">
<path transform="scale(0.0026, -0.0026)" d="M204 141c63 0 120 -35 120 -103c0 -70 -50 -119 -97 -147c-33 -20 -70 -32 -108 -32c-63 0 -119 35 -119 103c0 70 49 119 96 147c33 20 70 32 108 32z" fill="currentColor"/>
</g>
</a>
<g transform="translate(168.2081, 16.4037)">
<rect x="-0.0795" y="-11.8057" width="0.1590" height="10.0571" ry="0.0400" fill="currentColor"/>
</g>
<a style="color:inherit;" xlink:href="textedit://C:/Users/jwloy/Documents/GitHub/ill20231216/public/pieces/ill20231212/notation/grace%20note%20clusters.ly:129:13:14">
<g transform="translate(212.0000, 16.4037)">
<path transform="scale(0.0066, -0.0066)" d="M-23 -113c0 26 10 40 36 40c34 0 85 -15 130 -37l-137 164c-7 8 -10 17 -10 25c0 33 49 64 86 96c26 22 39 54 39 85c0 24 -8 47 -24 67l-39 46c-2 3 -3 6 -3 9c0 7 7 14 14 14c3 0 7 -1 10 -5l152 -182c7 -8 10 -17 10 -25c0 -33 -49 -64 -86 -96
c-26 -22 -39 -54 -39 -85c0 -24 8 -47 24 -67l87 -104c2 -3 3 -5 3 -8c0 -7 -7 -14 -14 -14c-3 0 -7 1 -10 5c-19 22 -66 43 -102 43c-40 0 -52 -29 -52 -70c0 -35 11 -75 28 -96c6 -7 -4 -16 -10 -9c-46 55 -93 150 -93 204z" fill="currentColor"/>
</g>
</a>
<a style="color:inherit;" xlink:href="textedit://C:/Users/jwloy/Documents/GitHub/ill20231216/public/pieces/ill20231212/notation/grace%20note%20clusters.ly:124:183:184">
<g transform="translate(168.7200, 13.9287)">
<path transform="scale(0.0026, -0.0026)" d="M204 141c63 0 120 -35 120 -103c0 -70 -50 -119 -97 -147c-33 -20 -70 -32 -108 -32c-63 0 -119 35 -119 103c0 70 49 119 96 147c33 20 70 32 108 32z" fill="currentColor"/>
</g>
</a>
<g transform="translate(169.4881, 16.4037)">
<rect x="-0.0795" y="-11.8057" width="0.1590" height="9.2321" ry="0.0400" fill="currentColor"/>
</g>
<a style="color:inherit;" xlink:href="textedit://C:/Users/jwloy/Documents/GitHub/ill20231216/public/pieces/ill20231212/notation/grace%20note%20clusters.ly:129:19:20">
<g transform="translate(275.0000, 16.4037)">
<path transform="scale(0.0066, -0.0066)" d="M-23 -113c0 26 10 40 36 40c34 0 85 -15 130 -37l-137 164c-7 8 -10 17 -10 25c0 33 49 64 86 96c26 22 39 54 39 85c0 24 -8 47 -24 67l-39 46c-2 3 -3 6 -3 9c0 7 7 14 14 14c3 0 7 -1 10 -5l152 -182c7 -8 10 -17 10 -25c0 -33 -49 -64 -86 -96
c-26 -22 -39 -54 -39 -85c0 -24 8 -47 24 -67l87 -104c2 -3 3 -5 3 -8c0 -7 -7 -14 -14 -14c-3 0 -7 1 -10 5c-19 22 -66 43 -102 43c-40 0 -52 -29 -52 -70c0 -35 11 -75 28 -96c6 -7 -4 -16 -10 -9c-46 55 -93 150 -93 204z" fill="currentColor"/>
</g>
</a>
<a style="color:inherit;" xlink:href="textedit://C:/Users/jwloy/Documents/GitHub/ill20231216/public/pieces/ill20231212/notation/grace%20note%20clusters.ly:133:12:13">
<g transform="translate(281.9200, 13.9287)">
<path transform="scale(0.0026, -0.0026)" d="M204 141c63 0 120 -35 120 -103c0 -70 -50 -119 -97 -147c-33 -20 -70 -32 -108 -32c-63 0 -119 35 -119 103c0 70 49 119 96 147c33 20 70 32 108 32z" fill="currentColor"/>
</g>
</a>
<g transform="translate(282.6881, 16.4037)">
<rect x="-0.0795" y="-12.9443" width="0.1590" height="10.3708" ry="0.0400" fill="currentColor"/>
</g>
<a style="color:inherit;" xlink:href="textedit://C:/Users/jwloy/Documents/GitHub/ill20231216/public/pieces/ill20231212/notation/grace%20note%20clusters.ly:133:22:23">
<g transform="translate(283.2000, 13.1037)">
<path transform="scale(0.0026, -0.0026)" d="M204 141c63 0 120 -35 120 -103c0 -70 -50 -119 -97 -147c-33 -20 -70 -32 -108 -32c-63 0 -119 35 -119 103c0 70 49 119 96 147c33 20 70 32 108 32z" fill="currentColor"/>
</g>
</a>
<a style="color:inherit;" xlink:href="textedit://C:/Users/jwloy/Documents/GitHub/ill20231216/public/pieces/ill20231212/notation/grace%20note%20clusters.ly:133:26:27">
<g transform="translate(283.2000, 14.7537)">
<path transform="scale(0.0026, -0.0026)" d="M204 141c63 0 120 -35 120 -103c0 -70 -50 -119 -97 -147c-33 -20 -70 -32 -108 -32c-63 0 -119 35 -119 103c0 70 49 119 96 147c33 20 70 32 108 32z" fill="currentColor"/>
</g>
</a>
<g transform="translate(283.9681, 16.4037)">
<rect x="-0.0795" y="-12.9443" width="0.1590" height="11.1958" ry="0.0400" fill="currentColor"/>
</g>
<g transform="translate(166.9281, 16.4037)">
<rect x="-0.0795" y="-11.8057" width="0.1590" height="10.8821" ry="0.0400" fill="currentColor"/>
</g>
<a style="color:inherit;" xlink:href="textedit://C:/Users/jwloy/Documents/GitHub/ill20231216/public/pieces/ill20231212/notation/grace%20note%20clusters.ly:129:17:18">
<g transform="translate(254.0000, 16.4037)">
<path transform="scale(0.0066, -0.0066)" d="M-23 -113c0 26 10 40 36 40c34 0 85 -15 130 -37l-137 164c-7 8 -10 17 -10 25c0 33 49 64 86 96c26 22 39 54 39 85c0 24 -8 47 -24 67l-39 46c-2 3 -3 6 -3 9c0 7 7 14 14 14c3 0 7 -1 10 -5l152 -182c7 -8 10 -17 10 -25c0 -33 -49 -64 -86 -96
c-26 -22 -39 -54 -39 -85c0 -24 8 -47 24 -67l87 -104c2 -3 3 -5 3 -8c0 -7 -7 -14 -14 -14c-3 0 -7 1 -10 5c-19 22 -66 43 -102 43c-40 0 -52 -29 -52 -70c0 -35 11 -75 28 -96c6 -7 -4 -16 -10 -9c-46 55 -93 150 -93 204z" fill="currentColor"/>
</g>
</a>
<a style="color:inherit;" xlink:href="textedit://C:/Users/jwloy/Documents/GitHub/ill20231216/public/pieces/ill20231212/notation/grace%20note%20clusters.ly:129:15:16">
<g transform="translate(233.0000, 16.4037)">
<path transform="scale(0.0066, -0.0066)" d="M-23 -113c0 26 10 40 36 40c34 0 85 -15 130 -37l-137 164c-7 8 -10 17 -10 25c0 33 49 64 86 96c26 22 39 54 39 85c0 24 -8 47 -24 67l-39 46c-2 3 -3 6 -3 9c0 7 7 14 14 14c3 0 7 -1 10 -5l152 -182c7 -8 10 -17 10 -25c0 -33 -49 -64 -86 -96
c-26 -22 -39 -54 -39 -85c0 -24 8 -47 24 -67l87 -104c2 -3 3 -5 3 -8c0 -7 -7 -14 -14 -14c-3 0 -7 1 -10 5c-19 22 -66 43 -102 43c-40 0 -52 -29 -52 -70c0 -35 11 -75 28 -96c6 -7 -4 -16 -10 -9c-46 55 -93 150 -93 204z" fill="currentColor"/>
</g>
</a>
<a style="color:inherit;" xlink:href="textedit://C:/Users/jwloy/Documents/GitHub/ill20231216/public/pieces/ill20231212/notation/grace%20note%20clusters.ly:133:137:138">
<g transform="translate(292.1600, 12.2787)">
<path transform="scale(0.0026, -0.0026)" d="M204 141c63 0 120 -35 120 -103c0 -70 -50 -119 -97 -147c-33 -20 -70 -32 -108 -32c-63 0 -119 35 -119 103c0 70 49 119 96 147c33 20 70 32 108 32z" fill="currentColor"/>
</g>
</a>
<a style="color:inherit;" xlink:href="textedit://C:/Users/jwloy/Documents/GitHub/ill20231216/public/pieces/ill20231212/notation/grace%20note%20clusters.ly:93:120:121">
<g transform="translate(19.6097, 16.4037)">
<path transform="scale(0.0026, -0.0026)" d="M204 141c63 0 120 -35 120 -103c0 -70 -50 -119 -97 -147c-33 -20 -70 -32 -108 -32c-63 0 -119 35 -119 103c0 70 49 119 96 147c33 20 70 32 108 32z" fill="currentColor"/>
</g>
</a>
<a style="color:inherit;" xlink:href="textedit://C:/Users/jwloy/Documents/GitHub/ill20231216/public/pieces/ill20231212/notation/grace%20note%20clusters.ly:93:123:124">
<g transform="translate(19.6097, 14.7537)">
<path transform="scale(0.0026, -0.0026)" d="M204 141c63 0 120 -35 120 -103c0 -70 -50 -119 -97 -147c-33 -20 -70 -32 -108 -32c-63 0 -119 35 -119 103c0 70 49 119 96 147c33 20 70 32 108 32z" fill="currentColor"/>
</g>
</a>
<a style="color:inherit;" xlink:href="textedit://C:/Users/jwloy/Documents/GitHub/ill20231216/public/pieces/ill20231212/notation/grace%20note%20clusters.ly:93:127:128">
<g transform="translate(19.6097, 13.1037)">
<path transform="scale(0.0026, -0.0026)" d="M204 141c63 0 120 -35 120 -103c0 -70 -50 -119 -97 -147c-33 -20 -70 -32 -108 -32c-63 0 -119 35 -119 103c0 70 49 119 96 147c33 20 70 32 108 32z" fill="currentColor"/>
</g>
</a>
<a style="color:inherit;" xlink:href="textedit://C:/Users/jwloy/Documents/GitHub/ill20231216/public/pieces/ill20231212/notation/grace%20note%20clusters.ly:93:131:132">
<g transform="translate(19.6097, 11.4537)">
<path transform="scale(0.0026, -0.0026)" d="M204 141c63 0 120 -35 120 -103c0 -70 -50 -119 -97 -147c-33 -20 -70 -32 -108 -32c-63 0 -119 35 -119 103c0 70 49 119 96 147c33 20 70 32 108 32z" fill="currentColor"/>
</g>
</a>
<g transform="translate(20.3778, 16.4037)">
<rect x="-0.0795" y="-12.9443" width="0.1590" height="12.8458" ry="0.0400" fill="currentColor"/>
</g>
<a style="color:inherit;" xlink:href="textedit://C:/Users/jwloy/Documents/GitHub/ill20231216/public/pieces/ill20231212/notation/grace%20note%20clusters.ly:93:138:139">
<g transform="translate(20.4573, 12.2787)">
<path transform="scale(0.0026, -0.0026)" d="M204 141c63 0 120 -35 120 -103c0 -70 -50 -119 -97 -147c-33 -20 -70 -32 -108 -32c-63 0 -119 35 -119 103c0 70 49 119 96 147c33 20 70 32 108 32z" fill="currentColor"/>
</g>
</a>
<a style="color:inherit;" xlink:href="textedit://C:/Users/jwloy/Documents/GitHub/ill20231216/public/pieces/ill20231212/notation/grace%20note%20clusters.ly:93:142:143">
<g transform="translate(20.4573, 15.5787)">
<path transform="scale(0.0026, -0.0026)" d="M204 141c63 0 120 -35 120 -103c0 -70 -50 -119 -97 -147c-33 -20 -70 -32 -108 -32c-63 0 -119 35 -119 103c0 70 49 119 96 147c33 20 70 32 108 32z" fill="currentColor"/>
</g>
</a>
<g transform="translate(21.2254, 16.4037)">
<rect x="-0.0795" y="-12.9443" width="0.1590" height="12.0208" ry="0.0400" fill="currentColor"/>
</g>
<a style="color:inherit;" xlink:href="textedit://C:/Users/jwloy/Documents/GitHub/ill20231216/public/pieces/ill20231212/notation/grace%20note%20clusters.ly:93:79:80">
<g transform="translate(17.9145, 18.0537)">
<path transform="scale(0.0026, -0.0026)" d="M204 141c63 0 120 -35 120 -103c0 -70 -50 -119 -97 -147c-33 -20 -70 -32 -108 -32c-63 0 -119 35 -119 103c0 70 49 119 96 147c33 20 70 32 108 32z" fill="currentColor"/>
</g>
</a>
<a style="color:inherit;" xlink:href="textedit://C:/Users/jwloy/Documents/GitHub/ill20231216/public/pieces/ill20231212/notation/grace%20note%20clusters.ly:93:82:83">
<g transform="translate(17.9145, 16.4037)">
<path transform="scale(0.0026, -0.0026)" d="M204 141c63 0 120 -35 120 -103c0 -70 -50 -119 -97 -147c-33 -20 -70 -32 -108 -32c-63 0 -119 35 -119 103c0 70 49 119 96 147c33 20 70 32 108 32z" fill="currentColor"/>
</g>
</a>
<a style="color:inherit;" xlink:href="textedit://C:/Users/jwloy/Documents/GitHub/ill20231216/public/pieces/ill20231212/notation/grace%20note%20clusters.ly:93:85:86">
<g transform="translate(17.9145, 13.9287)">
<path transform="scale(0.0026, -0.0026)" d="M204 141c63 0 120 -35 120 -103c0 -70 -50 -119 -97 -147c-33 -20 -70 -32 -108 -32c-63 0 -119 35 -119 103c0 70 49 119 96 147c33 20 70 32 108 32z" fill="currentColor"/>
</g>
</a>
<a style="color:inherit;" xlink:href="textedit://C:/Users/jwloy/Documents/GitHub/ill20231216/public/pieces/ill20231212/notation/grace%20note%20clusters.ly:93:89:90">
<g transform="translate(17.9145, 11.4537)">
<path transform="scale(0.0026, -0.0026)" d="M204 141c63 0 120 -35 120 -103c0 -70 -50 -119 -97 -147c-33 -20 -70 -32 -108 -32c-63 0 -119 35 -119 103c0 70 49 119 96 147c33 20 70 32 108 32z" fill="currentColor"/>
</g>
</a>
<a style="color:inherit;" xlink:href="textedit://C:/Users/jwloy/Documents/GitHub/ill20231216/public/pieces/ill20231212/notation/grace%20note%20clusters.ly:93:93:94">
<g transform="translate(17.9145, 9.8037)">
<path transform="scale(0.0026, -0.0026)" d="M204 141c63 0 120 -35 120 -103c0 -70 -50 -119 -97 -147c-33 -20 -70 -32 -108 -32c-63 0 -119 35 -119 103c0 70 49 119 96 147c33 20 70 32 108 32z" fill="currentColor"/>
</g>
</a>
<g transform="translate(18.6826, 16.4037)">
<rect x="-0.0795" y="-12.9443" width="0.1590" height="14.4958" ry="0.0400" fill="currentColor"/>
</g>
<a style="color:inherit;" xlink:href="textedit://C:/Users/jwloy/Documents/GitHub/ill20231216/public/pieces/ill20231212/notation/grace%20note%20clusters.ly:93:102:103">
<g transform="translate(18.7621, 17.2287)">
<path transform="scale(0.0026, -0.0026)" d="M204 141c63 0 120 -35 120 -103c0 -70 -50 -119 -97 -147c-33 -20 -70 -32 -108 -32c-63 0 -119 35 -119 103c0 70 49 119 96 147c33 20 70 32 108 32z" fill="currentColor"/>
</g>
</a>
<a style="color:inherit;" xlink:href="textedit://C:/Users/jwloy/Documents/GitHub/ill20231216/public/pieces/ill20231212/notation/grace%20note%20clusters.ly:93:105:106">
<g transform="translate(18.7621, 15.5787)">
<path transform="scale(0.0026, -0.0026)" d="M204 141c63 0 120 -35 120 -103c0 -70 -50 -119 -97 -147c-33 -20 -70 -32 -108 -32c-63 0 -119 35 -119 103c0 70 49 119 96 147c33 20 70 32 108 32z" fill="currentColor"/>
</g>
</a>
<a style="color:inherit;" xlink:href="textedit://C:/Users/jwloy/Documents/GitHub/ill20231216/public/pieces/ill20231212/notation/grace%20note%20clusters.ly:93:109:110">
<g transform="translate(18.7621, 12.2787)">
<path transform="scale(0.0026, -0.0026)" d="M204 141c63 0 120 -35 120 -103c0 -70 -50 -119 -97 -147c-33 -20 -70 -32 -108 -32c-63 0 -119 35 -119 103c0 70 49 119 96 147c33 20 70 32 108 32z" fill="currentColor"/>
</g>
</a>
<a style="color:inherit;" xlink:href="textedit://C:/Users/jwloy/Documents/GitHub/ill20231216/public/pieces/ill20231212/notation/grace%20note%20clusters.ly:93:113:114">
<g transform="translate(18.7621, 10.6287)">
<path transform="scale(0.0026, -0.0026)" d="M204 141c63 0 120 -35 120 -103c0 -70 -50 -119 -97 -147c-33 -20 -70 -32 -108 -32c-63 0 -119 35 -119 103c0 70 49 119 96 147c33 20 70 32 108 32z" fill="currentColor"/>
</g>
</a>
<g transform="translate(19.5302, 16.4037)">
<rect x="-0.0795" y="-12.9443" width="0.1590" height="13.6708" ry="0.0400" fill="currentColor"/>
</g>
<g transform="translate(129.6306, 16.4037)">
<rect x="-0.0795" y="-11.2750" width="0.1590" height="11.0174" ry="0.0400" fill="currentColor"/>
</g>
<a style="color:inherit;" xlink:href="textedit://C:/Users/jwloy/Documents/GitHub/ill20231216/public/pieces/ill20231212/notation/grace%20note%20clusters.ly:97:13:14">
<g transform="translate(23.8550, 12.2787)">
<path transform="scale(0.0052, -0.0052)" d="M-114 0c-8 0 -13 8 -10 15l114 254c2 4 6 6 10 6s8 -2 10 -6l114 -254c3 -7 -2 -15 -10 -15h-68c-4 0 -7 2 -9 6l-71 156l-70 -156c-2 -4 -6 -6 -10 -6z" fill="currentColor"/>
</g>
</a>
<g transform="translate(23.0795, 16.4037)">
<rect x="-0.0795" y="-2.2174" width="0.1590" height="11.2924" ry="0.0400" fill="currentColor"/>
</g>
<g transform="translate(23.1590, 25.4387)">
<path transform="scale(0.0066, -0.0066)" d="M0 0h-14v250h14v-250zM0 0v250c98 58 228 147 228 259c0 57 -15 112 -40 164c-3 15 9 25 21 25c7 0 14 -3 18 -10c25 -56 40 -117 40 -179c0 -203 -267 -306 -267 -509z" fill="currentColor"/>
</g>
<g transform="translate(317.0795, 16.4037)">
<rect x="-0.0795" y="-3.8674" width="0.1590" height="11.2924" ry="0.0400" fill="currentColor"/>
</g>
<a style="color:inherit;" xlink:href="textedit://C:/Users/jwloy/Documents/GitHub/ill20231216/public/pieces/ill20231212/notation/grace%20note%20clusters.ly:104:8:9">
<g transform="translate(44.0000, 13.9287)">
<path transform="scale(0.0052, -0.0052)" d="M222 135c53 0 104 -27 104 -86c0 -71 -56 -120 -103 -148c-36 -22 -76 -36 -118 -36c-53 0 -105 27 -105 86c0 71 57 120 104 148c36 22 76 36 118 36z" fill="currentColor"/>
</g>
</a>
<g transform="translate(22.9205, 16.4037)">
<rect x="-0.0795" y="-12.9443" width="0.1590" height="10.3708" ry="0.0400" fill="currentColor"/>
</g>
<a style="color:inherit;" xlink:href="textedit://C:/Users/jwloy/Documents/GitHub/ill20231216/public/pieces/ill20231212/notation/grace%20note%20clusters.ly:93:158:159">
<g transform="translate(22.1524, 13.9287)">
<path transform="scale(0.0026, -0.0026)" d="M204 141c63 0 120 -35 120 -103c0 -70 -50 -119 -97 -147c-33 -20 -70 -32 -108 -32c-63 0 -119 35 -119 103c0 70 49 119 96 147c33 20 70 32 108 32z" fill="currentColor"/>
</g>
</a>
<g transform="translate(22.0729, 16.4037)">
<rect x="-0.0795" y="-12.9443" width="0.1590" height="11.1958" ry="0.0400" fill="currentColor"/>
</g>
<a style="color:inherit;" xlink:href="textedit://C:/Users/jwloy/Documents/GitHub/ill20231216/public/pieces/ill20231212/notation/grace%20note%20clusters.ly:93:153:154">
<g transform="translate(21.3048, 14.7537)">
<path transform="scale(0.0026, -0.0026)" d="M204 141c63 0 120 -35 120 -103c0 -70 -50 -119 -97 -147c-33 -20 -70 -32 -108 -32c-63 0 -119 35 -119 103c0 70 49 119 96 147c33 20 70 32 108 32z" fill="currentColor"/>
</g>
</a>
<a style="color:inherit;" xlink:href="textedit://C:/Users/jwloy/Documents/GitHub/ill20231216/public/pieces/ill20231212/notation/grace%20note%20clusters.ly:93:149:150">
<g transform="translate(21.3048, 13.1037)">
<path transform="scale(0.0026, -0.0026)" d="M204 141c63 0 120 -35 120 -103c0 -70 -50 -119 -97 -147c-33 -20 -70 -32 -108 -32c-63 0 -119 35 -119 103c0 70 49 119 96 147c33 20 70 32 108 32z" fill="currentColor"/>
</g>
</a>
<g transform="translate(13.5971, 16.4037)">
<rect x="-0.0795" y="-12.9443" width="0.1590" height="10.3708" ry="0.0400" fill="currentColor"/>
</g>
<a style="color:inherit;" xlink:href="textedit://C:/Users/jwloy/Documents/GitHub/ill20231216/public/pieces/ill20231212/notation/grace%20note%20clusters.ly:89:11:12">
<g transform="translate(12.5000, 13.9287)">
<path transform="scale(0.0052, -0.0052)" d="M222 135c53 0 104 -27 104 -86c0 -71 -56 -120 -103 -148c-36 -22 -76 -36 -118 -36c-53 0 -105 27 -105 86c0 71 57 120 104 148c36 22 76 36 118 36z" fill="currentColor"/>
</g>
</a>
<g transform="translate(14.1306, 16.4037)">
<rect x="-0.0795" y="-13.2000" width="0.1590" height="10.4674" ry="0.0400" fill="currentColor"/>
</g>
<g transform="translate(14.2101, 3.2437)">
<path transform="scale(0.0066, -0.0066)" d="M0 0v-250h-14v250h14zM0 0c0 -198 207 -336 207 -534c0 -71 -16 -142 -42 -208c-4 -7 -10 -11 -17 -11c-12 0 -24 10 -21 25c26 62 41 127 41 194c0 104 -96 209 -168 284v250z" fill="currentColor"/>
</g>
<a style="color:inherit;" xlink:href="textedit://C:/Users/jwloy/Documents/GitHub/ill20231216/public/pieces/ill20231212/notation/grace%20note%20clusters.ly:93:12:13">
<g transform="translate(12.8290, 13.9287)">
<path transform="scale(0.0026, -0.0026)" d="M204 141c63 0 120 -35 120 -103c0 -70 -50 -119 -97 -147c-33 -20 -70 -32 -108 -32c-63 0 -119 35 -119 103c0 70 49 119 96 147c33 20 70 32 108 32z" fill="currentColor"/>
</g>
</a>
<a style="color:inherit;" xlink:href="textedit://C:/Users/jwloy/Documents/GitHub/ill20231216/public/pieces/ill20231212/notation/grace%20note%20clusters.ly:93:18:19">
<g transform="translate(13.6766, 13.9287)">
<path transform="scale(0.0026, -0.0026)" d="M204 141c63 0 120 -35 120 -103c0 -70 -50 -119 -97 -147c-33 -20 -70 -32 -108 -32c-63 0 -119 35 -119 103c0 70 49 119 96 147c33 20 70 32 108 32z" fill="currentColor"/>
</g>
</a>
<g transform="translate(14.4447, 16.4037)">
<rect x="-0.0795" y="-12.9443" width="0.1590" height="10.3708" ry="0.0400" fill="currentColor"/>
</g>
<a style="color:inherit;" xlink:href="textedit://C:/Users/jwloy/Documents/GitHub/ill20231216/public/pieces/ill20231212/notation/grace%20note%20clusters.ly:89:8:9">
<g transform="translate(2.0000, 16.4037)">
<path transform="scale(0.0066, -0.0066)" d="M76 -250l116 327c-35 -12 -70 -23 -107 -23c-46 0 -87 34 -87 80c0 39 31 71 71 71c26 0 49 -16 57 -40c10 -28 6 -60 35 -60c17 0 58 54 65 70c5 11 20 10 24 0l-126 -425c-7 -6 -16 -9 -24 -9s-17 3 -24 9z" fill="currentColor"/>
</g>
</a>
<a style="color:inherit;" xlink:href="textedit://C:/Users/jwloy/Documents/GitHub/ill20231216/public/pieces/ill20231212/notation/grace%20note%20clusters.ly:80:8:9">
</a>
<a style="color:inherit;" xlink:href="textedit://C:/Users/jwloy/Documents/GitHub/ill20231216/public/pieces/ill20231212/notation/grace%20note%20clusters.ly:93:43:44">
<g transform="translate(16.2194, 16.4037)">
<path transform="scale(0.0026, -0.0026)" d="M204 141c63 0 120 -35 120 -103c0 -70 -50 -119 -97 -147c-33 -20 -70 -32 -108 -32c-63 0 -119 35 -119 103c0 70 49 119 96 147c33 20 70 32 108 32z" fill="currentColor"/>
</g>
</a>
<a style="color:inherit;" xlink:href="textedit://C:/Users/jwloy/Documents/GitHub/ill20231216/public/pieces/ill20231212/notation/grace%20note%20clusters.ly:93:46:47">
<g transform="translate(16.2194, 14.7537)">
<path transform="scale(0.0026, -0.0026)" d="M204 141c63 0 120 -35 120 -103c0 -70 -50 -119 -97 -147c-33 -20 -70 -32 -108 -32c-63 0 -119 35 -119 103c0 70 49 119 96 147c33 20 70 32 108 32z" fill="currentColor"/>
</g>
</a>
<a style="color:inherit;" xlink:href="textedit://C:/Users/jwloy/Documents/GitHub/ill20231216/public/pieces/ill20231212/notation/grace%20note%20clusters.ly:93:50:51">
<g transform="translate(16.2194, 13.1037)">
<path transform="scale(0.0026, -0.0026)" d="M204 141c63 0 120 -35 120 -103c0 -70 -50 -119 -97 -147c-33 -20 -70 -32 -108 -32c-63 0 -119 35 -119 103c0 70 49 119 96 147c33 20 70 32 108 32z" fill="currentColor"/>
</g>
</a>
<a style="color:inherit;" xlink:href="textedit://C:/Users/jwloy/Documents/GitHub/ill20231216/public/pieces/ill20231212/notation/grace%20note%20clusters.ly:93:54:55">
<g transform="translate(16.2194, 11.4537)">
<path transform="scale(0.0026, -0.0026)" d="M204 141c63 0 120 -35 120 -103c0 -70 -50 -119 -97 -147c-33 -20 -70 -32 -108 -32c-63 0 -119 35 -119 103c0 70 49 119 96 147c33 20 70 32 108 32z" fill="currentColor"/>
</g>
</a>
<g transform="translate(16.9874, 16.4037)">
<rect x="-0.0795" y="-12.9443" width="0.1590" height="12.8458" ry="0.0400" fill="currentColor"/>
</g>
<a style="color:inherit;" xlink:href="textedit://C:/Users/jwloy/Documents/GitHub/ill20231216/public/pieces/ill20231212/notation/grace%20note%20clusters.ly:93:61:62">
<g transform="translate(17.0669, 17.2287)">
<path transform="scale(0.0026, -0.0026)" d="M204 141c63 0 120 -35 120 -103c0 -70 -50 -119 -97 -147c-33 -20 -70 -32 -108 -32c-63 0 -119 35 -119 103c0 70 49 119 96 147c33 20 70 32 108 32z" fill="currentColor"/>
</g>
</a>
<a style="color:inherit;" xlink:href="textedit://C:/Users/jwloy/Documents/GitHub/ill20231216/public/pieces/ill20231212/notation/grace%20note%20clusters.ly:93:64:65">
<g transform="translate(17.0669, 15.5787)">
<path transform="scale(0.0026, -0.0026)" d="M204 141c63 0 120 -35 120 -103c0 -70 -50 -119 -97 -147c-33 -20 -70 -32 -108 -32c-63 0 -119 35 -119 103c0 70 49 119 96 147c33 20 70 32 108 32z" fill="currentColor"/>
</g>
</a>
<a style="color:inherit;" xlink:href="textedit://C:/Users/jwloy/Documents/GitHub/ill20231216/public/pieces/ill20231212/notation/grace%20note%20clusters.ly:93:68:69">
<g transform="translate(17.0669, 12.2787)">
<path transform="scale(0.0026, -0.0026)" d="M204 141c63 0 120 -35 120 -103c0 -70 -50 -119 -97 -147c-33 -20 -70 -32 -108 -32c-63 0 -119 35 -119 103c0 70 49 119 96 147c33 20 70 32 108 32z" fill="currentColor"/>
</g>
</a>
<a style="color:inherit;" xlink:href="textedit://C:/Users/jwloy/Documents/GitHub/ill20231216/public/pieces/ill20231212/notation/grace%20note%20clusters.ly:93:72:73">
<g transform="translate(17.0669, 10.6287)">
<path transform="scale(0.0026, -0.0026)" d="M204 141c63 0 120 -35 120 -103c0 -70 -50 -119 -97 -147c-33 -20 -70 -32 -108 -32c-63 0 -119 35 -119 103c0 70 49 119 96 147c33 20 70 32 108 32z" fill="currentColor"/>
</g>
</a>
<g transform="translate(17.8350, 16.4037)">
<rect x="-0.0795" y="-12.9443" width="0.1590" height="13.6708" ry="0.0400" fill="currentColor"/>
</g>
<a style="color:inherit;" xlink:href="textedit://C:/Users/jwloy/Documents/GitHub/ill20231216/public/pieces/ill20231212/notation/grace%20note%20clusters.ly:97:8:9">
<g transform="translate(23.0000, 13.9287)">
<path transform="scale(0.0052, -0.0052)" d="M222 135c53 0 104 -27 104 -86c0 -71 -56 -120 -103 -148c-36 -22 -76 -36 -118 -36c-53 0 -105 27 -105 86c0 71 57 120 104 148c36 22 76 36 118 36z" fill="currentColor"/>
</g>
</a>
<g transform="translate(16.1399, 16.4037)">
<rect x="-0.0795" y="-12.9443" width="0.1590" height="12.0208" ry="0.0400" fill="currentColor"/>
</g>
<a style="color:inherit;" xlink:href="textedit://C:/Users/jwloy/Documents/GitHub/ill20231216/public/pieces/ill20231212/notation/grace%20note%20clusters.ly:93:37:38">
<g transform="translate(15.3718, 15.5787)">
<path transform="scale(0.0026, -0.0026)" d="M204 141c63 0 120 -35 120 -103c0 -70 -50 -119 -97 -147c-33 -20 -70 -32 -108 -32c-63 0 -119 35 -119 103c0 70 49 119 96 147c33 20 70 32 108 32z" fill="currentColor"/>
</g>
</a>
<a style="color:inherit;" xlink:href="textedit://C:/Users/jwloy/Documents/GitHub/ill20231216/public/pieces/ill20231212/notation/grace%20note%20clusters.ly:93:33:34">
<g transform="translate(15.3718, 12.2787)">
<path transform="scale(0.0026, -0.0026)" d="M204 141c63 0 120 -35 120 -103c0 -70 -50 -119 -97 -147c-33 -20 -70 -32 -108 -32c-63 0 -119 35 -119 103c0 70 49 119 96 147c33 20 70 32 108 32z" fill="currentColor"/>
</g>
</a>
<g transform="translate(15.2923, 16.4037)">
<rect x="-0.0795" y="-12.9443" width="0.1590" height="11.1958" ry="0.0400" fill="currentColor"/>
</g>
<a style="color:inherit;" xlink:href="textedit://C:/Users/jwloy/Documents/GitHub/ill20231216/public/pieces/ill20231212/notation/grace%20note%20clusters.ly:93:27:28">
<g transform="translate(14.5242, 14.7537)">
<path transform="scale(0.0026, -0.0026)" d="M204 141c63 0 120 -35 120 -103c0 -70 -50 -119 -97 -147c-33 -20 -70 -32 -108 -32c-63 0 -119 35 -119 103c0 70 49 119 96 147c33 20 70 32 108 32z" fill="currentColor"/>
</g>
</a>
<a style="color:inherit;" xlink:href="textedit://C:/Users/jwloy/Documents/GitHub/ill20231216/public/pieces/ill20231212/notation/grace%20note%20clusters.ly:93:23:24">
<g transform="translate(14.5242, 13.1037)">
<path transform="scale(0.0026, -0.0026)" d="M204 141c63 0 120 -35 120 -103c0 -70 -50 -119 -97 -147c-33 -20 -70 -32 -108 -32c-63 0 -119 35 -119 103c0 70 49 119 96 147c33 20 70 32 108 32z" fill="currentColor"/>
</g>
</a>
<a style="color:inherit;" xlink:href="textedit://C:/Users/jwloy/Documents/GitHub/ill20231216/public/pieces/ill20231212/notation/grace%20note%20clusters.ly:104:13:14">
<g transform="translate(44.8550, 12.2787)">
<path transform="scale(0.0052, -0.0052)" d="M-114 0c-8 0 -13 8 -10 15l114 254c2 4 6 6 10 6s8 -2 10 -6l114 -254c3 -7 -2 -15 -10 -15h-68c-4 0 -7 2 -9 6l-71 156l-70 -156c-2 -4 -6 -6 -10 -6z" fill="currentColor"/>
</g>
</a>
<g transform="translate(52.7081, 16.4037)">
<rect x="-0.0795" y="-12.3750" width="0.1590" height="10.6265" ry="0.0400" fill="currentColor"/>
</g>
<a style="color:inherit;" xlink:href="textedit://C:/Users/jwloy/Documents/GitHub/ill20231216/public/pieces/ill20231212/notation/grace%20note%20clusters.ly:107:71:72">
<g transform="translate(51.9400, 14.7537)">
<path transform="scale(0.0026, -0.0026)" d="M204 141c63 0 120 -35 120 -103c0 -70 -50 -119 -97 -147c-33 -20 -70 -32 -108 -32c-63 0 -119 35 -119 103c0 70 49 119 96 147c33 20 70 32 108 32z" fill="currentColor"/>
</g>
</a>
<a style="color:inherit;" xlink:href="textedit://C:/Users/jwloy/Documents/GitHub/ill20231216/public/pieces/ill20231212/notation/grace%20note%20clusters.ly:107:67:68">
<g transform="translate(51.9400, 13.1037)">
<path transform="scale(0.0026, -0.0026)" d="M204 141c63 0 120 -35 120 -103c0 -70 -50 -119 -97 -147c-33 -20 -70 -32 -108 -32c-63 0 -119 35 -119 103c0 70 49 119 96 147c33 20 70 32 108 32z" fill="currentColor"/>
</g>
</a>
<a style="color:inherit;" xlink:href="textedit://C:/Users/jwloy/Documents/GitHub/ill20231216/public/pieces/ill20231212/notation/grace%20note%20clusters.ly:115:25:26">
<g transform="translate(94.4000, 16.4037)">
<path transform="scale(0.0066, -0.0066)" d="M76 -250l116 327c-35 -12 -70 -23 -107 -23c-46 0 -87 34 -87 80c0 39 31 71 71 71c26 0 49 -16 57 -40c10 -28 6 -60 35 -60c17 0 58 54 65 70c5 11 20 10 24 0l-126 -425c-7 -6 -16 -9 -24 -9s-17 3 -24 9z" fill="currentColor"/>
</g>
</a>
<g transform="translate(51.4281, 16.4037)">
<rect x="-0.0795" y="-12.3750" width="0.1590" height="11.4515" ry="0.0400" fill="currentColor"/>
</g>
<a style="color:inherit;" xlink:href="textedit://C:/Users/jwloy/Documents/GitHub/ill20231216/public/pieces/ill20231212/notation/grace%20note%20clusters.ly:107:60:61">
<g transform="translate(50.6600, 15.5787)">
<path transform="scale(0.0026, -0.0026)" d="M204 141c63 0 120 -35 120 -103c0 -70 -50 -119 -97 -147c-33 -20 -70 -32 -108 -32c-63 0 -119 35 -119 103c0 70 49 119 96 147c33 20 70 32 108 32z" fill="currentColor"/>
</g>
</a>
<a style="color:inherit;" xlink:href="textedit://C:/Users/jwloy/Documents/GitHub/ill20231216/public/pieces/ill20231212/notation/grace%20note%20clusters.ly:107:56:57">
<g transform="translate(50.6600, 12.2787)">
<path transform="scale(0.0026, -0.0026)" d="M204 141c63 0 120 -35 120 -103c0 -70 -50 -119 -97 -147c-33 -20 -70 -32 -108 -32c-63 0 -119 35 -119 103c0 70 49 119 96 147c33 20 70 32 108 32z" fill="currentColor"/>
</g>
</a>
<g transform="translate(50.1481, 16.4037)">
<rect x="-0.0795" y="-12.3750" width="0.1590" height="12.2765" ry="0.0400" fill="currentColor"/>
</g>
<a style="color:inherit;" xlink:href="textedit://C:/Users/jwloy/Documents/GitHub/ill20231216/public/pieces/ill20231212/notation/grace%20note%20clusters.ly:115:21:22">
<g transform="translate(86.0000, 16.4037)">
<path transform="scale(0.0052, -0.0052)" d="M222 135c53 0 104 -27 104 -86c0 -71 -56 -120 -103 -148c-36 -22 -76 -36 -118 -36c-53 0 -105 27 -105 86c0 71 57 120 104 148c36 22 76 36 118 36z" fill="currentColor"/>
</g>
</a>
<g transform="translate(66.6306, 16.4037)">
<rect x="-0.0795" y="-11.2750" width="0.1590" height="11.0174" ry="0.0400" fill="currentColor"/>
</g>
<a style="color:inherit;" xlink:href="textedit://C:/Users/jwloy/Documents/GitHub/ill20231216/public/pieces/ill20231212/notation/grace%20note%20clusters.ly:112:8:9">
<g transform="translate(65.0000, 16.4037)">
<path transform="scale(0.0052, -0.0052)" d="M222 135c53 0 104 -27 104 -86c0 -71 -56 -120 -103 -148c-36 -22 -76 -36 -118 -36c-53 0 -105 27 -105 86c0 71 57 120 104 148c36 22 76 36 118 36z" fill="currentColor"/>
</g>
</a>
<g transform="translate(296.1590, 25.4387)">
<path transform="scale(0.0066, -0.0066)" d="M0 0h-14v250h14v-250zM0 0v250c98 58 228 147 228 259c0 57 -15 112 -40 164c-3 15 9 25 21 25c7 0 14 -3 18 -10c25 -56 40 -117 40 -179c0 -203 -267 -306 -267 -509z" fill="currentColor"/>
</g>
<g transform="translate(296.0795, 16.4037)">
<rect x="-0.0795" y="-2.2174" width="0.1590" height="11.2924" ry="0.0400" fill="currentColor"/>
</g>
<g transform="translate(87.6306, 16.4037)">
<rect x="-0.0795" y="-11.3437" width="0.1590" height="11.0861" ry="0.0400" fill="currentColor"/>
</g>
<g transform="translate(87.7101, 5.0999)">
<path transform="scale(0.0066, -0.0066)" d="M0 0v-250h-14v250h14zM0 0c0 -198 207 -336 207 -534c0 -71 -16 -142 -42 -208c-4 -7 -10 -11 -17 -11c-12 0 -24 10 -21 25c26 62 41 127 41 194c0 104 -96 209 -168 284v250z" fill="currentColor"/>
</g>
<g transform="translate(53.9881, 16.4037)">
<rect x="-0.0795" y="-12.3750" width="0.1590" height="9.8015" ry="0.0400" fill="currentColor"/>
</g>
<a style="color:inherit;" xlink:href="textedit://C:/Users/jwloy/Documents/GitHub/ill20231216/public/pieces/ill20231212/notation/grace%20note%20clusters.ly:107:76:77">
<g transform="translate(53.2200, 13.9287)">
<path transform="scale(0.0026, -0.0026)" d="M204 141c63 0 120 -35 120 -103c0 -70 -50 -119 -97 -147c-33 -20 -70 -32 -108 -32c-63 0 -119 35 -119 103c0 70 49 119 96 147c33 20 70 32 108 32z" fill="currentColor"/>
</g>
</a>
<a style="color:inherit;" xlink:href="textedit://C:/Users/jwloy/Documents/GitHub/ill20231216/public/pieces/ill20231212/notation/grace%20note%20clusters.ly:137:13:14">
<g transform="translate(296.8550, 12.2787)">
<path transform="scale(0.0052, -0.0052)" d="M-114 0c-8 0 -13 8 -10 15l114 254c2 4 6 6 10 6s8 -2 10 -6l114 -254c3 -7 -2 -15 -10 -15h-68c-4 0 -7 2 -9 6l-71 156l-70 -156c-2 -4 -6 -6 -10 -6z" fill="currentColor"/>
</g>
</a>
<a style="color:inherit;" xlink:href="textedit://C:/Users/jwloy/Documents/GitHub/ill20231216/public/pieces/ill20231212/notation/grace%20note%20clusters.ly:107:50:51">
<g transform="translate(49.3800, 16.4037)">
<path transform="scale(0.0026, -0.0026)" d="M204 141c63 0 120 -35 120 -103c0 -70 -50 -119 -97 -147c-33 -20 -70 -32 -108 -32c-63 0 -119 35 -119 103c0 70 49 119 96 147c33 20 70 32 108 32z" fill="currentColor"/>
</g>
</a>
<g transform="translate(47.7544, 16.4037)">
<rect x="-0.0795" y="-12.3750" width="0.1590" height="10.6265" ry="0.0400" fill="currentColor"/>
</g>
<a style="color:inherit;" xlink:href="textedit://C:/Users/jwloy/Documents/GitHub/ill20231216/public/pieces/ill20231212/notation/grace%20note%20clusters.ly:107:26:27">
<g transform="translate(46.9863, 14.7537)">
<path transform="scale(0.0026, -0.0026)" d="M204 141c63 0 120 -35 120 -103c0 -70 -50 -119 -97 -147c-33 -20 -70 -32 -108 -32c-63 0 -119 35 -119 103c0 70 49 119 96 147c33 20 70 32 108 32z" fill="currentColor"/>
</g>
</a>
<a style="color:inherit;" xlink:href="textedit://C:/Users/jwloy/Documents/GitHub/ill20231216/public/pieces/ill20231212/notation/grace%20note%20clusters.ly:107:22:23">
<g transform="translate(46.9863, 13.1037)">
<path transform="scale(0.0026, -0.0026)" d="M204 141c63 0 120 -35 120 -103c0 -70 -50 -119 -97 -147c-33 -20 -70 -32 -108 -32c-63 0 -119 35 -119 103c0 70 49 119 96 147c33 20 70 32 108 32z" fill="currentColor"/>
</g>
</a>
<a style="color:inherit;" xlink:href="textedit://C:/Users/jwloy/Documents/GitHub/ill20231216/public/pieces/ill20231212/notation/grace%20note%20clusters.ly:115:30:31">
<g transform="translate(111.2000, 16.4037)">
<path transform="scale(0.0052, -0.0052)" d="M222 135c53 0 104 -27 104 -86c0 -71 -56 -120 -103 -148c-36 -22 -76 -36 -118 -36c-53 0 -105 27 -105 86c0 71 57 120 104 148c36 22 76 36 118 36z" fill="currentColor"/>
</g>
</a>
<g transform="translate(112.8306, 16.4037)">
<rect x="-0.0795" y="-11.2750" width="0.1590" height="11.0174" ry="0.0400" fill="currentColor"/>
</g>
<g transform="translate(46.7568, 16.4037)">
<rect x="-0.0795" y="-12.3750" width="0.1590" height="9.8015" ry="0.0400" fill="currentColor"/>
</g>
<a style="color:inherit;" xlink:href="textedit://C:/Users/jwloy/Documents/GitHub/ill20231216/public/pieces/ill20231212/notation/grace%20note%20clusters.ly:107:12:13">
<g transform="translate(45.9887, 13.9287)">
<path transform="scale(0.0026, -0.0026)" d="M204 141c63 0 120 -35 120 -103c0 -70 -50 -119 -97 -147c-33 -20 -70 -32 -108 -32c-63 0 -119 35 -119 103c0 70 49 119 96 147c33 20 70 32 108 32z" fill="currentColor"/>
</g>
</a>
<a style="color:inherit;" xlink:href="textedit://C:/Users/jwloy/Documents/GitHub/ill20231216/public/pieces/ill20231212/notation/grace%20note%20clusters.ly:154:8:9">
<g transform="translate(317.0000, 12.2787)">
<path transform="scale(0.0052, -0.0052)" d="M222 135c53 0 104 -27 104 -86c0 -71 -56 -120 -103 -148c-36 -22 -76 -36 -118 -36c-53 0 -105 27 -105 86c0 71 57 120 104 148c36 22 76 36 118 36z" fill="currentColor"/>
</g>
</a>
<g transform="translate(44.1590, 25.4387)">
<path transform="scale(0.0066, -0.0066)" d="M0 0h-14v250h14v-250zM0 0v250c98 58 228 147 228 259c0 57 -15 112 -40 164c-3 15 9 25 21 25c7 0 14 -3 18 -10c25 -56 40 -117 40 -179c0 -203 -267 -306 -267 -509z" fill="currentColor"/>
</g>
<g transform="translate(44.0795, 16.4037)">
<rect x="-0.0795" y="-2.2174" width="0.1590" height="11.2924" ry="0.0400" fill="currentColor"/>
</g>
<a style="color:inherit;" xlink:href="textedit://C:/Users/jwloy/Documents/GitHub/ill20231216/public/pieces/ill20231212/notation/grace%20note%20clusters.ly:117:8:9">
<g transform="translate(128.0000, 16.4037)">
<path transform="scale(0.0052, -0.0052)" d="M222 135c53 0 104 -27 104 -86c0 -71 -56 -120 -103 -148c-36 -22 -76 -36 -118 -36c-53 0 -105 27 -105 86c0 71 57 120 104 148c36 22 76 36 118 36z" fill="currentColor"/>
</g>
</a>
<a style="color:inherit;" xlink:href="textedit://C:/Users/jwloy/Documents/GitHub/ill20231216/public/pieces/ill20231212/notation/grace%20note%20clusters.ly:115:28:29">
<g transform="translate(102.8000, 16.4037)">
<path transform="scale(0.0066, -0.0066)" d="M76 -250l116 327c-35 -12 -70 -23 -107 -23c-46 0 -87 34 -87 80c0 39 31 71 71 71c26 0 49 -16 57 -40c10 -28 6 -60 35 -60c17 0 58 54 65 70c5 11 20 10 24 0l-126 -425c-7 -6 -16 -9 -24 -9s-17 3 -24 9z" fill="currentColor"/>
</g>
</a>
<g transform="translate(48.8681, 16.4037)">
<rect x="-0.0795" y="-12.3750" width="0.1590" height="11.4515" ry="0.0400" fill="currentColor"/>
</g>
<a style="color:inherit;" xlink:href="textedit://C:/Users/jwloy/Documents/GitHub/ill20231216/public/pieces/ill20231212/notation/grace%20note%20clusters.ly:107:42:43">
<g transform="translate(49.3800, 11.4537)">
<path transform="scale(0.0026, -0.0026)" d="M204 141c63 0 120 -35 120 -103c0 -70 -50 -119 -97 -147c-33 -20 -70 -32 -108 -32c-63 0 -119 35 -119 103c0 70 49 119 96 147c33 20 70 32 108 32z" fill="currentColor"/>
</g>
</a>
<a style="color:inherit;" xlink:href="textedit://C:/Users/jwloy/Documents/GitHub/ill20231216/public/pieces/ill20231212/notation/grace%20note%20clusters.ly:107:36:37">
<g transform="translate(48.1000, 15.5787)">
<path transform="scale(0.0026, -0.0026)" d="M204 141c63 0 120 -35 120 -103c0 -70 -50 -119 -97 -147c-33 -20 -70 -32 -108 -32c-63 0 -119 35 -119 103c0 70 49 119 96 147c33 20 70 32 108 32z" fill="currentColor"/>
</g>
</a>
<a style="color:inherit;" xlink:href="textedit://C:/Users/jwloy/Documents/GitHub/ill20231216/public/pieces/ill20231212/notation/grace%20note%20clusters.ly:107:32:33">
<g transform="translate(48.1000, 12.2787)">
<path transform="scale(0.0026, -0.0026)" d="M204 141c63 0 120 -35 120 -103c0 -70 -50 -119 -97 -147c-33 -20 -70 -32 -108 -32c-63 0 -119 35 -119 103c0 70 49 119 96 147c33 20 70 32 108 32z" fill="currentColor"/>
</g>
</a>
<a style="color:inherit;" xlink:href="textedit://C:/Users/jwloy/Documents/GitHub/ill20231216/public/pieces/ill20231212/notation/grace%20note%20clusters.ly:107:46:47">
<g transform="translate(49.3800, 13.9287)">
<path transform="scale(0.0026, -0.0026)" d="M204 141c63 0 120 -35 120 -103c0 -70 -50 -119 -97 -147c-33 -20 -70 -32 -108 -32c-63 0 -119 35 -119 103c0 70 49 119 96 147c33 20 70 32 108 32z" fill="currentColor"/>
</g>
</a>
</svg>
