<svg xmlns="http://www.w3.org/2000/svg" xmlns:xlink="http://www.w3.org/1999/xlink" version="1.2" width="2150.00mm" height="100.00mm" viewBox="0 0 1223.4685 56.9055">
<style type="text/css">
<![CDATA[
tspan { white-space: pre; }
]]>
</style>
<!-- Page: 1/1 -->
<a style="color:inherit;" xlink:href="textedit://C:/Users/jwloy/Documents/GitHub/ill20231216/public/pieces/ill20231212/notation/ILL20231216.ly:88:8:9">
<g transform="translate(54.5000, 10.0611)">
<path transform="scale(0.0052, -0.0052)" d="M222 135c53 0 104 -27 104 -86c0 -71 -56 -120 -103 -148c-36 -22 -76 -36 -118 -36c-53 0 -105 27 -105 86c0 71 57 120 104 148c36 22 76 36 118 36z" fill="currentColor"/>
</g>
</a>
<g transform="translate(56.1306, 10.0611)">
<rect x="-0.0795" y="-6.8750" width="0.1590" height="6.6174" ry="0.0400" fill="currentColor"/>
</g>
<g transform="translate(56.2101, 3.2261)">
<path transform="scale(0.0066, -0.0066)" d="M0 0v-250h-14v250h14zM0 0c0 -198 207 -336 207 -534c0 -71 -16 -142 -42 -208c-4 -7 -10 -11 -17 -11c-12 0 -24 10 -21 25c26 62 41 127 41 194c0 104 -96 209 -168 284v250z" fill="currentColor"/>
</g>
<g transform="translate(65.0795, 10.0611)">
<rect x="-0.0795" y="-2.2424" width="0.1590" height="6.7424" ry="0.0400" fill="currentColor"/>
</g>
<a style="color:inherit;" xlink:href="textedit://C:/Users/jwloy/Documents/GitHub/ill20231216/public/pieces/ill20231212/notation/ILL20231216.ly:91:10:11">
<g transform="translate(56.5242, 9.5611)">
<path transform="scale(0.0026, -0.0026)" d="M204 141c63 0 120 -35 120 -103c0 -70 -50 -119 -97 -147c-33 -20 -70 -32 -108 -32c-63 0 -119 35 -119 103c0 70 49 119 96 147c33 20 70 32 108 32z" fill="currentColor"/>
</g>
</a>
<g transform="translate(57.2923, 10.0611)">
<rect x="-0.0795" y="-6.1309" width="0.1590" height="5.5323" ry="0.0400" fill="currentColor"/>
</g>
<a style="color:inherit;" xlink:href="textedit://C:/Users/jwloy/Documents/GitHub/ill20231216/public/pieces/ill20231212/notation/ILL20231216.ly:109:8:9">
<g transform="translate(65.0000, 7.5611)">
<path transform="scale(0.0052, -0.0052)" d="M222 135c53 0 104 -27 104 -86c0 -71 -56 -120 -103 -148c-36 -22 -76 -36 -118 -36c-53 0 -105 27 -105 86c0 71 57 120 104 148c36 22 76 36 118 36z" fill="currentColor"/>
</g>
</a>
<a style="color:inherit;" xlink:href="textedit://C:/Users/jwloy/Documents/GitHub/ill20231216/public/pieces/ill20231212/notation/ILL20231216.ly:91:16:17">
<g transform="translate(57.3718, 9.0611)">
<path transform="scale(0.0026, -0.0026)" d="M204 141c63 0 120 -35 120 -103c0 -70 -50 -119 -97 -147c-33 -20 -70 -32 -108 -32c-63 0 -119 35 -119 103c0 70 49 119 96 147c33 20 70 32 108 32z" fill="currentColor"/>
</g>
</a>
<g transform="translate(58.1399, 10.0611)">
<rect x="-0.0795" y="-6.1309" width="0.1590" height="5.0323" ry="0.0400" fill="currentColor"/>
</g>
<a style="color:inherit;" xlink:href="textedit://C:/Users/jwloy/Documents/GitHub/ill20231216/public/pieces/ill20231212/notation/ILL20231216.ly:91:20:21">
<g transform="translate(58.2194, 8.5611)">
<path transform="scale(0.0026, -0.0026)" d="M204 141c63 0 120 -35 120 -103c0 -70 -50 -119 -97 -147c-33 -20 -70 -32 -108 -32c-63 0 -119 35 -119 103c0 70 49 119 96 147c33 20 70 32 108 32z" fill="currentColor"/>
</g>
</a>
<g transform="translate(58.9874, 10.0611)">
<rect x="-0.0795" y="-6.1309" width="0.1590" height="4.5323" ry="0.0400" fill="currentColor"/>
</g>
<a style="color:inherit;" xlink:href="textedit://C:/Users/jwloy/Documents/GitHub/ill20231216/public/pieces/ill20231212/notation/ILL20231216.ly:81:108:109">
<g transform="translate(41.4400, 5.0611)">
<path transform="scale(0.0026, -0.0026)" d="M204 141c63 0 120 -35 120 -103c0 -70 -50 -119 -97 -147c-33 -20 -70 -32 -108 -32c-63 0 -119 35 -119 103c0 70 49 119 96 147c33 20 70 32 108 32z" fill="currentColor"/>
</g>
</a>
<g transform="translate(42.2081, 10.0611)">
<rect x="-0.0795" y="-8.8691" width="0.1590" height="5.2706" ry="0.0400" fill="currentColor"/>
</g>
<a style="color:inherit;" xlink:href="textedit://C:/Users/jwloy/Documents/GitHub/ill20231216/public/pieces/ill20231212/notation/ILL20231216.ly:81:119:120">
<g transform="translate(42.7200, 6.5611)">
<path transform="scale(0.0026, -0.0026)" d="M204 141c63 0 120 -35 120 -103c0 -70 -50 -119 -97 -147c-33 -20 -70 -32 -108 -32c-63 0 -119 35 -119 103c0 70 49 119 96 147c33 20 70 32 108 32z" fill="currentColor"/>
</g>
</a>
<a style="color:inherit;" xlink:href="textedit://C:/Users/jwloy/Documents/GitHub/ill20231216/public/pieces/ill20231212/notation/ILL20231216.ly:81:123:124">
<g transform="translate(42.7200, 5.5611)">
<path transform="scale(0.0026, -0.0026)" d="M204 141c63 0 120 -35 120 -103c0 -70 -50 -119 -97 -147c-33 -20 -70 -32 -108 -32c-63 0 -119 35 -119 103c0 70 49 119 96 147c33 20 70 32 108 32z" fill="currentColor"/>
</g>
</a>
<g transform="translate(43.4881, 10.0611)">
<rect x="-0.0795" y="-8.8691" width="0.1590" height="6.2706" ry="0.0400" fill="currentColor"/>
</g>
<a style="color:inherit;" xlink:href="textedit://C:/Users/jwloy/Documents/GitHub/ill20231216/public/pieces/ill20231212/notation/ILL20231216.ly:85:8:9">
<g transform="translate(44.0000, 10.0611)">
<path transform="scale(0.0052, -0.0052)" d="M222 135c53 0 104 -27 104 -86c0 -71 -56 -120 -103 -148c-36 -22 -76 -36 -118 -36c-53 0 -105 27 -105 86c0 71 57 120 104 148c36 22 76 36 118 36z" fill="currentColor"/>
</g>
</a>
<g transform="translate(45.6306, 10.0611)">
<rect x="-0.0795" y="-6.8750" width="0.1590" height="6.6174" ry="0.0400" fill="currentColor"/>
</g>
<g transform="translate(45.7101, 3.2261)">
<path transform="scale(0.0066, -0.0066)" d="M0 0v-500h-14v500h14zM0 0c0 -178 201 -293 201 -471c0 -33 -9 -65 -23 -95c18 -37 29 -76 29 -118c0 -63 -16 -125 -42 -183c-4 -7 -10 -11 -17 -11c-12 0 -24 10 -21 25c26 53 41 110 41 169c0 98 -96 192 -168 259v212c0 -119 92 -209 153 -309c6 16 9 34 9 51
c0 97 -92 190 -162 258v213z" fill="currentColor"/>
</g>
<a style="color:inherit;" xlink:href="textedit://C:/Users/jwloy/Documents/GitHub/ill20231216/public/pieces/ill20231212/notation/ILL20231216.ly:85:14:15">
<g transform="translate(49.2500, 10.0611)">
<path transform="scale(0.0066, -0.0066)" d="M71 -500l100 327c-35 -13 -72 -23 -109 -23c-46 0 -87 34 -87 80c0 39 31 71 71 71c26 0 49 -16 57 -40c10 -28 6 -60 35 -60c17 0 57 53 62 70l47 152c-34 -12 -70 -23 -107 -23c-46 0 -87 34 -87 80c0 39 31 71 71 71c26 0 49 -16 57 -40c10 -28 6 -60 35 -60
c17 0 53 54 60 70c4 11 20 11 24 0l-182 -675c-7 -6 -15 -9 -23 -9s-17 3 -24 9z" fill="currentColor"/>
</g>
</a>
<g transform="translate(64.9205, 10.0611)">
<rect x="-0.0795" y="-6.1309" width="0.1590" height="7.0323" ry="0.0400" fill="currentColor"/>
</g>
<g transform="translate(62.3778, 10.0611)">
<rect x="-0.0795" y="-6.1309" width="0.1590" height="8.5323" ry="0.0400" fill="currentColor"/>
</g>
<a style="color:inherit;" xlink:href="textedit://C:/Users/jwloy/Documents/GitHub/ill20231216/public/pieces/ill20231212/notation/ILL20231216.ly:91:38:39">
<g transform="translate(62.4573, 12.0611)">
<path transform="scale(0.0026, -0.0026)" d="M204 141c63 0 120 -35 120 -103c0 -70 -50 -119 -97 -147c-33 -20 -70 -32 -108 -32c-63 0 -119 35 -119 103c0 70 49 119 96 147c33 20 70 32 108 32z" fill="currentColor"/>
</g>
</a>
<g transform="translate(63.2254, 10.0611)">
<rect x="-0.0795" y="-6.1309" width="0.1590" height="8.0323" ry="0.0400" fill="currentColor"/>
</g>
<a style="color:inherit;" xlink:href="textedit://C:/Users/jwloy/Documents/GitHub/ill20231216/public/pieces/ill20231212/notation/ILL20231216.ly:91:35:36">
<g transform="translate(61.6097, 12.5611)">
<path transform="scale(0.0026, -0.0026)" d="M204 141c63 0 120 -35 120 -103c0 -70 -50 -119 -97 -147c-33 -20 -70 -32 -108 -32c-63 0 -119 35 -119 103c0 70 49 119 96 147c33 20 70 32 108 32z" fill="currentColor"/>
</g>
</a>
<a style="color:inherit;" xlink:href="textedit://C:/Users/jwloy/Documents/GitHub/ill20231216/public/pieces/ill20231212/notation/ILL20231216.ly:91:41:42">
<g transform="translate(63.3048, 11.5611)">
<path transform="scale(0.0026, -0.0026)" d="M204 141c63 0 120 -35 120 -103c0 -70 -50 -119 -97 -147c-33 -20 -70 -32 -108 -32c-63 0 -119 35 -119 103c0 70 49 119 96 147c33 20 70 32 108 32z" fill="currentColor"/>
</g>
</a>
<g transform="translate(64.0729, 10.0611)">
<rect x="-0.0795" y="-6.1309" width="0.1590" height="7.5323" ry="0.0400" fill="currentColor"/>
</g>
<a style="color:inherit;" xlink:href="textedit://C:/Users/jwloy/Documents/GitHub/ill20231216/public/pieces/ill20231212/notation/ILL20231216.ly:91:44:45">
<g transform="translate(64.1524, 11.0611)">
<path transform="scale(0.0026, -0.0026)" d="M204 141c63 0 120 -35 120 -103c0 -70 -50 -119 -97 -147c-33 -20 -70 -32 -108 -32c-63 0 -119 35 -119 103c0 70 49 119 96 147c33 20 70 32 108 32z" fill="currentColor"/>
</g>
</a>
<g transform="translate(57.2128, 3.9303)">
<polygon stroke-linejoin="round" stroke-linecap="round" stroke-width="0.0800" fill="currentColor" stroke="currentColor" points="7.7472 -0.1520 7.7472 0.1520 0.0400 0.1520 0.0400 -0.1520"/>
</g>
<g transform="translate(57.2128, 4.5872)">
<polygon stroke-linejoin="round" stroke-linecap="round" stroke-width="0.0800" fill="currentColor" stroke="currentColor" points="7.7472 -0.1520 7.7472 0.1520 0.0400 0.1520 0.0400 -0.1520"/>
</g>
<g transform="translate(57.2128, 5.2441)">
<polygon stroke-linejoin="round" stroke-linecap="round" stroke-width="0.0800" fill="currentColor" stroke="currentColor" points="7.7472 -0.1520 7.7472 0.1520 0.0400 0.1520 0.0400 -0.1520"/>
</g>
<a style="color:inherit;" xlink:href="textedit://C:/Users/jwloy/Documents/GitHub/ill20231216/public/pieces/ill20231212/notation/ILL20231216.ly:81:9:10">
<g transform="translate(30.2729, 1.1920)">
<polygon stroke-linejoin="round" stroke-linecap="round" stroke-width="0.0800" fill="currentColor" stroke="currentColor" points="13.2546 -0.1520 13.2546 0.1520 0.0400 0.1520 0.0400 -0.1520"/>
</g>
<g transform="translate(30.2729, 1.8489)">
<polygon stroke-linejoin="round" stroke-linecap="round" stroke-width="0.0800" fill="currentColor" stroke="currentColor" points="13.2546 -0.1520 13.2546 0.1520 0.0400 0.1520 0.0400 -0.1520"/>
</g>
<g transform="translate(30.2729, 2.5058)">
<polygon stroke-linejoin="round" stroke-linecap="round" stroke-width="0.0800" fill="currentColor" stroke="currentColor" points="13.2546 -0.1520 13.2546 0.1520 0.0400 0.1520 0.0400 -0.1520"/>
</g>
</a>
<a style="color:inherit;" xlink:href="textedit://C:/Users/jwloy/Documents/GitHub/ill20231216/public/pieces/ill20231212/notation/ILL20231216.ly:91:24:25">
<g transform="translate(59.0669, 8.0611)">
<path transform="scale(0.0026, -0.0026)" d="M204 141c63 0 120 -35 120 -103c0 -70 -50 -119 -97 -147c-33 -20 -70 -32 -108 -32c-63 0 -119 35 -119 103c0 70 49 119 96 147c33 20 70 32 108 32z" fill="currentColor"/>
</g>
</a>
<g transform="translate(59.8350, 10.0611)">
<rect x="-0.0795" y="-6.1309" width="0.1590" height="4.0323" ry="0.0400" fill="currentColor"/>
</g>
<a style="color:inherit;" xlink:href="textedit://C:/Users/jwloy/Documents/GitHub/ill20231216/public/pieces/ill20231212/notation/ILL20231216.ly:91:28:29">
<g transform="translate(59.9145, 7.5611)">
<path transform="scale(0.0026, -0.0026)" d="M204 141c63 0 120 -35 120 -103c0 -70 -50 -119 -97 -147c-33 -20 -70 -32 -108 -32c-63 0 -119 35 -119 103c0 70 49 119 96 147c33 20 70 32 108 32z" fill="currentColor"/>
</g>
</a>
<g transform="translate(60.6826, 10.0611)">
<rect x="-0.0795" y="-6.1309" width="0.1590" height="3.5323" ry="0.0400" fill="currentColor"/>
</g>
<a style="color:inherit;" xlink:href="textedit://C:/Users/jwloy/Documents/GitHub/ill20231216/public/pieces/ill20231212/notation/ILL20231216.ly:81:115:116">
<g transform="translate(42.7200, 7.5611)">
<path transform="scale(0.0026, -0.0026)" d="M204 141c63 0 120 -35 120 -103c0 -70 -50 -119 -97 -147c-33 -20 -70 -32 -108 -32c-63 0 -119 35 -119 103c0 70 49 119 96 147c33 20 70 32 108 32z" fill="currentColor"/>
</g>
</a>
<a style="color:inherit;" xlink:href="textedit://C:/Users/jwloy/Documents/GitHub/ill20231216/public/pieces/ill20231212/notation/ILL20231216.ly:91:32:33">
<g transform="translate(60.7621, 13.0611)">
<path transform="scale(0.0026, -0.0026)" d="M204 141c63 0 120 -35 120 -103c0 -70 -50 -119 -97 -147c-33 -20 -70 -32 -108 -32c-63 0 -119 35 -119 103c0 70 49 119 96 147c33 20 70 32 108 32z" fill="currentColor"/>
</g>
</a>
<g transform="translate(61.5302, 10.0611)">
<rect x="-0.0795" y="-6.1309" width="0.1590" height="9.0323" ry="0.0400" fill="currentColor"/>
</g>
<g transform="translate(32.9124, 10.0611)">
<rect x="-0.0795" y="-8.8691" width="0.1590" height="8.2706" ry="0.0400" fill="currentColor"/>
</g>
<a style="color:inherit;" xlink:href="textedit://C:/Users/jwloy/Documents/GitHub/ill20231216/public/pieces/ill20231212/notation/ILL20231216.ly:81:21:22">
<g transform="translate(30.8643, 8.0611)">
<path transform="scale(0.0026, -0.0026)" d="M204 141c63 0 120 -35 120 -103c0 -70 -50 -119 -97 -147c-33 -20 -70 -32 -108 -32c-63 0 -119 35 -119 103c0 70 49 119 96 147c33 20 70 32 108 32z" fill="currentColor"/>
</g>
</a>
<a style="color:inherit;" xlink:href="textedit://C:/Users/jwloy/Documents/GitHub/ill20231216/public/pieces/ill20231212/notation/ILL20231216.ly:81:25:26">
<g transform="translate(30.8643, 9.0611)">
<path transform="scale(0.0026, -0.0026)" d="M204 141c63 0 120 -35 120 -103c0 -70 -50 -119 -97 -147c-33 -20 -70 -32 -108 -32c-63 0 -119 35 -119 103c0 70 49 119 96 147c33 20 70 32 108 32z" fill="currentColor"/>
</g>
</a>
<g transform="translate(31.6324, 10.0611)">
<rect x="-0.0795" y="-8.8691" width="0.1590" height="7.7706" ry="0.0400" fill="currentColor"/>
</g>
<a style="color:inherit;" xlink:href="textedit://C:/Users/jwloy/Documents/GitHub/ill20231216/public/pieces/ill20231212/notation/ILL20231216.ly:81:31:32">
<g transform="translate(32.1443, 7.5611)">
<path transform="scale(0.0026, -0.0026)" d="M204 141c63 0 120 -35 120 -103c0 -70 -50 -119 -97 -147c-33 -20 -70 -32 -108 -32c-63 0 -119 35 -119 103c0 70 49 119 96 147c33 20 70 32 108 32z" fill="currentColor"/>
</g>
</a>
<a style="color:inherit;" xlink:href="textedit://C:/Users/jwloy/Documents/GitHub/ill20231216/public/pieces/ill20231212/notation/ILL20231216.ly:81:35:36">
<g transform="translate(32.1443, 9.5611)">
<path transform="scale(0.0026, -0.0026)" d="M204 141c63 0 120 -35 120 -103c0 -70 -50 -119 -97 -147c-33 -20 -70 -32 -108 -32c-63 0 -119 35 -119 103c0 70 49 119 96 147c33 20 70 32 108 32z" fill="currentColor"/>
</g>
</a>
<a style="color:inherit;" xlink:href="textedit://C:/Users/jwloy/Documents/GitHub/ill20231216/public/pieces/ill20231212/notation/ILL20231216.ly:81:105:106">
<g transform="translate(41.4400, 6.5611)">
<path transform="scale(0.0026, -0.0026)" d="M204 141c63 0 120 -35 120 -103c0 -70 -50 -119 -97 -147c-33 -20 -70 -32 -108 -32c-63 0 -119 35 -119 103c0 70 49 119 96 147c33 20 70 32 108 32z" fill="currentColor"/>
</g>
</a>
<a style="color:inherit;" xlink:href="textedit://C:/Users/jwloy/Documents/GitHub/ill20231216/public/pieces/ill20231212/notation/ILL20231216.ly:81:45:46">
<g transform="translate(33.4243, 8.5611)">
<path transform="scale(0.0026, -0.0026)" d="M204 141c63 0 120 -35 120 -103c0 -70 -50 -119 -97 -147c-33 -20 -70 -32 -108 -32c-63 0 -119 35 -119 103c0 70 49 119 96 147c33 20 70 32 108 32z" fill="currentColor"/>
</g>
</a>
<a style="color:inherit;" xlink:href="textedit://C:/Users/jwloy/Documents/GitHub/ill20231216/public/pieces/ill20231212/notation/ILL20231216.ly:81:49:50">
<g transform="translate(33.4243, 10.0611)">
<path transform="scale(0.0026, -0.0026)" d="M204 141c63 0 120 -35 120 -103c0 -70 -50 -119 -97 -147c-33 -20 -70 -32 -108 -32c-63 0 -119 35 -119 103c0 70 49 119 96 147c33 20 70 32 108 32z" fill="currentColor"/>
</g>
</a>
<g transform="translate(34.1924, 10.0611)">
<rect x="-0.0795" y="-8.8691" width="0.1590" height="8.7706" ry="0.0400" fill="currentColor"/>
</g>
<a style="color:inherit;" xlink:href="textedit://C:/Users/jwloy/Documents/GitHub/ill20231216/public/pieces/ill20231212/notation/ILL20231216.ly:76:8:9">
<g transform="translate(2.0000, 10.0611)">
<path transform="scale(0.0066, -0.0066)" d="M-23 -113c0 26 10 40 36 40c34 0 85 -15 130 -37l-137 164c-7 8 -10 17 -10 25c0 33 49 64 86 96c26 22 39 54 39 85c0 24 -8 47 -24 67l-39 46c-2 3 -3 6 -3 9c0 7 7 14 14 14c3 0 7 -1 10 -5l152 -182c7 -8 10 -17 10 -25c0 -33 -49 -64 -86 -96
c-26 -22 -39 -54 -39 -85c0 -24 8 -47 24 -67l87 -104c2 -3 3 -5 3 -8c0 -7 -7 -14 -14 -14c-3 0 -7 1 -10 5c-19 22 -66 43 -102 43c-40 0 -52 -29 -52 -70c0 -35 11 -75 28 -96c6 -7 -4 -16 -10 -9c-46 55 -93 150 -93 204z" fill="currentColor"/>
</g>
</a>
<a style="color:inherit;" xlink:href="textedit://C:/Users/jwloy/Documents/GitHub/ill20231216/public/pieces/ill20231212/notation/ILL20231216.ly:72:8:9">
</a>
<a style="color:inherit;" xlink:href="textedit://C:/Users/jwloy/Documents/GitHub/ill20231216/public/pieces/ill20231212/notation/ILL20231216.ly:81:41:42">
<g transform="translate(33.4243, 7.0611)">
<path transform="scale(0.0026, -0.0026)" d="M204 141c63 0 120 -35 120 -103c0 -70 -50 -119 -97 -147c-33 -20 -70 -32 -108 -32c-63 0 -119 35 -119 103c0 70 49 119 96 147c33 20 70 32 108 32z" fill="currentColor"/>
</g>
</a>
<a style="color:inherit;" xlink:href="textedit://C:/Users/jwloy/Documents/GitHub/ill20231216/public/pieces/ill20231212/notation/ILL20231216.ly:76:11:12">
<g transform="translate(23.0000, 10.0611)">
<path transform="scale(0.0066, -0.0066)" d="M-23 -113c0 26 10 40 36 40c34 0 85 -15 130 -37l-137 164c-7 8 -10 17 -10 25c0 33 49 64 86 96c26 22 39 54 39 85c0 24 -8 47 -24 67l-39 46c-2 3 -3 6 -3 9c0 7 7 14 14 14c3 0 7 -1 10 -5l152 -182c7 -8 10 -17 10 -25c0 -33 -49 -64 -86 -96
c-26 -22 -39 -54 -39 -85c0 -24 8 -47 24 -67l87 -104c2 -3 3 -5 3 -8c0 -7 -7 -14 -14 -14c-3 0 -7 1 -10 5c-19 22 -66 43 -102 43c-40 0 -52 -29 -52 -70c0 -35 11 -75 28 -96c6 -7 -4 -16 -10 -9c-46 55 -93 150 -93 204z" fill="currentColor"/>
</g>
</a>
<a style="color:inherit;" xlink:href="textedit://C:/Users/jwloy/Documents/GitHub/ill20231216/public/pieces/ill20231212/notation/ILL20231216.ly:81:11:12">
<g transform="translate(29.5843, 8.5611)">
<path transform="scale(0.0026, -0.0026)" d="M204 141c63 0 120 -35 120 -103c0 -70 -50 -119 -97 -147c-33 -20 -70 -32 -108 -32c-63 0 -119 35 -119 103c0 70 49 119 96 147c33 20 70 32 108 32z" fill="currentColor"/>
</g>
</a>
<g transform="translate(30.3524, 10.0611)">
<rect x="-0.0795" y="-8.8691" width="0.1590" height="7.2706" ry="0.0400" fill="currentColor"/>
</g>
<a style="color:inherit;" xlink:href="textedit://C:/Users/jwloy/Documents/GitHub/ill20231216/public/pieces/ill20231212/notation/ILL20231216.ly:81:72:73">
<g transform="translate(35.9843, 6.5611)">
<path transform="scale(0.0026, -0.0026)" d="M204 141c63 0 120 -35 120 -103c0 -70 -50 -119 -97 -147c-33 -20 -70 -32 -108 -32c-63 0 -119 35 -119 103c0 70 49 119 96 147c33 20 70 32 108 32z" fill="currentColor"/>
</g>
</a>
<a style="color:inherit;" xlink:href="textedit://C:/Users/jwloy/Documents/GitHub/ill20231216/public/pieces/ill20231212/notation/ILL20231216.ly:81:76:77">
<g transform="translate(35.9843, 9.0611)">
<path transform="scale(0.0026, -0.0026)" d="M204 141c63 0 120 -35 120 -103c0 -70 -50 -119 -97 -147c-33 -20 -70 -32 -108 -32c-63 0 -119 35 -119 103c0 70 49 119 96 147c33 20 70 32 108 32z" fill="currentColor"/>
</g>
</a>
<a style="color:inherit;" xlink:href="textedit://C:/Users/jwloy/Documents/GitHub/ill20231216/public/pieces/ill20231212/notation/ILL20231216.ly:81:98:99">
<g transform="translate(40.1600, 4.5611)">
<path transform="scale(0.0026, -0.0026)" d="M204 141c63 0 120 -35 120 -103c0 -70 -50 -119 -97 -147c-33 -20 -70 -32 -108 -32c-63 0 -119 35 -119 103c0 70 49 119 96 147c33 20 70 32 108 32z" fill="currentColor"/>
</g>
</a>
<g transform="translate(36.7524, 10.0611)">
<rect x="-0.0795" y="-8.8691" width="0.1590" height="7.7706" ry="0.0400" fill="currentColor"/>
</g>
<a style="color:inherit;" xlink:href="textedit://C:/Users/jwloy/Documents/GitHub/ill20231216/public/pieces/ill20231212/notation/ILL20231216.ly:81:95:96">
<g transform="translate(40.1600, 7.5611)">
<path transform="scale(0.0026, -0.0026)" d="M204 141c63 0 120 -35 120 -103c0 -70 -50 -119 -97 -147c-33 -20 -70 -32 -108 -32c-63 0 -119 35 -119 103c0 70 49 119 96 147c33 20 70 32 108 32z" fill="currentColor"/>
</g>
</a>
<a style="color:inherit;" xlink:href="textedit://C:/Users/jwloy/Documents/GitHub/ill20231216/public/pieces/ill20231212/notation/ILL20231216.ly:81:80:81">
<g transform="translate(37.7500, 7.5611)">
<path transform="scale(0.0026, -0.0026)" d="M204 141c63 0 120 -35 120 -103c0 -70 -50 -119 -97 -147c-33 -20 -70 -32 -108 -32c-63 0 -119 35 -119 103c0 70 49 119 96 147c33 20 70 32 108 32z" fill="currentColor"/>
</g>
</a>
<g transform="translate(38.5181, 10.0611)">
<rect x="-0.0795" y="-8.8691" width="0.1590" height="6.2706" ry="0.0400" fill="currentColor"/>
</g>
<a style="color:inherit;" xlink:href="textedit://C:/Users/jwloy/Documents/GitHub/ill20231216/public/pieces/ill20231212/notation/ILL20231216.ly:81:68:69">
<g transform="translate(35.9843, 7.5611)">
<path transform="scale(0.0026, -0.0026)" d="M204 141c63 0 120 -35 120 -103c0 -70 -50 -119 -97 -147c-33 -20 -70 -32 -108 -32c-63 0 -119 35 -119 103c0 70 49 119 96 147c33 20 70 32 108 32z" fill="currentColor"/>
</g>
</a>
<a style="color:inherit;" xlink:href="textedit://C:/Users/jwloy/Documents/GitHub/ill20231216/public/pieces/ill20231212/notation/ILL20231216.ly:81:54:55">
<g transform="translate(34.7043, 7.5611)">
<path transform="scale(0.0026, -0.0026)" d="M204 141c63 0 120 -35 120 -103c0 -70 -50 -119 -97 -147c-33 -20 -70 -32 -108 -32c-63 0 -119 35 -119 103c0 70 49 119 96 147c33 20 70 32 108 32z" fill="currentColor"/>
</g>
</a>
<a style="color:inherit;" xlink:href="textedit://C:/Users/jwloy/Documents/GitHub/ill20231216/public/pieces/ill20231212/notation/ILL20231216.ly:81:58:59">
<g transform="translate(34.7043, 6.5611)">
<path transform="scale(0.0026, -0.0026)" d="M204 141c63 0 120 -35 120 -103c0 -70 -50 -119 -97 -147c-33 -20 -70 -32 -108 -32c-63 0 -119 35 -119 103c0 70 49 119 96 147c33 20 70 32 108 32z" fill="currentColor"/>
</g>
</a>
<a style="color:inherit;" xlink:href="textedit://C:/Users/jwloy/Documents/GitHub/ill20231216/public/pieces/ill20231212/notation/ILL20231216.ly:81:88:89">
<g transform="translate(38.8800, 6.0611)">
<path transform="scale(0.0026, -0.0026)" d="M204 141c63 0 120 -35 120 -103c0 -70 -50 -119 -97 -147c-33 -20 -70 -32 -108 -32c-63 0 -119 35 -119 103c0 70 49 119 96 147c33 20 70 32 108 32z" fill="currentColor"/>
</g>
</a>
<g transform="translate(35.4724, 10.0611)">
<rect x="-0.0795" y="-8.8691" width="0.1590" height="6.2706" ry="0.0400" fill="currentColor"/>
</g>
<g transform="translate(39.6481, 10.0611)">
<rect x="-0.0795" y="-8.8691" width="0.1590" height="8.7706" ry="0.0400" fill="currentColor"/>
</g>
<a style="color:inherit;" xlink:href="textedit://C:/Users/jwloy/Documents/GitHub/ill20231216/public/pieces/ill20231212/notation/ILL20231216.ly:81:85:86">
<g transform="translate(38.8800, 10.0611)">
<path transform="scale(0.0026, -0.0026)" d="M204 141c63 0 120 -35 120 -103c0 -70 -50 -119 -97 -147c-33 -20 -70 -32 -108 -32c-63 0 -119 35 -119 103c0 70 49 119 96 147c33 20 70 32 108 32z" fill="currentColor"/>
</g>
</a>
<g transform="translate(40.9281, 10.0611)">
<rect x="-0.0795" y="-8.8691" width="0.1590" height="6.2706" ry="0.0400" fill="currentColor"/>
</g>
<a style="color:inherit;" xlink:href="textedit://C:/Users/jwloy/Documents/GitHub/ill20231216/public/pieces/ill20231212/notation/ILL20231216.ly:81:64:65">
<g transform="translate(36.7524, 8.5611)">
<path transform="scale(0.0026, -0.0026)" d="M204 141c63 0 120 -35 120 -103c0 -70 -50 -119 -97 -147c-33 -20 -70 -32 -108 -32c-63 0 -119 35 -119 103c0 70 49 119 96 147c33 20 70 32 108 32z" fill="currentColor"/>
</g>
</a>
</svg>
