<svg xmlns="http://www.w3.org/2000/svg" xmlns:xlink="http://www.w3.org/1999/xlink" version="1.2" width="2150.00mm" height="100.00mm" viewBox="0 0 1223.4685 56.9055">
<style type="text/css">
<![CDATA[
tspan { white-space: pre; }
]]>
</style>
<!-- Page: 1/1 -->
<g transform="translate(0.0000, 19.7037)">
<line stroke-linejoin="round" stroke-linecap="round" stroke-width="0.1223" stroke="currentColor" x1="0.0611" y1="0" x2="358.9389" y2="0"/>
</g>
<g transform="translate(0.0000, 18.0537)">
<line stroke-linejoin="round" stroke-linecap="round" stroke-width="0.1223" stroke="currentColor" x1="0.0611" y1="0" x2="358.9389" y2="0"/>
</g>
<g transform="translate(0.0000, 16.4037)">
<line stroke-linejoin="round" stroke-linecap="round" stroke-width="0.1223" stroke="currentColor" x1="0.0611" y1="0" x2="358.9389" y2="0"/>
</g>
<g transform="translate(0.0000, 14.7537)">
<line stroke-linejoin="round" stroke-linecap="round" stroke-width="0.1223" stroke="currentColor" x1="0.0611" y1="0" x2="358.9389" y2="0"/>
</g>
<g transform="translate(0.0000, 13.1037)">
<line stroke-linejoin="round" stroke-linecap="round" stroke-width="0.1223" stroke="currentColor" x1="0.0611" y1="0" x2="358.9389" y2="0"/>
</g>
<g transform="translate(85.0677, 16.4037)">
<rect x="0.0000" y="-3.3000" width="0.2323" height="6.6000" ry="0.0000" fill="currentColor"/>
</g>
<g transform="translate(315.3677, 16.4037)">
<rect x="0.0000" y="-3.3000" width="0.2323" height="6.6000" ry="0.0000" fill="currentColor"/>
</g>
<g transform="translate(42.3677, 16.4037)">
<rect x="0.0000" y="-3.3000" width="0.2323" height="6.6000" ry="0.0000" fill="currentColor"/>
</g>
<g transform="translate(64.0677, 16.4037)">
<rect x="0.0000" y="-3.3000" width="0.2323" height="6.6000" ry="0.0000" fill="currentColor"/>
</g>
<g transform="translate(190.0677, 16.4037)">
<rect x="0.0000" y="-3.3000" width="0.2323" height="6.6000" ry="0.0000" fill="currentColor"/>
</g>
<g transform="translate(169.0677, 16.4037)">
<rect x="0.0000" y="-3.3000" width="0.2323" height="6.6000" ry="0.0000" fill="currentColor"/>
</g>
<g transform="translate(148.0677, 16.4037)">
<rect x="0.0000" y="-3.3000" width="0.2323" height="6.6000" ry="0.0000" fill="currentColor"/>
</g>
<g transform="translate(211.0677, 16.4037)">
<rect x="0.0000" y="-3.3000" width="0.2323" height="6.6000" ry="0.0000" fill="currentColor"/>
</g>
<g transform="translate(295.0677, 16.4037)">
<rect x="0.0000" y="-3.3000" width="0.2323" height="6.6000" ry="0.0000" fill="currentColor"/>
</g>
<g transform="translate(22.0677, 16.4037)">
<rect x="0.0000" y="-3.3000" width="0.2323" height="6.6000" ry="0.0000" fill="currentColor"/>
</g>
<g transform="translate(106.0677, 16.4037)">
<rect x="0.0000" y="-3.3000" width="0.2323" height="6.6000" ry="0.0000" fill="currentColor"/>
</g>
<g transform="translate(358.7677, 16.4037)">
<rect x="0.0000" y="-3.3000" width="0.2323" height="6.6000" ry="0.0000" fill="currentColor"/>
</g>
<g transform="translate(232.0677, 16.4037)">
<rect x="0.0000" y="-3.3000" width="0.2323" height="6.6000" ry="0.0000" fill="currentColor"/>
</g>
<g transform="translate(274.0677, 16.4037)">
<rect x="0.0000" y="-3.3000" width="0.2323" height="6.6000" ry="0.0000" fill="currentColor"/>
</g>
<g transform="translate(0.0000, 11.4537)">
<rect x="313.6597" y="-0.1436" width="0.7976" height="0.2873" ry="0.1436" fill="currentColor"/>
</g>
<g transform="translate(0.0000, 11.4537)">
<rect x="312.8121" y="-0.1436" width="0.7476" height="0.2873" ry="0.1436" fill="currentColor"/>
</g>
<g transform="translate(0.0000, 9.8037)">
<rect x="311.9645" y="-0.1436" width="0.7476" height="0.2873" ry="0.1436" fill="currentColor"/>
</g>
<g transform="translate(0.0000, 11.4537)">
<rect x="311.9645" y="-0.1436" width="0.7476" height="0.2873" ry="0.1436" fill="currentColor"/>
</g>
<g transform="translate(0.0000, 11.4537)">
<rect x="311.1169" y="-0.1436" width="0.7476" height="0.2873" ry="0.1436" fill="currentColor"/>
</g>
<g transform="translate(0.0000, 11.4537)">
<rect x="310.2194" y="-0.1436" width="0.7976" height="0.2873" ry="0.1436" fill="currentColor"/>
</g>
<g transform="translate(0.0000, 11.4537)">
<rect x="185.8012" y="-0.1436" width="0.9476" height="0.2873" ry="0.1436" fill="currentColor"/>
</g>
<g transform="translate(0.0000, 11.4537)">
<rect x="184.8036" y="-0.1436" width="0.8976" height="0.2873" ry="0.1436" fill="currentColor"/>
</g>
<g transform="translate(0.0000, 9.8037)">
<rect x="183.8061" y="-0.1436" width="0.8976" height="0.2873" ry="0.1436" fill="currentColor"/>
</g>
<g transform="translate(0.0000, 11.4537)">
<rect x="183.8061" y="-0.1436" width="0.8976" height="0.2873" ry="0.1436" fill="currentColor"/>
</g>
<g transform="translate(0.0000, 11.4537)">
<rect x="182.8085" y="-0.1436" width="0.8976" height="0.2873" ry="0.1436" fill="currentColor"/>
</g>
<g transform="translate(0.0000, 11.4537)">
<rect x="181.7609" y="-0.1436" width="0.9476" height="0.2873" ry="0.1436" fill="currentColor"/>
</g>
<g transform="translate(0.0000, 11.4537)">
<rect x="70.1681" y="-0.1436" width="1.2714" height="0.2873" ry="0.1436" fill="currentColor"/>
</g>
<g transform="translate(0.0000, 11.4537)">
<rect x="40.6097" y="-0.1436" width="0.8476" height="0.2873" ry="0.1436" fill="currentColor"/>
</g>
<g transform="translate(337.0677, 16.4037)">
<rect x="0.0000" y="-3.3000" width="0.2323" height="6.6000" ry="0.0000" fill="currentColor"/>
</g>
<g transform="translate(127.5000, 16.4037)">
<rect x="0.0000" y="-3.3000" width="0.2323" height="6.6000" ry="0.0000" fill="currentColor"/>
</g>
<g transform="translate(253.0677, 16.4037)">
<rect x="0.0000" y="-3.3000" width="0.2323" height="6.6000" ry="0.0000" fill="currentColor"/>
</g>
<g transform="translate(187.5919, 16.4037)">
<rect x="-0.0795" y="-11.8057" width="0.1590" height="10.8821" ry="0.0400" fill="currentColor"/>
</g>
<a style="color:inherit;" xlink:href="textedit://C:/Users/jwloy/Documents/GitHub/ill20231216/public/pieces/ill20231212/notation/ILL20231216.ly:119:167:168">
<g transform="translate(186.8238, 15.5787)">
<path transform="scale(0.0026, -0.0026)" d="M204 141c63 0 120 -35 120 -103c0 -70 -50 -119 -97 -147c-33 -20 -70 -32 -108 -32c-63 0 -119 35 -119 103c0 70 49 119 96 147c33 20 70 32 108 32z" fill="currentColor"/>
</g>
</a>
<a style="color:inherit;" xlink:href="textedit://C:/Users/jwloy/Documents/GitHub/ill20231216/public/pieces/ill20231212/notation/ILL20231216.ly:119:174:175">
<g transform="translate(187.8214, 13.1037)">
<path transform="scale(0.0026, -0.0026)" d="M204 141c63 0 120 -35 120 -103c0 -70 -50 -119 -97 -147c-33 -20 -70 -32 -108 -32c-63 0 -119 35 -119 103c0 70 49 119 96 147c33 20 70 32 108 32z" fill="currentColor"/>
</g>
</a>
<a style="color:inherit;" xlink:href="textedit://C:/Users/jwloy/Documents/GitHub/ill20231216/public/pieces/ill20231212/notation/ILL20231216.ly:119:178:179">
<g transform="translate(187.8214, 14.7537)">
<path transform="scale(0.0026, -0.0026)" d="M204 141c63 0 120 -35 120 -103c0 -70 -50 -119 -97 -147c-33 -20 -70 -32 -108 -32c-63 0 -119 35 -119 103c0 70 49 119 96 147c33 20 70 32 108 32z" fill="currentColor"/>
</g>
</a>
<a style="color:inherit;" xlink:href="textedit://C:/Users/jwloy/Documents/GitHub/ill20231216/public/pieces/ill20231212/notation/ILL20231216.ly:119:183:184">
<g transform="translate(188.8190, 13.9287)">
<path transform="scale(0.0026, -0.0026)" d="M204 141c63 0 120 -35 120 -103c0 -70 -50 -119 -97 -147c-33 -20 -70 -32 -108 -32c-63 0 -119 35 -119 103c0 70 49 119 96 147c33 20 70 32 108 32z" fill="currentColor"/>
</g>
</a>
<g transform="translate(189.5871, 16.4037)">
<rect x="-0.0795" y="-11.8057" width="0.1590" height="9.2321" ry="0.0400" fill="currentColor"/>
</g>
<a style="color:inherit;" xlink:href="textedit://C:/Users/jwloy/Documents/GitHub/ill20231216/public/pieces/ill20231212/notation/ILL20231216.ly:124:8:9">
<g transform="translate(191.0000, 16.4037)">
<path transform="scale(0.0066, -0.0066)" d="M-23 -113c0 26 10 40 36 40c34 0 85 -15 130 -37l-137 164c-7 8 -10 17 -10 25c0 33 49 64 86 96c26 22 39 54 39 85c0 24 -8 47 -24 67l-39 46c-2 3 -3 6 -3 9c0 7 7 14 14 14c3 0 7 -1 10 -5l152 -182c7 -8 10 -17 10 -25c0 -33 -49 -64 -86 -96
c-26 -22 -39 -54 -39 -85c0 -24 8 -47 24 -67l87 -104c2 -3 3 -5 3 -8c0 -7 -7 -14 -14 -14c-3 0 -7 1 -10 5c-19 22 -66 43 -102 43c-40 0 -52 -29 -52 -70c0 -35 11 -75 28 -96c6 -7 -4 -16 -10 -9c-46 55 -93 150 -93 204z" fill="currentColor"/>
</g>
</a>
<g transform="translate(188.5895, 16.4037)">
<rect x="-0.0795" y="-11.8057" width="0.1590" height="10.0571" ry="0.0400" fill="currentColor"/>
</g>
<a style="color:inherit;" xlink:href="textedit://C:/Users/jwloy/Documents/GitHub/ill20231216/public/pieces/ill20231212/notation/ILL20231216.ly:124:15:16">
<g transform="translate(254.0000, 16.4037)">
<path transform="scale(0.0066, -0.0066)" d="M-23 -113c0 26 10 40 36 40c34 0 85 -15 130 -37l-137 164c-7 8 -10 17 -10 25c0 33 49 64 86 96c26 22 39 54 39 85c0 24 -8 47 -24 67l-39 46c-2 3 -3 6 -3 9c0 7 7 14 14 14c3 0 7 -1 10 -5l152 -182c7 -8 10 -17 10 -25c0 -33 -49 -64 -86 -96
c-26 -22 -39 -54 -39 -85c0 -24 8 -47 24 -67l87 -104c2 -3 3 -5 3 -8c0 -7 -7 -14 -14 -14c-3 0 -7 1 -10 5c-19 22 -66 43 -102 43c-40 0 -52 -29 -52 -70c0 -35 11 -75 28 -96c6 -7 -4 -16 -10 -9c-46 55 -93 150 -93 204z" fill="currentColor"/>
</g>
</a>
<g transform="translate(176.6185, 16.4037)">
<rect x="-0.0795" y="-11.8057" width="0.1590" height="9.2321" ry="0.0400" fill="currentColor"/>
</g>
<a style="color:inherit;" xlink:href="textedit://C:/Users/jwloy/Documents/GitHub/ill20231216/public/pieces/ill20231212/notation/ILL20231216.ly:124:11:12">
<g transform="translate(212.0000, 16.4037)">
<path transform="scale(0.0066, -0.0066)" d="M-23 -113c0 26 10 40 36 40c34 0 85 -15 130 -37l-137 164c-7 8 -10 17 -10 25c0 33 49 64 86 96c26 22 39 54 39 85c0 24 -8 47 -24 67l-39 46c-2 3 -3 6 -3 9c0 7 7 14 14 14c3 0 7 -1 10 -5l152 -182c7 -8 10 -17 10 -25c0 -33 -49 -64 -86 -96
c-26 -22 -39 -54 -39 -85c0 -24 8 -47 24 -67l87 -104c2 -3 3 -5 3 -8c0 -7 -7 -14 -14 -14c-3 0 -7 1 -10 5c-19 22 -66 43 -102 43c-40 0 -52 -29 -52 -70c0 -35 11 -75 28 -96c6 -7 -4 -16 -10 -9c-46 55 -93 150 -93 204z" fill="currentColor"/>
</g>
</a>
<a style="color:inherit;" xlink:href="textedit://C:/Users/jwloy/Documents/GitHub/ill20231216/public/pieces/ill20231212/notation/ILL20231216.ly:124:13:14">
<g transform="translate(233.0000, 16.4037)">
<path transform="scale(0.0066, -0.0066)" d="M-23 -113c0 26 10 40 36 40c34 0 85 -15 130 -37l-137 164c-7 8 -10 17 -10 25c0 33 49 64 86 96c26 22 39 54 39 85c0 24 -8 47 -24 67l-39 46c-2 3 -3 6 -3 9c0 7 7 14 14 14c3 0 7 -1 10 -5l152 -182c7 -8 10 -17 10 -25c0 -33 -49 -64 -86 -96
c-26 -22 -39 -54 -39 -85c0 -24 8 -47 24 -67l87 -104c2 -3 3 -5 3 -8c0 -7 -7 -14 -14 -14c-3 0 -7 1 -10 5c-19 22 -66 43 -102 43c-40 0 -52 -29 -52 -70c0 -35 11 -75 28 -96c6 -7 -4 -16 -10 -9c-46 55 -93 150 -93 204z" fill="currentColor"/>
</g>
</a>
<a style="color:inherit;" xlink:href="textedit://C:/Users/jwloy/Documents/GitHub/ill20231216/public/pieces/ill20231212/notation/ILL20231216.ly:119:62:63">
<g transform="translate(180.8383, 15.5787)">
<path transform="scale(0.0026, -0.0026)" d="M204 141c63 0 120 -35 120 -103c0 -70 -50 -119 -97 -147c-33 -20 -70 -32 -108 -32c-63 0 -119 35 -119 103c0 70 49 119 96 147c33 20 70 32 108 32z" fill="currentColor"/>
</g>
</a>
<a style="color:inherit;" xlink:href="textedit://C:/Users/jwloy/Documents/GitHub/ill20231216/public/pieces/ill20231212/notation/ILL20231216.ly:119:48:49">
<g transform="translate(179.8407, 13.1037)">
<path transform="scale(0.0026, -0.0026)" d="M204 141c63 0 120 -35 120 -103c0 -70 -50 -119 -97 -147c-33 -20 -70 -32 -108 -32c-63 0 -119 35 -119 103c0 70 49 119 96 147c33 20 70 32 108 32z" fill="currentColor"/>
</g>
</a>
<a style="color:inherit;" xlink:href="textedit://C:/Users/jwloy/Documents/GitHub/ill20231216/public/pieces/ill20231212/notation/ILL20231216.ly:119:52:53">
<g transform="translate(179.8407, 14.7537)">
<path transform="scale(0.0026, -0.0026)" d="M204 141c63 0 120 -35 120 -103c0 -70 -50 -119 -97 -147c-33 -20 -70 -32 -108 -32c-63 0 -119 35 -119 103c0 70 49 119 96 147c33 20 70 32 108 32z" fill="currentColor"/>
</g>
</a>
<g transform="translate(180.6088, 16.4037)">
<rect x="-0.0795" y="-11.8057" width="0.1590" height="10.0571" ry="0.0400" fill="currentColor"/>
</g>
<a style="color:inherit;" xlink:href="textedit://C:/Users/jwloy/Documents/GitHub/ill20231216/public/pieces/ill20231212/notation/ILL20231216.ly:119:58:59">
<g transform="translate(180.8383, 12.2787)">
<path transform="scale(0.0026, -0.0026)" d="M204 141c63 0 120 -35 120 -103c0 -70 -50 -119 -97 -147c-33 -20 -70 -32 -108 -32c-63 0 -119 35 -119 103c0 70 49 119 96 147c33 20 70 32 108 32z" fill="currentColor"/>
</g>
</a>
<g transform="translate(181.6064, 16.4037)">
<rect x="-0.0795" y="-11.8057" width="0.1590" height="10.8821" ry="0.0400" fill="currentColor"/>
</g>
<a style="color:inherit;" xlink:href="textedit://C:/Users/jwloy/Documents/GitHub/ill20231216/public/pieces/ill20231212/notation/ILL20231216.ly:119:68:69">
<g transform="translate(181.8359, 16.4037)">
<path transform="scale(0.0026, -0.0026)" d="M204 141c63 0 120 -35 120 -103c0 -70 -50 -119 -97 -147c-33 -20 -70 -32 -108 -32c-63 0 -119 35 -119 103c0 70 49 119 96 147c33 20 70 32 108 32z" fill="currentColor"/>
</g>
</a>
<a style="color:inherit;" xlink:href="textedit://C:/Users/jwloy/Documents/GitHub/ill20231216/public/pieces/ill20231212/notation/ILL20231216.ly:119:71:72">
<g transform="translate(181.8359, 14.7537)">
<path transform="scale(0.0026, -0.0026)" d="M204 141c63 0 120 -35 120 -103c0 -70 -50 -119 -97 -147c-33 -20 -70 -32 -108 -32c-63 0 -119 35 -119 103c0 70 49 119 96 147c33 20 70 32 108 32z" fill="currentColor"/>
</g>
</a>
<a style="color:inherit;" xlink:href="textedit://C:/Users/jwloy/Documents/GitHub/ill20231216/public/pieces/ill20231212/notation/ILL20231216.ly:119:75:76">
<g transform="translate(181.8359, 13.1037)">
<path transform="scale(0.0026, -0.0026)" d="M204 141c63 0 120 -35 120 -103c0 -70 -50 -119 -97 -147c-33 -20 -70 -32 -108 -32c-63 0 -119 35 -119 103c0 70 49 119 96 147c33 20 70 32 108 32z" fill="currentColor"/>
</g>
</a>
<a style="color:inherit;" xlink:href="textedit://C:/Users/jwloy/Documents/GitHub/ill20231216/public/pieces/ill20231212/notation/ILL20231216.ly:119:79:80">
<g transform="translate(181.8359, 11.4537)">
<path transform="scale(0.0026, -0.0026)" d="M204 141c63 0 120 -35 120 -103c0 -70 -50 -119 -97 -147c-33 -20 -70 -32 -108 -32c-63 0 -119 35 -119 103c0 70 49 119 96 147c33 20 70 32 108 32z" fill="currentColor"/>
</g>
</a>
<g transform="translate(182.6040, 16.4037)">
<rect x="-0.0795" y="-11.8057" width="0.1590" height="11.7071" ry="0.0400" fill="currentColor"/>
</g>
<a style="color:inherit;" xlink:href="textedit://C:/Users/jwloy/Documents/GitHub/ill20231216/public/pieces/ill20231212/notation/ILL20231216.ly:88:10:11">
<g transform="translate(38.7555, 4.0287)">
<polygon stroke-linejoin="round" stroke-linecap="round" stroke-width="0.0800" fill="currentColor" stroke="currentColor" points="5.2045 -0.2768 5.2045 0.2768 0.0400 0.2768 0.0400 -0.2768"/>
</g>
<g transform="translate(38.7555, 5.0808)">
<polygon stroke-linejoin="round" stroke-linecap="round" stroke-width="0.0800" fill="currentColor" stroke="currentColor" points="5.2045 -0.2768 5.2045 0.2768 0.0400 0.2768 0.0400 -0.2768"/>
</g>
<g transform="translate(38.7555, 6.1329)">
<polygon stroke-linejoin="round" stroke-linecap="round" stroke-width="0.0800" fill="currentColor" stroke="currentColor" points="5.2045 -0.2768 5.2045 0.2768 0.0400 0.2768 0.0400 -0.2768"/>
</g>
</a>
<a style="color:inherit;" xlink:href="textedit://C:/Users/jwloy/Documents/GitHub/ill20231216/public/pieces/ill20231212/notation/ILL20231216.ly:119:35:36">
<g transform="translate(176.8480, 13.9287)">
<path transform="scale(0.0026, -0.0026)" d="M204 141c63 0 120 -35 120 -103c0 -70 -50 -119 -97 -147c-33 -20 -70 -32 -108 -32c-63 0 -119 35 -119 103c0 70 49 119 96 147c33 20 70 32 108 32z" fill="currentColor"/>
</g>
</a>
<g transform="translate(177.6161, 16.4037)">
<rect x="-0.0795" y="-11.8057" width="0.1590" height="9.2321" ry="0.0400" fill="currentColor"/>
</g>
<a style="color:inherit;" xlink:href="textedit://C:/Users/jwloy/Documents/GitHub/ill20231216/public/pieces/ill20231212/notation/ILL20231216.ly:119:39:40">
<g transform="translate(177.8456, 13.9287)">
<path transform="scale(0.0026, -0.0026)" d="M204 141c63 0 120 -35 120 -103c0 -70 -50 -119 -97 -147c-33 -20 -70 -32 -108 -32c-63 0 -119 35 -119 103c0 70 49 119 96 147c33 20 70 32 108 32z" fill="currentColor"/>
</g>
</a>
<g transform="translate(178.6137, 16.4037)">
<rect x="-0.0795" y="-11.8057" width="0.1590" height="9.2321" ry="0.0400" fill="currentColor"/>
</g>
<a style="color:inherit;" xlink:href="textedit://C:/Users/jwloy/Documents/GitHub/ill20231216/public/pieces/ill20231212/notation/ILL20231216.ly:119:43:44">
<g transform="translate(178.8432, 13.9287)">
<path transform="scale(0.0026, -0.0026)" d="M204 141c63 0 120 -35 120 -103c0 -70 -50 -119 -97 -147c-33 -20 -70 -32 -108 -32c-63 0 -119 35 -119 103c0 70 49 119 96 147c33 20 70 32 108 32z" fill="currentColor"/>
</g>
</a>
<g transform="translate(179.6113, 16.4037)">
<rect x="-0.0795" y="-11.8057" width="0.1590" height="9.2321" ry="0.0400" fill="currentColor"/>
</g>
<a style="color:inherit;" xlink:href="textedit://C:/Users/jwloy/Documents/GitHub/ill20231216/public/pieces/ill20231212/notation/ILL20231216.ly:119:127:128">
<g transform="translate(184.8286, 17.2287)">
<path transform="scale(0.0026, -0.0026)" d="M204 141c63 0 120 -35 120 -103c0 -70 -50 -119 -97 -147c-33 -20 -70 -32 -108 -32c-63 0 -119 35 -119 103c0 70 49 119 96 147c33 20 70 32 108 32z" fill="currentColor"/>
</g>
</a>
<a style="color:inherit;" xlink:href="textedit://C:/Users/jwloy/Documents/GitHub/ill20231216/public/pieces/ill20231212/notation/ILL20231216.ly:119:130:131">
<g transform="translate(184.8286, 15.5787)">
<path transform="scale(0.0026, -0.0026)" d="M204 141c63 0 120 -35 120 -103c0 -70 -50 -119 -97 -147c-33 -20 -70 -32 -108 -32c-63 0 -119 35 -119 103c0 70 49 119 96 147c33 20 70 32 108 32z" fill="currentColor"/>
</g>
</a>
<a style="color:inherit;" xlink:href="textedit://C:/Users/jwloy/Documents/GitHub/ill20231216/public/pieces/ill20231212/notation/ILL20231216.ly:119:134:135">
<g transform="translate(184.8286, 12.2787)">
<path transform="scale(0.0026, -0.0026)" d="M204 141c63 0 120 -35 120 -103c0 -70 -50 -119 -97 -147c-33 -20 -70 -32 -108 -32c-63 0 -119 35 -119 103c0 70 49 119 96 147c33 20 70 32 108 32z" fill="currentColor"/>
</g>
</a>
<a style="color:inherit;" xlink:href="textedit://C:/Users/jwloy/Documents/GitHub/ill20231216/public/pieces/ill20231212/notation/ILL20231216.ly:119:138:139">
<g transform="translate(184.8286, 10.6287)">
<path transform="scale(0.0026, -0.0026)" d="M204 141c63 0 120 -35 120 -103c0 -70 -50 -119 -97 -147c-33 -20 -70 -32 -108 -32c-63 0 -119 35 -119 103c0 70 49 119 96 147c33 20 70 32 108 32z" fill="currentColor"/>
</g>
</a>
<g transform="translate(185.5967, 16.4037)">
<rect x="-0.0795" y="-11.8057" width="0.1590" height="12.5321" ry="0.0400" fill="currentColor"/>
</g>
<a style="color:inherit;" xlink:href="textedit://C:/Users/jwloy/Documents/GitHub/ill20231216/public/pieces/ill20231212/notation/ILL20231216.ly:119:145:146">
<g transform="translate(185.8262, 16.4037)">
<path transform="scale(0.0026, -0.0026)" d="M204 141c63 0 120 -35 120 -103c0 -70 -50 -119 -97 -147c-33 -20 -70 -32 -108 -32c-63 0 -119 35 -119 103c0 70 49 119 96 147c33 20 70 32 108 32z" fill="currentColor"/>
</g>
</a>
<a style="color:inherit;" xlink:href="textedit://C:/Users/jwloy/Documents/GitHub/ill20231216/public/pieces/ill20231212/notation/ILL20231216.ly:119:148:149">
<g transform="translate(185.8262, 14.7537)">
<path transform="scale(0.0026, -0.0026)" d="M204 141c63 0 120 -35 120 -103c0 -70 -50 -119 -97 -147c-33 -20 -70 -32 -108 -32c-63 0 -119 35 -119 103c0 70 49 119 96 147c33 20 70 32 108 32z" fill="currentColor"/>
</g>
</a>
<a style="color:inherit;" xlink:href="textedit://C:/Users/jwloy/Documents/GitHub/ill20231216/public/pieces/ill20231212/notation/ILL20231216.ly:119:152:153">
<g transform="translate(185.8262, 13.1037)">
<path transform="scale(0.0026, -0.0026)" d="M204 141c63 0 120 -35 120 -103c0 -70 -50 -119 -97 -147c-33 -20 -70 -32 -108 -32c-63 0 -119 35 -119 103c0 70 49 119 96 147c33 20 70 32 108 32z" fill="currentColor"/>
</g>
</a>
<a style="color:inherit;" xlink:href="textedit://C:/Users/jwloy/Documents/GitHub/ill20231216/public/pieces/ill20231212/notation/ILL20231216.ly:119:156:157">
<g transform="translate(185.8262, 11.4537)">
<path transform="scale(0.0026, -0.0026)" d="M204 141c63 0 120 -35 120 -103c0 -70 -50 -119 -97 -147c-33 -20 -70 -32 -108 -32c-63 0 -119 35 -119 103c0 70 49 119 96 147c33 20 70 32 108 32z" fill="currentColor"/>
</g>
</a>
<g transform="translate(186.5943, 16.4037)">
<rect x="-0.0795" y="-11.8057" width="0.1590" height="11.7071" ry="0.0400" fill="currentColor"/>
</g>
<a style="color:inherit;" xlink:href="textedit://C:/Users/jwloy/Documents/GitHub/ill20231216/public/pieces/ill20231212/notation/ILL20231216.ly:119:86:87">
<g transform="translate(182.8335, 17.2287)">
<path transform="scale(0.0026, -0.0026)" d="M204 141c63 0 120 -35 120 -103c0 -70 -50 -119 -97 -147c-33 -20 -70 -32 -108 -32c-63 0 -119 35 -119 103c0 70 49 119 96 147c33 20 70 32 108 32z" fill="currentColor"/>
</g>
</a>
<a style="color:inherit;" xlink:href="textedit://C:/Users/jwloy/Documents/GitHub/ill20231216/public/pieces/ill20231212/notation/ILL20231216.ly:119:89:90">
<g transform="translate(182.8335, 15.5787)">
<path transform="scale(0.0026, -0.0026)" d="M204 141c63 0 120 -35 120 -103c0 -70 -50 -119 -97 -147c-33 -20 -70 -32 -108 -32c-63 0 -119 35 -119 103c0 70 49 119 96 147c33 20 70 32 108 32z" fill="currentColor"/>
</g>
</a>
<a style="color:inherit;" xlink:href="textedit://C:/Users/jwloy/Documents/GitHub/ill20231216/public/pieces/ill20231212/notation/ILL20231216.ly:119:93:94">
<g transform="translate(182.8335, 12.2787)">
<path transform="scale(0.0026, -0.0026)" d="M204 141c63 0 120 -35 120 -103c0 -70 -50 -119 -97 -147c-33 -20 -70 -32 -108 -32c-63 0 -119 35 -119 103c0 70 49 119 96 147c33 20 70 32 108 32z" fill="currentColor"/>
</g>
</a>
<a style="color:inherit;" xlink:href="textedit://C:/Users/jwloy/Documents/GitHub/ill20231216/public/pieces/ill20231212/notation/ILL20231216.ly:119:97:98">
<g transform="translate(182.8335, 10.6287)">
<path transform="scale(0.0026, -0.0026)" d="M204 141c63 0 120 -35 120 -103c0 -70 -50 -119 -97 -147c-33 -20 -70 -32 -108 -32c-63 0 -119 35 -119 103c0 70 49 119 96 147c33 20 70 32 108 32z" fill="currentColor"/>
</g>
</a>
<g transform="translate(183.6016, 16.4037)">
<rect x="-0.0795" y="-11.8057" width="0.1590" height="12.5321" ry="0.0400" fill="currentColor"/>
</g>
<a style="color:inherit;" xlink:href="textedit://C:/Users/jwloy/Documents/GitHub/ill20231216/public/pieces/ill20231212/notation/ILL20231216.ly:119:163:164">
<g transform="translate(186.8238, 12.2787)">
<path transform="scale(0.0026, -0.0026)" d="M204 141c63 0 120 -35 120 -103c0 -70 -50 -119 -97 -147c-33 -20 -70 -32 -108 -32c-63 0 -119 35 -119 103c0 70 49 119 96 147c33 20 70 32 108 32z" fill="currentColor"/>
</g>
</a>
<a style="color:inherit;" xlink:href="textedit://C:/Users/jwloy/Documents/GitHub/ill20231216/public/pieces/ill20231212/notation/ILL20231216.ly:119:104:105">
<g transform="translate(183.8311, 18.0537)">
<path transform="scale(0.0026, -0.0026)" d="M204 141c63 0 120 -35 120 -103c0 -70 -50 -119 -97 -147c-33 -20 -70 -32 -108 -32c-63 0 -119 35 -119 103c0 70 49 119 96 147c33 20 70 32 108 32z" fill="currentColor"/>
</g>
</a>
<a style="color:inherit;" xlink:href="textedit://C:/Users/jwloy/Documents/GitHub/ill20231216/public/pieces/ill20231212/notation/ILL20231216.ly:119:107:108">
<g transform="translate(183.8311, 16.4037)">
<path transform="scale(0.0026, -0.0026)" d="M204 141c63 0 120 -35 120 -103c0 -70 -50 -119 -97 -147c-33 -20 -70 -32 -108 -32c-63 0 -119 35 -119 103c0 70 49 119 96 147c33 20 70 32 108 32z" fill="currentColor"/>
</g>
</a>
<a style="color:inherit;" xlink:href="textedit://C:/Users/jwloy/Documents/GitHub/ill20231216/public/pieces/ill20231212/notation/ILL20231216.ly:119:110:111">
<g transform="translate(183.8311, 13.9287)">
<path transform="scale(0.0026, -0.0026)" d="M204 141c63 0 120 -35 120 -103c0 -70 -50 -119 -97 -147c-33 -20 -70 -32 -108 -32c-63 0 -119 35 -119 103c0 70 49 119 96 147c33 20 70 32 108 32z" fill="currentColor"/>
</g>
</a>
<a style="color:inherit;" xlink:href="textedit://C:/Users/jwloy/Documents/GitHub/ill20231216/public/pieces/ill20231212/notation/ILL20231216.ly:119:114:115">
<g transform="translate(183.8311, 11.4537)">
<path transform="scale(0.0026, -0.0026)" d="M204 141c63 0 120 -35 120 -103c0 -70 -50 -119 -97 -147c-33 -20 -70 -32 -108 -32c-63 0 -119 35 -119 103c0 70 49 119 96 147c33 20 70 32 108 32z" fill="currentColor"/>
</g>
</a>
<a style="color:inherit;" xlink:href="textedit://C:/Users/jwloy/Documents/GitHub/ill20231216/public/pieces/ill20231212/notation/ILL20231216.ly:119:118:119">
<g transform="translate(183.8311, 9.8037)">
<path transform="scale(0.0026, -0.0026)" d="M204 141c63 0 120 -35 120 -103c0 -70 -50 -119 -97 -147c-33 -20 -70 -32 -108 -32c-63 0 -119 35 -119 103c0 70 49 119 96 147c33 20 70 32 108 32z" fill="currentColor"/>
</g>
</a>
<g transform="translate(184.5992, 16.4037)">
<rect x="-0.0795" y="-11.8057" width="0.1590" height="13.3571" ry="0.0400" fill="currentColor"/>
</g>
<a style="color:inherit;" xlink:href="textedit://C:/Users/jwloy/Documents/GitHub/ill20231216/public/pieces/ill20231212/notation/ILL20231216.ly:128:119:120">
<g transform="translate(313.6097, 16.4037)">
<path transform="scale(0.0026, -0.0026)" d="M204 141c63 0 120 -35 120 -103c0 -70 -50 -119 -97 -147c-33 -20 -70 -32 -108 -32c-63 0 -119 35 -119 103c0 70 49 119 96 147c33 20 70 32 108 32z" fill="currentColor"/>
</g>
</a>
<a style="color:inherit;" xlink:href="textedit://C:/Users/jwloy/Documents/GitHub/ill20231216/public/pieces/ill20231212/notation/ILL20231216.ly:128:122:123">
<g transform="translate(313.6097, 14.7537)">
<path transform="scale(0.0026, -0.0026)" d="M204 141c63 0 120 -35 120 -103c0 -70 -50 -119 -97 -147c-33 -20 -70 -32 -108 -32c-63 0 -119 35 -119 103c0 70 49 119 96 147c33 20 70 32 108 32z" fill="currentColor"/>
</g>
</a>
<a style="color:inherit;" xlink:href="textedit://C:/Users/jwloy/Documents/GitHub/ill20231216/public/pieces/ill20231212/notation/ILL20231216.ly:128:126:127">
<g transform="translate(313.6097, 13.1037)">
<path transform="scale(0.0026, -0.0026)" d="M204 141c63 0 120 -35 120 -103c0 -70 -50 -119 -97 -147c-33 -20 -70 -32 -108 -32c-63 0 -119 35 -119 103c0 70 49 119 96 147c33 20 70 32 108 32z" fill="currentColor"/>
</g>
</a>
<a style="color:inherit;" xlink:href="textedit://C:/Users/jwloy/Documents/GitHub/ill20231216/public/pieces/ill20231212/notation/ILL20231216.ly:128:130:131">
<g transform="translate(313.6097, 11.4537)">
<path transform="scale(0.0026, -0.0026)" d="M204 141c63 0 120 -35 120 -103c0 -70 -50 -119 -97 -147c-33 -20 -70 -32 -108 -32c-63 0 -119 35 -119 103c0 70 49 119 96 147c33 20 70 32 108 32z" fill="currentColor"/>
</g>
</a>
<g transform="translate(314.3778, 16.4037)">
<rect x="-0.0795" y="-12.9443" width="0.1590" height="12.8458" ry="0.0400" fill="currentColor"/>
</g>
<g transform="translate(313.5302, 16.4037)">
<rect x="-0.0795" y="-12.9443" width="0.1590" height="13.6708" ry="0.0400" fill="currentColor"/>
</g>
<a style="color:inherit;" xlink:href="textedit://C:/Users/jwloy/Documents/GitHub/ill20231216/public/pieces/ill20231212/notation/ILL20231216.ly:128:137:138">
<g transform="translate(314.4573, 12.2787)">
<path transform="scale(0.0026, -0.0026)" d="M204 141c63 0 120 -35 120 -103c0 -70 -50 -119 -97 -147c-33 -20 -70 -32 -108 -32c-63 0 -119 35 -119 103c0 70 49 119 96 147c33 20 70 32 108 32z" fill="currentColor"/>
</g>
</a>
<a style="color:inherit;" xlink:href="textedit://C:/Users/jwloy/Documents/GitHub/ill20231216/public/pieces/ill20231212/notation/ILL20231216.ly:128:141:142">
<g transform="translate(314.4573, 15.5787)">
<path transform="scale(0.0026, -0.0026)" d="M204 141c63 0 120 -35 120 -103c0 -70 -50 -119 -97 -147c-33 -20 -70 -32 -108 -32c-63 0 -119 35 -119 103c0 70 49 119 96 147c33 20 70 32 108 32z" fill="currentColor"/>
</g>
</a>
<g transform="translate(315.2254, 16.4037)">
<rect x="-0.0795" y="-12.9443" width="0.1590" height="12.0208" ry="0.0400" fill="currentColor"/>
</g>
<g transform="translate(312.6826, 16.4037)">
<rect x="-0.0795" y="-12.9443" width="0.1590" height="14.4958" ry="0.0400" fill="currentColor"/>
</g>
<g transform="translate(311.8350, 16.4037)">
<rect x="-0.0795" y="-12.9443" width="0.1590" height="13.6708" ry="0.0400" fill="currentColor"/>
</g>
<a style="color:inherit;" xlink:href="textedit://C:/Users/jwloy/Documents/GitHub/ill20231216/public/pieces/ill20231212/notation/ILL20231216.ly:128:78:79">
<g transform="translate(311.9145, 18.0537)">
<path transform="scale(0.0026, -0.0026)" d="M204 141c63 0 120 -35 120 -103c0 -70 -50 -119 -97 -147c-33 -20 -70 -32 -108 -32c-63 0 -119 35 -119 103c0 70 49 119 96 147c33 20 70 32 108 32z" fill="currentColor"/>
</g>
</a>
<a style="color:inherit;" xlink:href="textedit://C:/Users/jwloy/Documents/GitHub/ill20231216/public/pieces/ill20231212/notation/ILL20231216.ly:128:81:82">
<g transform="translate(311.9145, 16.4037)">
<path transform="scale(0.0026, -0.0026)" d="M204 141c63 0 120 -35 120 -103c0 -70 -50 -119 -97 -147c-33 -20 -70 -32 -108 -32c-63 0 -119 35 -119 103c0 70 49 119 96 147c33 20 70 32 108 32z" fill="currentColor"/>
</g>
</a>
<a style="color:inherit;" xlink:href="textedit://C:/Users/jwloy/Documents/GitHub/ill20231216/public/pieces/ill20231212/notation/ILL20231216.ly:128:84:85">
<g transform="translate(311.9145, 13.9287)">
<path transform="scale(0.0026, -0.0026)" d="M204 141c63 0 120 -35 120 -103c0 -70 -50 -119 -97 -147c-33 -20 -70 -32 -108 -32c-63 0 -119 35 -119 103c0 70 49 119 96 147c33 20 70 32 108 32z" fill="currentColor"/>
</g>
</a>
<a style="color:inherit;" xlink:href="textedit://C:/Users/jwloy/Documents/GitHub/ill20231216/public/pieces/ill20231212/notation/ILL20231216.ly:128:88:89">
<g transform="translate(311.9145, 11.4537)">
<path transform="scale(0.0026, -0.0026)" d="M204 141c63 0 120 -35 120 -103c0 -70 -50 -119 -97 -147c-33 -20 -70 -32 -108 -32c-63 0 -119 35 -119 103c0 70 49 119 96 147c33 20 70 32 108 32z" fill="currentColor"/>
</g>
</a>
<a style="color:inherit;" xlink:href="textedit://C:/Users/jwloy/Documents/GitHub/ill20231216/public/pieces/ill20231212/notation/ILL20231216.ly:128:92:93">
<g transform="translate(311.9145, 9.8037)">
<path transform="scale(0.0026, -0.0026)" d="M204 141c63 0 120 -35 120 -103c0 -70 -50 -119 -97 -147c-33 -20 -70 -32 -108 -32c-63 0 -119 35 -119 103c0 70 49 119 96 147c33 20 70 32 108 32z" fill="currentColor"/>
</g>
</a>
<a style="color:inherit;" xlink:href="textedit://C:/Users/jwloy/Documents/GitHub/ill20231216/public/pieces/ill20231212/notation/ILL20231216.ly:128:101:102">
<g transform="translate(312.7621, 17.2287)">
<path transform="scale(0.0026, -0.0026)" d="M204 141c63 0 120 -35 120 -103c0 -70 -50 -119 -97 -147c-33 -20 -70 -32 -108 -32c-63 0 -119 35 -119 103c0 70 49 119 96 147c33 20 70 32 108 32z" fill="currentColor"/>
</g>
</a>
<a style="color:inherit;" xlink:href="textedit://C:/Users/jwloy/Documents/GitHub/ill20231216/public/pieces/ill20231212/notation/ILL20231216.ly:128:104:105">
<g transform="translate(312.7621, 15.5787)">
<path transform="scale(0.0026, -0.0026)" d="M204 141c63 0 120 -35 120 -103c0 -70 -50 -119 -97 -147c-33 -20 -70 -32 -108 -32c-63 0 -119 35 -119 103c0 70 49 119 96 147c33 20 70 32 108 32z" fill="currentColor"/>
</g>
</a>
<a style="color:inherit;" xlink:href="textedit://C:/Users/jwloy/Documents/GitHub/ill20231216/public/pieces/ill20231212/notation/ILL20231216.ly:128:108:109">
<g transform="translate(312.7621, 12.2787)">
<path transform="scale(0.0026, -0.0026)" d="M204 141c63 0 120 -35 120 -103c0 -70 -50 -119 -97 -147c-33 -20 -70 -32 -108 -32c-63 0 -119 35 -119 103c0 70 49 119 96 147c33 20 70 32 108 32z" fill="currentColor"/>
</g>
</a>
<a style="color:inherit;" xlink:href="textedit://C:/Users/jwloy/Documents/GitHub/ill20231216/public/pieces/ill20231212/notation/ILL20231216.ly:128:112:113">
<g transform="translate(312.7621, 10.6287)">
<path transform="scale(0.0026, -0.0026)" d="M204 141c63 0 120 -35 120 -103c0 -70 -50 -119 -97 -147c-33 -20 -70 -32 -108 -32c-63 0 -119 35 -119 103c0 70 49 119 96 147c33 20 70 32 108 32z" fill="currentColor"/>
</g>
</a>
<a style="color:inherit;" xlink:href="textedit://C:/Users/jwloy/Documents/GitHub/ill20231216/public/pieces/ill20231212/notation/ILL20231216.ly:119:10:11">
<g transform="translate(172.5487, 4.5980)">
<polygon stroke-linejoin="round" stroke-linecap="round" stroke-width="0.0800" fill="currentColor" stroke="currentColor" points="17.0778 -0.2768 17.0778 0.2768 0.0400 0.2768 0.0400 -0.2768"/>
</g>
<g transform="translate(172.5487, 5.6502)">
<polygon stroke-linejoin="round" stroke-linecap="round" stroke-width="0.0800" fill="currentColor" stroke="currentColor" points="17.0778 -0.2768 17.0778 0.2768 0.0400 0.2768 0.0400 -0.2768"/>
</g>
<g transform="translate(172.5487, 6.7023)">
<polygon stroke-linejoin="round" stroke-linecap="round" stroke-width="0.0800" fill="currentColor" stroke="currentColor" points="17.0778 -0.2768 17.0778 0.2768 0.0400 0.2768 0.0400 -0.2768"/>
</g>
</a>
<a style="color:inherit;" xlink:href="textedit://C:/Users/jwloy/Documents/GitHub/ill20231216/public/pieces/ill20231212/notation/ILL20231216.ly:128:10:11">
<g transform="translate(308.3652, 3.4594)">
<polygon stroke-linejoin="round" stroke-linecap="round" stroke-width="0.0800" fill="currentColor" stroke="currentColor" points="8.5948 -0.2768 8.5948 0.2768 0.0400 0.2768 0.0400 -0.2768"/>
</g>
<g transform="translate(308.3652, 4.5115)">
<polygon stroke-linejoin="round" stroke-linecap="round" stroke-width="0.0800" fill="currentColor" stroke="currentColor" points="8.5948 -0.2768 8.5948 0.2768 0.0400 0.2768 0.0400 -0.2768"/>
</g>
<g transform="translate(308.3652, 5.5636)">
<polygon stroke-linejoin="round" stroke-linecap="round" stroke-width="0.0800" fill="currentColor" stroke="currentColor" points="8.5948 -0.2768 8.5948 0.2768 0.0400 0.2768 0.0400 -0.2768"/>
</g>
</a>
<g transform="translate(317.1590, 25.4387)">
<path transform="scale(0.0066, -0.0066)" d="M0 0h-14v250h14v-250zM0 0v250c98 58 228 147 228 259c0 57 -15 112 -40 164c-3 15 9 25 21 25c7 0 14 -3 18 -10c25 -56 40 -117 40 -179c0 -203 -267 -306 -267 -509z" fill="currentColor"/>
</g>
<a style="color:inherit;" xlink:href="textedit://C:/Users/jwloy/Documents/GitHub/ill20231216/public/pieces/ill20231212/notation/ILL20231216.ly:110:33:34">
<g transform="translate(132.2000, 16.4037)">
<path stroke-width="0.0978" stroke-linejoin="round" stroke-linecap="round" stroke="currentColor" fill="currentColor" d="M1.9101 0.4771C3.3165 1.4680 15.1936 1.4680 16.6000 0.4771L16.6000 0.4771C15.1936 1.3213 3.3165 1.3213 1.9101 0.4771z"/>
</g>
</a>
<a style="color:inherit;" xlink:href="textedit://C:/Users/jwloy/Documents/GitHub/ill20231216/public/pieces/ill20231212/notation/ILL20231216.ly:110:8:9">
<g transform="translate(125.8974, 2.9462)">
<text font-family="serif" font-style="italic" font-size="2.8814" text-anchor="start" fill="currentColor">
<tspan>5:2</tspan>
</text>
</g>
</a>
<a style="color:inherit;" xlink:href="textedit://C:/Users/jwloy/Documents/GitHub/ill20231216/public/pieces/ill20231212/notation/ILL20231216.ly:110:8:9">
<g transform="translate(108.5511, 2.0072)">
<line stroke-linejoin="round" stroke-linecap="round" stroke-width="0.1957" stroke="currentColor" x1="38.8465" y1="-0.0000" x2="38.8465" y2="1.1550"/>
</g>
<g transform="translate(108.5511, 2.0072)">
<line stroke-linejoin="round" stroke-linecap="round" stroke-width="0.1957" stroke="currentColor" x1="-0.3300" y1="-0.0000" x2="-0.3300" y2="1.1550"/>
</g>
<g transform="translate(108.5511, 2.0072)">
<line stroke-linejoin="round" stroke-linecap="round" stroke-width="0.1957" stroke="currentColor" x1="38.8465" y1="-0.0000" x2="21.7703" y2="-0.0000"/>
</g>
<g transform="translate(108.5511, 2.0072)">
<line stroke-linejoin="round" stroke-linecap="round" stroke-width="0.1957" stroke="currentColor" x1="-0.3300" y1="-0.0000" x2="16.9462" y2="-0.0000"/>
</g>
</a>
<a style="color:inherit;" xlink:href="textedit://C:/Users/jwloy/Documents/GitHub/ill20231216/public/pieces/ill20231212/notation/ILL20231216.ly:107:11:12">
<g transform="translate(86.0000, 16.4037)">
<path stroke-width="0.0978" stroke-linejoin="round" stroke-linecap="round" stroke="currentColor" fill="currentColor" d="M1.9101 0.4717C3.4159 1.4808 19.2942 1.4808 20.8000 0.4717L20.8000 0.4717C19.2942 1.3341 3.4159 1.3341 1.9101 0.4717z"/>
</g>
</a>
<a style="color:inherit;" xlink:href="textedit://C:/Users/jwloy/Documents/GitHub/ill20231216/public/pieces/ill20231212/notation/ILL20231216.ly:102:10:11">
<g transform="translate(67.6773, 4.0287)">
<polygon stroke-linejoin="round" stroke-linecap="round" stroke-width="0.0800" fill="currentColor" stroke="currentColor" points="7.3503 -0.2768 7.3503 0.2768 0.0400 0.2768 0.0400 -0.2768"/>
</g>
<g transform="translate(67.6773, 5.0808)">
<polygon stroke-linejoin="round" stroke-linecap="round" stroke-width="0.0800" fill="currentColor" stroke="currentColor" points="7.3503 -0.2768 7.3503 0.2768 0.0400 0.2768 0.0400 -0.2768"/>
</g>
<g transform="translate(67.6773, 6.1329)">
<polygon stroke-linejoin="round" stroke-linecap="round" stroke-width="0.0800" fill="currentColor" stroke="currentColor" points="7.3503 -0.2768 7.3503 0.2768 0.0400 0.2768 0.0400 -0.2768"/>
</g>
</a>
<g transform="translate(316.9205, 16.4037)">
<rect x="-0.0795" y="-12.9443" width="0.1590" height="10.3708" ry="0.0400" fill="currentColor"/>
</g>
<g transform="translate(338.0795, 16.4037)">
<rect x="-0.0795" y="-3.8674" width="0.1590" height="11.2924" ry="0.0400" fill="currentColor"/>
</g>
<a style="color:inherit;" xlink:href="textedit://C:/Users/jwloy/Documents/GitHub/ill20231216/public/pieces/ill20231212/notation/ILL20231216.ly:128:148:149">
<g transform="translate(315.3048, 13.1037)">
<path transform="scale(0.0026, -0.0026)" d="M204 141c63 0 120 -35 120 -103c0 -70 -50 -119 -97 -147c-33 -20 -70 -32 -108 -32c-63 0 -119 35 -119 103c0 70 49 119 96 147c33 20 70 32 108 32z" fill="currentColor"/>
</g>
</a>
<a style="color:inherit;" xlink:href="textedit://C:/Users/jwloy/Documents/GitHub/ill20231216/public/pieces/ill20231212/notation/ILL20231216.ly:128:152:153">
<g transform="translate(315.3048, 14.7537)">
<path transform="scale(0.0026, -0.0026)" d="M204 141c63 0 120 -35 120 -103c0 -70 -50 -119 -97 -147c-33 -20 -70 -32 -108 -32c-63 0 -119 35 -119 103c0 70 49 119 96 147c33 20 70 32 108 32z" fill="currentColor"/>
</g>
</a>
<g transform="translate(316.0729, 16.4037)">
<rect x="-0.0795" y="-12.9443" width="0.1590" height="11.1958" ry="0.0400" fill="currentColor"/>
</g>
<a style="color:inherit;" xlink:href="textedit://C:/Users/jwloy/Documents/GitHub/ill20231216/public/pieces/ill20231212/notation/ILL20231216.ly:128:157:158">
<g transform="translate(316.1524, 13.9287)">
<path transform="scale(0.0026, -0.0026)" d="M204 141c63 0 120 -35 120 -103c0 -70 -50 -119 -97 -147c-33 -20 -70 -32 -108 -32c-63 0 -119 35 -119 103c0 70 49 119 96 147c33 20 70 32 108 32z" fill="currentColor"/>
</g>
</a>
<a style="color:inherit;" xlink:href="textedit://C:/Users/jwloy/Documents/GitHub/ill20231216/public/pieces/ill20231212/notation/ILL20231216.ly:128:71:72">
<g transform="translate(311.0669, 10.6287)">
<path transform="scale(0.0026, -0.0026)" d="M204 141c63 0 120 -35 120 -103c0 -70 -50 -119 -97 -147c-33 -20 -70 -32 -108 -32c-63 0 -119 35 -119 103c0 70 49 119 96 147c33 20 70 32 108 32z" fill="currentColor"/>
</g>
</a>
<a style="color:inherit;" xlink:href="textedit://C:/Users/jwloy/Documents/GitHub/ill20231216/public/pieces/ill20231212/notation/ILL20231216.ly:149:8:9">
<g transform="translate(338.0000, 12.2787)">
<path transform="scale(0.0052, -0.0052)" d="M222 135c53 0 104 -27 104 -86c0 -71 -56 -120 -103 -148c-36 -22 -76 -36 -118 -36c-53 0 -105 27 -105 86c0 71 57 120 104 148c36 22 76 36 118 36z" fill="currentColor"/>
</g>
</a>
<a style="color:inherit;" xlink:href="textedit://C:/Users/jwloy/Documents/GitHub/ill20231216/public/pieces/ill20231212/notation/ILL20231216.ly:132:8:9">
<g transform="translate(317.0000, 13.9287)">
<path transform="scale(0.0052, -0.0052)" d="M222 135c53 0 104 -27 104 -86c0 -71 -56 -120 -103 -148c-36 -22 -76 -36 -118 -36c-53 0 -105 27 -105 86c0 71 57 120 104 148c36 22 76 36 118 36z" fill="currentColor"/>
</g>
</a>
<a style="color:inherit;" xlink:href="textedit://C:/Users/jwloy/Documents/GitHub/ill20231216/public/pieces/ill20231212/notation/ILL20231216.ly:132:13:14">
<g transform="translate(317.8550, 12.2787)">
<path transform="scale(0.0052, -0.0052)" d="M-114 0c-8 0 -13 8 -10 15l114 254c2 4 6 6 10 6s8 -2 10 -6l114 -254c3 -7 -2 -15 -10 -15h-68c-4 0 -7 2 -9 6l-71 156l-70 -156c-2 -4 -6 -6 -10 -6z" fill="currentColor"/>
</g>
</a>
<g transform="translate(317.0795, 16.4037)">
<rect x="-0.0795" y="-2.2174" width="0.1590" height="11.2924" ry="0.0400" fill="currentColor"/>
</g>
<a style="color:inherit;" xlink:href="textedit://C:/Users/jwloy/Documents/GitHub/ill20231216/public/pieces/ill20231212/notation/ILL20231216.ly:124:19:20">
<g transform="translate(296.0000, 16.4037)">
<path transform="scale(0.0066, -0.0066)" d="M-23 -113c0 26 10 40 36 40c34 0 85 -15 130 -37l-137 164c-7 8 -10 17 -10 25c0 33 49 64 86 96c26 22 39 54 39 85c0 24 -8 47 -24 67l-39 46c-2 3 -3 6 -3 9c0 7 7 14 14 14c3 0 7 -1 10 -5l152 -182c7 -8 10 -17 10 -25c0 -33 -49 -64 -86 -96
c-26 -22 -39 -54 -39 -85c0 -24 8 -47 24 -67l87 -104c2 -3 3 -5 3 -8c0 -7 -7 -14 -14 -14c-3 0 -7 1 -10 5c-19 22 -66 43 -102 43c-40 0 -52 -29 -52 -70c0 -35 11 -75 28 -96c6 -7 -4 -16 -10 -9c-46 55 -93 150 -93 204z" fill="currentColor"/>
</g>
</a>
<a style="color:inherit;" xlink:href="textedit://C:/Users/jwloy/Documents/GitHub/ill20231216/public/pieces/ill20231212/notation/ILL20231216.ly:128:12:13">
<g transform="translate(307.6766, 13.9287)">
<path transform="scale(0.0026, -0.0026)" d="M204 141c63 0 120 -35 120 -103c0 -70 -50 -119 -97 -147c-33 -20 -70 -32 -108 -32c-63 0 -119 35 -119 103c0 70 49 119 96 147c33 20 70 32 108 32z" fill="currentColor"/>
</g>
</a>
<g transform="translate(308.4447, 16.4037)">
<rect x="-0.0795" y="-12.9443" width="0.1590" height="10.3708" ry="0.0400" fill="currentColor"/>
</g>
<a style="color:inherit;" xlink:href="textedit://C:/Users/jwloy/Documents/GitHub/ill20231216/public/pieces/ill20231212/notation/ILL20231216.ly:124:17:18">
<g transform="translate(275.0000, 16.4037)">
<path transform="scale(0.0066, -0.0066)" d="M-23 -113c0 26 10 40 36 40c34 0 85 -15 130 -37l-137 164c-7 8 -10 17 -10 25c0 33 49 64 86 96c26 22 39 54 39 85c0 24 -8 47 -24 67l-39 46c-2 3 -3 6 -3 9c0 7 7 14 14 14c3 0 7 -1 10 -5l152 -182c7 -8 10 -17 10 -25c0 -33 -49 -64 -86 -96
c-26 -22 -39 -54 -39 -85c0 -24 8 -47 24 -67l87 -104c2 -3 3 -5 3 -8c0 -7 -7 -14 -14 -14c-3 0 -7 1 -10 5c-19 22 -66 43 -102 43c-40 0 -52 -29 -52 -70c0 -35 11 -75 28 -96c6 -7 -4 -16 -10 -9c-46 55 -93 150 -93 204z" fill="currentColor"/>
</g>
</a>
<a style="color:inherit;" xlink:href="textedit://C:/Users/jwloy/Documents/GitHub/ill20231216/public/pieces/ill20231212/notation/ILL20231216.ly:128:53:54">
<g transform="translate(310.2194, 11.4537)">
<path transform="scale(0.0026, -0.0026)" d="M204 141c63 0 120 -35 120 -103c0 -70 -50 -119 -97 -147c-33 -20 -70 -32 -108 -32c-63 0 -119 35 -119 103c0 70 49 119 96 147c33 20 70 32 108 32z" fill="currentColor"/>
</g>
</a>
<a style="color:inherit;" xlink:href="textedit://C:/Users/jwloy/Documents/GitHub/ill20231216/public/pieces/ill20231212/notation/ILL20231216.ly:128:36:37">
<g transform="translate(309.3718, 15.5787)">
<path transform="scale(0.0026, -0.0026)" d="M204 141c63 0 120 -35 120 -103c0 -70 -50 -119 -97 -147c-33 -20 -70 -32 -108 -32c-63 0 -119 35 -119 103c0 70 49 119 96 147c33 20 70 32 108 32z" fill="currentColor"/>
</g>
</a>
<g transform="translate(310.1399, 16.4037)">
<rect x="-0.0795" y="-12.9443" width="0.1590" height="12.0208" ry="0.0400" fill="currentColor"/>
</g>
<a style="color:inherit;" xlink:href="textedit://C:/Users/jwloy/Documents/GitHub/ill20231216/public/pieces/ill20231212/notation/ILL20231216.ly:128:42:43">
<g transform="translate(310.2194, 16.4037)">
<path transform="scale(0.0026, -0.0026)" d="M204 141c63 0 120 -35 120 -103c0 -70 -50 -119 -97 -147c-33 -20 -70 -32 -108 -32c-63 0 -119 35 -119 103c0 70 49 119 96 147c33 20 70 32 108 32z" fill="currentColor"/>
</g>
</a>
<a style="color:inherit;" xlink:href="textedit://C:/Users/jwloy/Documents/GitHub/ill20231216/public/pieces/ill20231212/notation/ILL20231216.ly:128:45:46">
<g transform="translate(310.2194, 14.7537)">
<path transform="scale(0.0026, -0.0026)" d="M204 141c63 0 120 -35 120 -103c0 -70 -50 -119 -97 -147c-33 -20 -70 -32 -108 -32c-63 0 -119 35 -119 103c0 70 49 119 96 147c33 20 70 32 108 32z" fill="currentColor"/>
</g>
</a>
<a style="color:inherit;" xlink:href="textedit://C:/Users/jwloy/Documents/GitHub/ill20231216/public/pieces/ill20231212/notation/ILL20231216.ly:128:49:50">
<g transform="translate(310.2194, 13.1037)">
<path transform="scale(0.0026, -0.0026)" d="M204 141c63 0 120 -35 120 -103c0 -70 -50 -119 -97 -147c-33 -20 -70 -32 -108 -32c-63 0 -119 35 -119 103c0 70 49 119 96 147c33 20 70 32 108 32z" fill="currentColor"/>
</g>
</a>
<a style="color:inherit;" xlink:href="textedit://C:/Users/jwloy/Documents/GitHub/ill20231216/public/pieces/ill20231212/notation/ILL20231216.ly:128:32:33">
<g transform="translate(309.3718, 12.2787)">
<path transform="scale(0.0026, -0.0026)" d="M204 141c63 0 120 -35 120 -103c0 -70 -50 -119 -97 -147c-33 -20 -70 -32 -108 -32c-63 0 -119 35 -119 103c0 70 49 119 96 147c33 20 70 32 108 32z" fill="currentColor"/>
</g>
</a>
<g transform="translate(310.9874, 16.4037)">
<rect x="-0.0795" y="-12.9443" width="0.1590" height="12.8458" ry="0.0400" fill="currentColor"/>
</g>
<a style="color:inherit;" xlink:href="textedit://C:/Users/jwloy/Documents/GitHub/ill20231216/public/pieces/ill20231212/notation/ILL20231216.ly:128:60:61">
<g transform="translate(311.0669, 17.2287)">
<path transform="scale(0.0026, -0.0026)" d="M204 141c63 0 120 -35 120 -103c0 -70 -50 -119 -97 -147c-33 -20 -70 -32 -108 -32c-63 0 -119 35 -119 103c0 70 49 119 96 147c33 20 70 32 108 32z" fill="currentColor"/>
</g>
</a>
<a style="color:inherit;" xlink:href="textedit://C:/Users/jwloy/Documents/GitHub/ill20231216/public/pieces/ill20231212/notation/ILL20231216.ly:128:63:64">
<g transform="translate(311.0669, 15.5787)">
<path transform="scale(0.0026, -0.0026)" d="M204 141c63 0 120 -35 120 -103c0 -70 -50 -119 -97 -147c-33 -20 -70 -32 -108 -32c-63 0 -119 35 -119 103c0 70 49 119 96 147c33 20 70 32 108 32z" fill="currentColor"/>
</g>
</a>
<a style="color:inherit;" xlink:href="textedit://C:/Users/jwloy/Documents/GitHub/ill20231216/public/pieces/ill20231212/notation/ILL20231216.ly:128:67:68">
<g transform="translate(311.0669, 12.2787)">
<path transform="scale(0.0026, -0.0026)" d="M204 141c63 0 120 -35 120 -103c0 -70 -50 -119 -97 -147c-33 -20 -70 -32 -108 -32c-63 0 -119 35 -119 103c0 70 49 119 96 147c33 20 70 32 108 32z" fill="currentColor"/>
</g>
</a>
<a style="color:inherit;" xlink:href="textedit://C:/Users/jwloy/Documents/GitHub/ill20231216/public/pieces/ill20231212/notation/ILL20231216.ly:128:22:23">
<g transform="translate(308.5242, 13.1037)">
<path transform="scale(0.0026, -0.0026)" d="M204 141c63 0 120 -35 120 -103c0 -70 -50 -119 -97 -147c-33 -20 -70 -32 -108 -32c-63 0 -119 35 -119 103c0 70 49 119 96 147c33 20 70 32 108 32z" fill="currentColor"/>
</g>
</a>
<a style="color:inherit;" xlink:href="textedit://C:/Users/jwloy/Documents/GitHub/ill20231216/public/pieces/ill20231212/notation/ILL20231216.ly:128:26:27">
<g transform="translate(308.5242, 14.7537)">
<path transform="scale(0.0026, -0.0026)" d="M204 141c63 0 120 -35 120 -103c0 -70 -50 -119 -97 -147c-33 -20 -70 -32 -108 -32c-63 0 -119 35 -119 103c0 70 49 119 96 147c33 20 70 32 108 32z" fill="currentColor"/>
</g>
</a>
<g transform="translate(309.2923, 16.4037)">
<rect x="-0.0795" y="-12.9443" width="0.1590" height="11.1958" ry="0.0400" fill="currentColor"/>
</g>
<a style="color:inherit;" xlink:href="textedit://C:/Users/jwloy/Documents/GitHub/ill20231216/public/pieces/ill20231212/notation/ILL20231216.ly:102:22:23">
<g transform="translate(67.9863, 13.1037)">
<path transform="scale(0.0026, -0.0026)" d="M204 141c63 0 120 -35 120 -103c0 -70 -50 -119 -97 -147c-33 -20 -70 -32 -108 -32c-63 0 -119 35 -119 103c0 70 49 119 96 147c33 20 70 32 108 32z" fill="currentColor"/>
</g>
</a>
<a style="color:inherit;" xlink:href="textedit://C:/Users/jwloy/Documents/GitHub/ill20231216/public/pieces/ill20231212/notation/ILL20231216.ly:102:26:27">
<g transform="translate(67.9863, 14.7537)">
<path transform="scale(0.0026, -0.0026)" d="M204 141c63 0 120 -35 120 -103c0 -70 -50 -119 -97 -147c-33 -20 -70 -32 -108 -32c-63 0 -119 35 -119 103c0 70 49 119 96 147c33 20 70 32 108 32z" fill="currentColor"/>
</g>
</a>
<g transform="translate(68.7544, 16.4037)">
<rect x="-0.0795" y="-12.3750" width="0.1590" height="10.6265" ry="0.0400" fill="currentColor"/>
</g>
<a style="color:inherit;" xlink:href="textedit://C:/Users/jwloy/Documents/GitHub/ill20231216/public/pieces/ill20231212/notation/ILL20231216.ly:102:32:33">
<g transform="translate(69.1000, 12.2787)">
<path transform="scale(0.0026, -0.0026)" d="M204 141c63 0 120 -35 120 -103c0 -70 -50 -119 -97 -147c-33 -20 -70 -32 -108 -32c-63 0 -119 35 -119 103c0 70 49 119 96 147c33 20 70 32 108 32z" fill="currentColor"/>
</g>
</a>
<a style="color:inherit;" xlink:href="textedit://C:/Users/jwloy/Documents/GitHub/ill20231216/public/pieces/ill20231212/notation/ILL20231216.ly:102:36:37">
<g transform="translate(69.1000, 15.5787)">
<path transform="scale(0.0026, -0.0026)" d="M204 141c63 0 120 -35 120 -103c0 -70 -50 -119 -97 -147c-33 -20 -70 -32 -108 -32c-63 0 -119 35 -119 103c0 70 49 119 96 147c33 20 70 32 108 32z" fill="currentColor"/>
</g>
</a>
<g transform="translate(69.8681, 16.4037)">
<rect x="-0.0795" y="-12.3750" width="0.1590" height="11.4515" ry="0.0400" fill="currentColor"/>
</g>
<g transform="translate(38.8350, 16.4037)">
<rect x="-0.0795" y="-12.3750" width="0.1590" height="9.8015" ry="0.0400" fill="currentColor"/>
</g>
<a style="color:inherit;" xlink:href="textedit://C:/Users/jwloy/Documents/GitHub/ill20231216/public/pieces/ill20231212/notation/ILL20231216.ly:102:12:13">
<g transform="translate(66.9887, 13.9287)">
<path transform="scale(0.0026, -0.0026)" d="M204 141c63 0 120 -35 120 -103c0 -70 -50 -119 -97 -147c-33 -20 -70 -32 -108 -32c-63 0 -119 35 -119 103c0 70 49 119 96 147c33 20 70 32 108 32z" fill="currentColor"/>
</g>
</a>
<g transform="translate(67.7568, 16.4037)">
<rect x="-0.0795" y="-12.3750" width="0.1590" height="9.8015" ry="0.0400" fill="currentColor"/>
</g>
<a style="color:inherit;" xlink:href="textedit://C:/Users/jwloy/Documents/GitHub/ill20231216/public/pieces/ill20231212/notation/ILL20231216.ly:102:76:77">
<g transform="translate(74.2200, 13.9287)">
<path transform="scale(0.0026, -0.0026)" d="M204 141c63 0 120 -35 120 -103c0 -70 -50 -119 -97 -147c-33 -20 -70 -32 -108 -32c-63 0 -119 35 -119 103c0 70 49 119 96 147c33 20 70 32 108 32z" fill="currentColor"/>
</g>
</a>
<a style="color:inherit;" xlink:href="textedit://C:/Users/jwloy/Documents/GitHub/ill20231216/public/pieces/ill20231212/notation/ILL20231216.ly:102:67:68">
<g transform="translate(72.9400, 13.1037)">
<path transform="scale(0.0026, -0.0026)" d="M204 141c63 0 120 -35 120 -103c0 -70 -50 -119 -97 -147c-33 -20 -70 -32 -108 -32c-63 0 -119 35 -119 103c0 70 49 119 96 147c33 20 70 32 108 32z" fill="currentColor"/>
</g>
</a>
<a style="color:inherit;" xlink:href="textedit://C:/Users/jwloy/Documents/GitHub/ill20231216/public/pieces/ill20231212/notation/ILL20231216.ly:102:71:72">
<g transform="translate(72.9400, 14.7537)">
<path transform="scale(0.0026, -0.0026)" d="M204 141c63 0 120 -35 120 -103c0 -70 -50 -119 -97 -147c-33 -20 -70 -32 -108 -32c-63 0 -119 35 -119 103c0 70 49 119 96 147c33 20 70 32 108 32z" fill="currentColor"/>
</g>
</a>
<g transform="translate(73.7081, 16.4037)">
<rect x="-0.0795" y="-12.3750" width="0.1590" height="10.6265" ry="0.0400" fill="currentColor"/>
</g>
<g transform="translate(74.9881, 16.4037)">
<rect x="-0.0795" y="-12.3750" width="0.1590" height="9.8015" ry="0.0400" fill="currentColor"/>
</g>
<a style="color:inherit;" xlink:href="textedit://C:/Users/jwloy/Documents/GitHub/ill20231216/public/pieces/ill20231212/notation/ILL20231216.ly:119:31:32">
<g transform="translate(175.8504, 13.9287)">
<path transform="scale(0.0026, -0.0026)" d="M204 141c63 0 120 -35 120 -103c0 -70 -50 -119 -97 -147c-33 -20 -70 -32 -108 -32c-63 0 -119 35 -119 103c0 70 49 119 96 147c33 20 70 32 108 32z" fill="currentColor"/>
</g>
</a>
<a style="color:inherit;" xlink:href="textedit://C:/Users/jwloy/Documents/GitHub/ill20231216/public/pieces/ill20231212/notation/ILL20231216.ly:102:42:43">
<g transform="translate(70.3800, 11.4537)">
<path transform="scale(0.0026, -0.0026)" d="M204 141c63 0 120 -35 120 -103c0 -70 -50 -119 -97 -147c-33 -20 -70 -32 -108 -32c-63 0 -119 35 -119 103c0 70 49 119 96 147c33 20 70 32 108 32z" fill="currentColor"/>
</g>
</a>
<a style="color:inherit;" xlink:href="textedit://C:/Users/jwloy/Documents/GitHub/ill20231216/public/pieces/ill20231212/notation/ILL20231216.ly:102:46:47">
<g transform="translate(70.3800, 13.9287)">
<path transform="scale(0.0026, -0.0026)" d="M204 141c63 0 120 -35 120 -103c0 -70 -50 -119 -97 -147c-33 -20 -70 -32 -108 -32c-63 0 -119 35 -119 103c0 70 49 119 96 147c33 20 70 32 108 32z" fill="currentColor"/>
</g>
</a>
<a style="color:inherit;" xlink:href="textedit://C:/Users/jwloy/Documents/GitHub/ill20231216/public/pieces/ill20231212/notation/ILL20231216.ly:102:50:51">
<g transform="translate(70.3800, 16.4037)">
<path transform="scale(0.0026, -0.0026)" d="M204 141c63 0 120 -35 120 -103c0 -70 -50 -119 -97 -147c-33 -20 -70 -32 -108 -32c-63 0 -119 35 -119 103c0 70 49 119 96 147c33 20 70 32 108 32z" fill="currentColor"/>
</g>
</a>
<g transform="translate(71.1481, 16.4037)">
<rect x="-0.0795" y="-12.3750" width="0.1590" height="12.2765" ry="0.0400" fill="currentColor"/>
</g>
<a style="color:inherit;" xlink:href="textedit://C:/Users/jwloy/Documents/GitHub/ill20231216/public/pieces/ill20231212/notation/ILL20231216.ly:88:12:13">
<g transform="translate(38.0669, 13.9287)">
<path transform="scale(0.0026, -0.0026)" d="M204 141c63 0 120 -35 120 -103c0 -70 -50 -119 -97 -147c-33 -20 -70 -32 -108 -32c-63 0 -119 35 -119 103c0 70 49 119 96 147c33 20 70 32 108 32z" fill="currentColor"/>
</g>
</a>
<a style="color:inherit;" xlink:href="textedit://C:/Users/jwloy/Documents/GitHub/ill20231216/public/pieces/ill20231212/notation/ILL20231216.ly:102:56:57">
<g transform="translate(71.6600, 12.2787)">
<path transform="scale(0.0026, -0.0026)" d="M204 141c63 0 120 -35 120 -103c0 -70 -50 -119 -97 -147c-33 -20 -70 -32 -108 -32c-63 0 -119 35 -119 103c0 70 49 119 96 147c33 20 70 32 108 32z" fill="currentColor"/>
</g>
</a>
<a style="color:inherit;" xlink:href="textedit://C:/Users/jwloy/Documents/GitHub/ill20231216/public/pieces/ill20231212/notation/ILL20231216.ly:102:60:61">
<g transform="translate(71.6600, 15.5787)">
<path transform="scale(0.0026, -0.0026)" d="M204 141c63 0 120 -35 120 -103c0 -70 -50 -119 -97 -147c-33 -20 -70 -32 -108 -32c-63 0 -119 35 -119 103c0 70 49 119 96 147c33 20 70 32 108 32z" fill="currentColor"/>
</g>
</a>
<g transform="translate(72.4281, 16.4037)">
<rect x="-0.0795" y="-12.3750" width="0.1590" height="11.4515" ry="0.0400" fill="currentColor"/>
</g>
<a style="color:inherit;" xlink:href="textedit://C:/Users/jwloy/Documents/GitHub/ill20231216/public/pieces/ill20231212/notation/ILL20231216.ly:88:26:27">
<g transform="translate(38.9145, 14.7537)">
<path transform="scale(0.0026, -0.0026)" d="M204 141c63 0 120 -35 120 -103c0 -70 -50 -119 -97 -147c-33 -20 -70 -32 -108 -32c-63 0 -119 35 -119 103c0 70 49 119 96 147c33 20 70 32 108 32z" fill="currentColor"/>
</g>
</a>
<a style="color:inherit;" xlink:href="textedit://C:/Users/jwloy/Documents/GitHub/ill20231216/public/pieces/ill20231212/notation/ILL20231216.ly:88:56:57">
<g transform="translate(41.4573, 12.2787)">
<path transform="scale(0.0026, -0.0026)" d="M204 141c63 0 120 -35 120 -103c0 -70 -50 -119 -97 -147c-33 -20 -70 -32 -108 -32c-63 0 -119 35 -119 103c0 70 49 119 96 147c33 20 70 32 108 32z" fill="currentColor"/>
</g>
</a>
<a style="color:inherit;" xlink:href="textedit://C:/Users/jwloy/Documents/GitHub/ill20231216/public/pieces/ill20231212/notation/ILL20231216.ly:88:60:61">
<g transform="translate(41.4573, 15.5787)">
<path transform="scale(0.0026, -0.0026)" d="M204 141c63 0 120 -35 120 -103c0 -70 -50 -119 -97 -147c-33 -20 -70 -32 -108 -32c-63 0 -119 35 -119 103c0 70 49 119 96 147c33 20 70 32 108 32z" fill="currentColor"/>
</g>
</a>
<g transform="translate(42.2254, 16.4037)">
<rect x="-0.0795" y="-12.3750" width="0.1590" height="11.4515" ry="0.0400" fill="currentColor"/>
</g>
<a style="color:inherit;" xlink:href="textedit://C:/Users/jwloy/Documents/GitHub/ill20231216/public/pieces/ill20231212/notation/ILL20231216.ly:88:22:23">
<g transform="translate(38.9145, 13.1037)">
<path transform="scale(0.0026, -0.0026)" d="M204 141c63 0 120 -35 120 -103c0 -70 -50 -119 -97 -147c-33 -20 -70 -32 -108 -32c-63 0 -119 35 -119 103c0 70 49 119 96 147c33 20 70 32 108 32z" fill="currentColor"/>
</g>
</a>
<a style="color:inherit;" xlink:href="textedit://C:/Users/jwloy/Documents/GitHub/ill20231216/public/pieces/ill20231212/notation/ILL20231216.ly:88:67:68">
<g transform="translate(42.3048, 13.1037)">
<path transform="scale(0.0026, -0.0026)" d="M204 141c63 0 120 -35 120 -103c0 -70 -50 -119 -97 -147c-33 -20 -70 -32 -108 -32c-63 0 -119 35 -119 103c0 70 49 119 96 147c33 20 70 32 108 32z" fill="currentColor"/>
</g>
</a>
<a style="color:inherit;" xlink:href="textedit://C:/Users/jwloy/Documents/GitHub/ill20231216/public/pieces/ill20231212/notation/ILL20231216.ly:88:71:72">
<g transform="translate(42.3048, 14.7537)">
<path transform="scale(0.0026, -0.0026)" d="M204 141c63 0 120 -35 120 -103c0 -70 -50 -119 -97 -147c-33 -20 -70 -32 -108 -32c-63 0 -119 35 -119 103c0 70 49 119 96 147c33 20 70 32 108 32z" fill="currentColor"/>
</g>
</a>
<g transform="translate(43.0729, 16.4037)">
<rect x="-0.0795" y="-12.3750" width="0.1590" height="10.6265" ry="0.0400" fill="currentColor"/>
</g>
<a style="color:inherit;" xlink:href="textedit://C:/Users/jwloy/Documents/GitHub/ill20231216/public/pieces/ill20231212/notation/ILL20231216.ly:88:32:33">
<g transform="translate(39.7621, 12.2787)">
<path transform="scale(0.0026, -0.0026)" d="M204 141c63 0 120 -35 120 -103c0 -70 -50 -119 -97 -147c-33 -20 -70 -32 -108 -32c-63 0 -119 35 -119 103c0 70 49 119 96 147c33 20 70 32 108 32z" fill="currentColor"/>
</g>
</a>
<a style="color:inherit;" xlink:href="textedit://C:/Users/jwloy/Documents/GitHub/ill20231216/public/pieces/ill20231212/notation/ILL20231216.ly:88:36:37">
<g transform="translate(39.7621, 15.5787)">
<path transform="scale(0.0026, -0.0026)" d="M204 141c63 0 120 -35 120 -103c0 -70 -50 -119 -97 -147c-33 -20 -70 -32 -108 -32c-63 0 -119 35 -119 103c0 70 49 119 96 147c33 20 70 32 108 32z" fill="currentColor"/>
</g>
</a>
<g transform="translate(40.5302, 16.4037)">
<rect x="-0.0795" y="-12.3750" width="0.1590" height="11.4515" ry="0.0400" fill="currentColor"/>
</g>
<g transform="translate(39.6826, 16.4037)">
<rect x="-0.0795" y="-12.3750" width="0.1590" height="10.6265" ry="0.0400" fill="currentColor"/>
</g>
<a style="color:inherit;" xlink:href="textedit://C:/Users/jwloy/Documents/GitHub/ill20231216/public/pieces/ill20231212/notation/ILL20231216.ly:88:42:43">
<g transform="translate(40.6097, 11.4537)">
<path transform="scale(0.0026, -0.0026)" d="M204 141c63 0 120 -35 120 -103c0 -70 -50 -119 -97 -147c-33 -20 -70 -32 -108 -32c-63 0 -119 35 -119 103c0 70 49 119 96 147c33 20 70 32 108 32z" fill="currentColor"/>
</g>
</a>
<a style="color:inherit;" xlink:href="textedit://C:/Users/jwloy/Documents/GitHub/ill20231216/public/pieces/ill20231212/notation/ILL20231216.ly:88:46:47">
<g transform="translate(40.6097, 13.9287)">
<path transform="scale(0.0026, -0.0026)" d="M204 141c63 0 120 -35 120 -103c0 -70 -50 -119 -97 -147c-33 -20 -70 -32 -108 -32c-63 0 -119 35 -119 103c0 70 49 119 96 147c33 20 70 32 108 32z" fill="currentColor"/>
</g>
</a>
<a style="color:inherit;" xlink:href="textedit://C:/Users/jwloy/Documents/GitHub/ill20231216/public/pieces/ill20231212/notation/ILL20231216.ly:88:50:51">
<g transform="translate(40.6097, 16.4037)">
<path transform="scale(0.0026, -0.0026)" d="M204 141c63 0 120 -35 120 -103c0 -70 -50 -119 -97 -147c-33 -20 -70 -32 -108 -32c-63 0 -119 35 -119 103c0 70 49 119 96 147c33 20 70 32 108 32z" fill="currentColor"/>
</g>
</a>
<g transform="translate(41.3778, 16.4037)">
<rect x="-0.0795" y="-12.3750" width="0.1590" height="12.2765" ry="0.0400" fill="currentColor"/>
</g>
<g transform="translate(44.1590, 25.4387)">
<path transform="scale(0.0066, -0.0066)" d="M0 0h-14v250h14v-250zM0 0v250c98 58 228 147 228 259c0 57 -15 112 -40 164c-3 15 9 25 21 25c7 0 14 -3 18 -10c25 -56 40 -117 40 -179c0 -203 -267 -306 -267 -509z" fill="currentColor"/>
</g>
<a style="color:inherit;" xlink:href="textedit://C:/Users/jwloy/Documents/GitHub/ill20231216/public/pieces/ill20231212/notation/ILL20231216.ly:99:8:9">
<g transform="translate(65.0000, 13.9287)">
<path transform="scale(0.0052, -0.0052)" d="M222 135c53 0 104 -27 104 -86c0 -71 -56 -120 -103 -148c-36 -22 -76 -36 -118 -36c-53 0 -105 27 -105 86c0 71 57 120 104 148c36 22 76 36 118 36z" fill="currentColor"/>
</g>
</a>
<a style="color:inherit;" xlink:href="textedit://C:/Users/jwloy/Documents/GitHub/ill20231216/public/pieces/ill20231212/notation/ILL20231216.ly:99:13:14">
<g transform="translate(65.8550, 12.2787)">
<path transform="scale(0.0052, -0.0052)" d="M-114 0c-8 0 -13 8 -10 15l114 254c2 4 6 6 10 6s8 -2 10 -6l114 -254c3 -7 -2 -15 -10 -15h-68c-4 0 -7 2 -9 6l-71 156l-70 -156c-2 -4 -6 -6 -10 -6z" fill="currentColor"/>
</g>
</a>
<g transform="translate(65.0795, 16.4037)">
<rect x="-0.0795" y="-2.2174" width="0.1590" height="11.2924" ry="0.0400" fill="currentColor"/>
</g>
<g transform="translate(65.1590, 25.4387)">
<path transform="scale(0.0066, -0.0066)" d="M0 0h-14v250h14v-250zM0 0v250c98 58 228 147 228 259c0 57 -15 112 -40 164c-3 15 9 25 21 25c7 0 14 -3 18 -10c25 -56 40 -117 40 -179c0 -203 -267 -306 -267 -509z" fill="currentColor"/>
</g>
<a style="color:inherit;" xlink:href="textedit://C:/Users/jwloy/Documents/GitHub/ill20231216/public/pieces/ill20231212/notation/ILL20231216.ly:88:76:77">
<g transform="translate(43.1524, 13.9287)">
<path transform="scale(0.0026, -0.0026)" d="M204 141c63 0 120 -35 120 -103c0 -70 -50 -119 -97 -147c-33 -20 -70 -32 -108 -32c-63 0 -119 35 -119 103c0 70 49 119 96 147c33 20 70 32 108 32z" fill="currentColor"/>
</g>
</a>
<g transform="translate(43.9205, 16.4037)">
<rect x="-0.0795" y="-12.3750" width="0.1590" height="9.8015" ry="0.0400" fill="currentColor"/>
</g>
<a style="color:inherit;" xlink:href="textedit://C:/Users/jwloy/Documents/GitHub/ill20231216/public/pieces/ill20231212/notation/ILL20231216.ly:92:8:9">
<g transform="translate(44.0000, 13.9287)">
<path transform="scale(0.0052, -0.0052)" d="M222 135c53 0 104 -27 104 -86c0 -71 -56 -120 -103 -148c-36 -22 -76 -36 -118 -36c-53 0 -105 27 -105 86c0 71 57 120 104 148c36 22 76 36 118 36z" fill="currentColor"/>
</g>
</a>
<a style="color:inherit;" xlink:href="textedit://C:/Users/jwloy/Documents/GitHub/ill20231216/public/pieces/ill20231212/notation/ILL20231216.ly:92:13:14">
<g transform="translate(44.8550, 12.2787)">
<path transform="scale(0.0052, -0.0052)" d="M-114 0c-8 0 -13 8 -10 15l114 254c2 4 6 6 10 6s8 -2 10 -6l114 -254c3 -7 -2 -15 -10 -15h-68c-4 0 -7 2 -9 6l-71 156l-70 -156c-2 -4 -6 -6 -10 -6z" fill="currentColor"/>
</g>
</a>
<g transform="translate(44.0795, 16.4037)">
<rect x="-0.0795" y="-2.2174" width="0.1590" height="11.2924" ry="0.0400" fill="currentColor"/>
</g>
<a style="color:inherit;" xlink:href="textedit://C:/Users/jwloy/Documents/GitHub/ill20231216/public/pieces/ill20231212/notation/ILL20231216.ly:116:13:14">
<g transform="translate(170.8550, 12.2787)">
<path transform="scale(0.0052, -0.0052)" d="M-114 0c-8 0 -13 8 -10 15l114 254c2 4 6 6 10 6s8 -2 10 -6l114 -254c3 -7 -2 -15 -10 -15h-68c-4 0 -7 2 -9 6l-71 156l-70 -156c-2 -4 -6 -6 -10 -6z" fill="currentColor"/>
</g>
</a>
<a style="color:inherit;" xlink:href="textedit://C:/Users/jwloy/Documents/GitHub/ill20231216/public/pieces/ill20231212/notation/ILL20231216.ly:116:8:9">
<g transform="translate(170.0000, 13.9287)">
<path transform="scale(0.0052, -0.0052)" d="M222 135c53 0 104 -27 104 -86c0 -71 -56 -120 -103 -148c-36 -22 -76 -36 -118 -36c-53 0 -105 27 -105 86c0 71 57 120 104 148c36 22 76 36 118 36z" fill="currentColor"/>
</g>
</a>
<g transform="translate(170.0795, 16.4037)">
<rect x="-0.0795" y="-2.2174" width="0.1590" height="11.2924" ry="0.0400" fill="currentColor"/>
</g>
<a style="color:inherit;" xlink:href="textedit://C:/Users/jwloy/Documents/GitHub/ill20231216/public/pieces/ill20231212/notation/ILL20231216.ly:112:8:9">
<g transform="translate(149.0000, 16.4037)">
<path transform="scale(0.0052, -0.0052)" d="M222 135c53 0 104 -27 104 -86c0 -71 -56 -120 -103 -148c-36 -22 -76 -36 -118 -36c-53 0 -105 27 -105 86c0 71 57 120 104 148c36 22 76 36 118 36z" fill="currentColor"/>
</g>
</a>
<a style="color:inherit;" xlink:href="textedit://C:/Users/jwloy/Documents/GitHub/ill20231216/public/pieces/ill20231212/notation/ILL20231216.ly:110:30:31">
<g transform="translate(132.2000, 16.4037)">
<path transform="scale(0.0052, -0.0052)" d="M222 135c53 0 104 -27 104 -86c0 -71 -56 -120 -103 -148c-36 -22 -76 -36 -118 -36c-53 0 -105 27 -105 86c0 71 57 120 104 148c36 22 76 36 118 36z" fill="currentColor"/>
</g>
</a>
<g transform="translate(150.6306, 16.4037)">
<rect x="-0.0795" y="-11.2750" width="0.1590" height="11.0174" ry="0.0400" fill="currentColor"/>
</g>
<a style="color:inherit;" xlink:href="textedit://C:/Users/jwloy/Documents/GitHub/ill20231216/public/pieces/ill20231212/notation/ILL20231216.ly:119:23:24">
<g transform="translate(173.8553, 13.9287)">
<path transform="scale(0.0026, -0.0026)" d="M204 141c63 0 120 -35 120 -103c0 -70 -50 -119 -97 -147c-33 -20 -70 -32 -108 -32c-63 0 -119 35 -119 103c0 70 49 119 96 147c33 20 70 32 108 32z" fill="currentColor"/>
</g>
</a>
<g transform="translate(174.6233, 16.4037)">
<rect x="-0.0795" y="-11.8057" width="0.1590" height="9.2321" ry="0.0400" fill="currentColor"/>
</g>
<a style="color:inherit;" xlink:href="textedit://C:/Users/jwloy/Documents/GitHub/ill20231216/public/pieces/ill20231212/notation/ILL20231216.ly:119:27:28">
<g transform="translate(174.8528, 13.9287)">
<path transform="scale(0.0026, -0.0026)" d="M204 141c63 0 120 -35 120 -103c0 -70 -50 -119 -97 -147c-33 -20 -70 -32 -108 -32c-63 0 -119 35 -119 103c0 70 49 119 96 147c33 20 70 32 108 32z" fill="currentColor"/>
</g>
</a>
<g transform="translate(175.6209, 16.4037)">
<rect x="-0.0795" y="-11.8057" width="0.1590" height="9.2321" ry="0.0400" fill="currentColor"/>
</g>
<a style="color:inherit;" xlink:href="textedit://C:/Users/jwloy/Documents/GitHub/ill20231216/public/pieces/ill20231212/notation/ILL20231216.ly:80:8:9">
</a>
<a style="color:inherit;" xlink:href="textedit://C:/Users/jwloy/Documents/GitHub/ill20231216/public/pieces/ill20231212/notation/ILL20231216.ly:119:12:13">
<g transform="translate(171.8601, 13.9287)">
<path transform="scale(0.0026, -0.0026)" d="M204 141c63 0 120 -35 120 -103c0 -70 -50 -119 -97 -147c-33 -20 -70 -32 -108 -32c-63 0 -119 35 -119 103c0 70 49 119 96 147c33 20 70 32 108 32z" fill="currentColor"/>
</g>
</a>
<g transform="translate(172.6282, 16.4037)">
<rect x="-0.0795" y="-11.8057" width="0.1590" height="9.2321" ry="0.0400" fill="currentColor"/>
</g>
<g transform="translate(133.8306, 16.4037)">
<rect x="-0.0795" y="-11.2750" width="0.1590" height="11.0174" ry="0.0400" fill="currentColor"/>
</g>
<a style="color:inherit;" xlink:href="textedit://C:/Users/jwloy/Documents/GitHub/ill20231216/public/pieces/ill20231212/notation/ILL20231216.ly:84:8:9">
<g transform="translate(2.0000, 16.4037)">
<path transform="scale(0.0066, -0.0066)" d="M-23 -113c0 26 10 40 36 40c34 0 85 -15 130 -37l-137 164c-7 8 -10 17 -10 25c0 33 49 64 86 96c26 22 39 54 39 85c0 24 -8 47 -24 67l-39 46c-2 3 -3 6 -3 9c0 7 7 14 14 14c3 0 7 -1 10 -5l152 -182c7 -8 10 -17 10 -25c0 -33 -49 -64 -86 -96
c-26 -22 -39 -54 -39 -85c0 -24 8 -47 24 -67l87 -104c2 -3 3 -5 3 -8c0 -7 -7 -14 -14 -14c-3 0 -7 1 -10 5c-19 22 -66 43 -102 43c-40 0 -52 -29 -52 -70c0 -35 11 -75 28 -96c6 -7 -4 -16 -10 -9c-46 55 -93 150 -93 204z" fill="currentColor"/>
</g>
</a>
<a style="color:inherit;" xlink:href="textedit://C:/Users/jwloy/Documents/GitHub/ill20231216/public/pieces/ill20231212/notation/ILL20231216.ly:119:19:20">
<g transform="translate(172.8577, 13.9287)">
<path transform="scale(0.0026, -0.0026)" d="M204 141c63 0 120 -35 120 -103c0 -70 -50 -119 -97 -147c-33 -20 -70 -32 -108 -32c-63 0 -119 35 -119 103c0 70 49 119 96 147c33 20 70 32 108 32z" fill="currentColor"/>
</g>
</a>
<g transform="translate(173.6258, 16.4037)">
<rect x="-0.0795" y="-11.8057" width="0.1590" height="9.2321" ry="0.0400" fill="currentColor"/>
</g>
<a style="color:inherit;" xlink:href="textedit://C:/Users/jwloy/Documents/GitHub/ill20231216/public/pieces/ill20231212/notation/ILL20231216.ly:110:21:22">
<g transform="translate(107.0000, 16.4037)">
<path transform="scale(0.0052, -0.0052)" d="M222 135c53 0 104 -27 104 -86c0 -71 -56 -120 -103 -148c-36 -22 -76 -36 -118 -36c-53 0 -105 27 -105 86c0 71 57 120 104 148c36 22 76 36 118 36z" fill="currentColor"/>
</g>
</a>
<g transform="translate(108.6306, 16.4037)">
<rect x="-0.0795" y="-11.3437" width="0.1590" height="11.0861" ry="0.0400" fill="currentColor"/>
</g>
<g transform="translate(108.7101, 5.0999)">
<path transform="scale(0.0066, -0.0066)" d="M0 0v-250h-14v250h14zM0 0c0 -198 207 -336 207 -534c0 -71 -16 -142 -42 -208c-4 -7 -10 -11 -17 -11c-12 0 -24 10 -21 25c26 62 41 127 41 194c0 104 -96 209 -168 284v250z" fill="currentColor"/>
</g>
<a style="color:inherit;" xlink:href="textedit://C:/Users/jwloy/Documents/GitHub/ill20231216/public/pieces/ill20231212/notation/ILL20231216.ly:107:8:9">
<g transform="translate(86.0000, 16.4037)">
<path transform="scale(0.0052, -0.0052)" d="M222 135c53 0 104 -27 104 -86c0 -71 -56 -120 -103 -148c-36 -22 -76 -36 -118 -36c-53 0 -105 27 -105 86c0 71 57 120 104 148c36 22 76 36 118 36z" fill="currentColor"/>
</g>
</a>
<g transform="translate(87.6306, 16.4037)">
<rect x="-0.0795" y="-11.2750" width="0.1590" height="11.0174" ry="0.0400" fill="currentColor"/>
</g>
<a style="color:inherit;" xlink:href="textedit://C:/Users/jwloy/Documents/GitHub/ill20231216/public/pieces/ill20231212/notation/ILL20231216.ly:110:28:29">
<g transform="translate(123.8000, 16.4037)">
<path transform="scale(0.0066, -0.0066)" d="M76 -250l116 327c-35 -12 -70 -23 -107 -23c-46 0 -87 34 -87 80c0 39 31 71 71 71c26 0 49 -16 57 -40c10 -28 6 -60 35 -60c17 0 58 54 65 70c5 11 20 10 24 0l-126 -425c-7 -6 -16 -9 -24 -9s-17 3 -24 9z" fill="currentColor"/>
</g>
</a>
<a style="color:inherit;" xlink:href="textedit://C:/Users/jwloy/Documents/GitHub/ill20231216/public/pieces/ill20231212/notation/ILL20231216.ly:110:25:26">
<g transform="translate(115.4000, 16.4037)">
<path transform="scale(0.0066, -0.0066)" d="M76 -250l116 327c-35 -12 -70 -23 -107 -23c-46 0 -87 34 -87 80c0 39 31 71 71 71c26 0 49 -16 57 -40c10 -28 6 -60 35 -60c17 0 58 54 65 70c5 11 20 10 24 0l-126 -425c-7 -6 -16 -9 -24 -9s-17 3 -24 9z" fill="currentColor"/>
</g>
</a>
<a style="color:inherit;" xlink:href="textedit://C:/Users/jwloy/Documents/GitHub/ill20231216/public/pieces/ill20231212/notation/ILL20231216.ly:84:11:12">
<g transform="translate(23.0000, 16.4037)">
<path transform="scale(0.0066, -0.0066)" d="M-23 -113c0 26 10 40 36 40c34 0 85 -15 130 -37l-137 164c-7 8 -10 17 -10 25c0 33 49 64 86 96c26 22 39 54 39 85c0 24 -8 47 -24 67l-39 46c-2 3 -3 6 -3 9c0 7 7 14 14 14c3 0 7 -1 10 -5l152 -182c7 -8 10 -17 10 -25c0 -33 -49 -64 -86 -96
c-26 -22 -39 -54 -39 -85c0 -24 8 -47 24 -67l87 -104c2 -3 3 -5 3 -8c0 -7 -7 -14 -14 -14c-3 0 -7 1 -10 5c-19 22 -66 43 -102 43c-40 0 -52 -29 -52 -70c0 -35 11 -75 28 -96c6 -7 -4 -16 -10 -9c-46 55 -93 150 -93 204z" fill="currentColor"/>
</g>
</a>
</svg>
