<svg xmlns="http://www.w3.org/2000/svg" xmlns:xlink="http://www.w3.org/1999/xlink" version="1.2" width="2150.00mm" height="100.00mm" viewBox="0 0 1223.4685 56.9055">
<style type="text/css">
<![CDATA[
tspan { white-space: pre; }
]]>
</style>
<!-- Page: 1/1 -->
<a style="color:inherit;" xlink:href="textedit://C:/Users/jwloy/Documents/GitHub/ill20231216/public/pieces/ill20231212/notation/ILL20231216.ly:112:8:9">
<g transform="translate(149.0000, 11.9349)">
<path transform="scale(0.0052, -0.0052)" d="M222 135c53 0 104 -27 104 -86c0 -71 -56 -120 -103 -148c-36 -22 -76 -36 -118 -36c-53 0 -105 27 -105 86c0 71 57 120 104 148c36 22 76 36 118 36z" fill="currentColor"/>
</g>
</a>
<g transform="translate(170.0795, 11.9349)">
<rect x="-0.0795" y="-1.2424" width="0.1590" height="6.7424" ry="0.0400" fill="currentColor"/>
</g>
<a style="color:inherit;" xlink:href="textedit://C:/Users/jwloy/Documents/GitHub/ill20231216/public/pieces/ill20231212/notation/ILL20231216.ly:116:13:14">
<g transform="translate(170.8550, 9.5292)">
<path transform="scale(0.0052, -0.0052)" d="M-114 0c-8 0 -13 8 -10 15l114 254c2 4 6 6 10 6s8 -2 10 -6l114 -254c3 -7 -2 -15 -10 -15h-68c-4 0 -7 2 -9 6l-71 156l-70 -156c-2 -4 -6 -6 -10 -6z" fill="currentColor"/>
</g>
</a>
<a style="color:inherit;" xlink:href="textedit://C:/Users/jwloy/Documents/GitHub/ill20231216/public/pieces/ill20231212/notation/ILL20231216.ly:116:8:9">
<g transform="translate(170.0000, 10.4349)">
<path transform="scale(0.0052, -0.0052)" d="M222 135c53 0 104 -27 104 -86c0 -71 -56 -120 -103 -148c-36 -22 -76 -36 -118 -36c-53 0 -105 27 -105 86c0 71 57 120 104 148c36 22 76 36 118 36z" fill="currentColor"/>
</g>
</a>
<g transform="translate(150.6306, 11.9349)">
<rect x="-0.0795" y="-6.8333" width="0.1590" height="6.5757" ry="0.0400" fill="currentColor"/>
</g>
<g transform="translate(170.1590, 17.3949)">
<path transform="scale(0.0066, -0.0066)" d="M0 0h-14v250h14v-250zM0 0v250c98 58 228 147 228 259c0 57 -15 112 -40 164c-3 15 9 25 21 25c7 0 14 -3 18 -10c25 -56 40 -117 40 -179c0 -203 -267 -306 -267 -509z" fill="currentColor"/>
</g>
<g transform="translate(133.8306, 11.9349)">
<rect x="-0.0795" y="-6.8333" width="0.1590" height="6.5757" ry="0.0400" fill="currentColor"/>
</g>
<a style="color:inherit;" xlink:href="textedit://C:/Users/jwloy/Documents/GitHub/ill20231216/public/pieces/ill20231212/notation/ILL20231216.ly:110:30:31">
<g transform="translate(132.2000, 11.9349)">
<path transform="scale(0.0052, -0.0052)" d="M222 135c53 0 104 -27 104 -86c0 -71 -56 -120 -103 -148c-36 -22 -76 -36 -118 -36c-53 0 -105 27 -105 86c0 71 57 120 104 148c36 22 76 36 118 36z" fill="currentColor"/>
</g>
</a>
<g transform="translate(172.7923, 11.9349)">
<rect x="-0.0795" y="-7.8691" width="0.1590" height="6.7706" ry="0.0400" fill="currentColor"/>
</g>
<a style="color:inherit;" xlink:href="textedit://C:/Users/jwloy/Documents/GitHub/ill20231216/public/pieces/ill20231212/notation/ILL20231216.ly:119:26:27">
<g transform="translate(172.0242, 10.9349)">
<path transform="scale(0.0026, -0.0026)" d="M204 141c63 0 120 -35 120 -103c0 -70 -50 -119 -97 -147c-33 -20 -70 -32 -108 -32c-63 0 -119 35 -119 103c0 70 49 119 96 147c33 20 70 32 108 32z" fill="currentColor"/>
</g>
</a>
<a style="color:inherit;" xlink:href="textedit://C:/Users/jwloy/Documents/GitHub/ill20231216/public/pieces/ill20231212/notation/ILL20231216.ly:119:22:23">
<g transform="translate(172.0242, 9.9349)">
<path transform="scale(0.0026, -0.0026)" d="M204 141c63 0 120 -35 120 -103c0 -70 -50 -119 -97 -147c-33 -20 -70 -32 -108 -32c-63 0 -119 35 -119 103c0 70 49 119 96 147c33 20 70 32 108 32z" fill="currentColor"/>
</g>
</a>
<g transform="translate(171.9447, 11.9349)">
<rect x="-0.0795" y="-7.8691" width="0.1590" height="6.2706" ry="0.0400" fill="currentColor"/>
</g>
<a style="color:inherit;" xlink:href="textedit://C:/Users/jwloy/Documents/GitHub/ill20231216/public/pieces/ill20231212/notation/ILL20231216.ly:119:12:13">
<g transform="translate(171.1766, 10.4349)">
<path transform="scale(0.0026, -0.0026)" d="M204 141c63 0 120 -35 120 -103c0 -70 -50 -119 -97 -147c-33 -20 -70 -32 -108 -32c-63 0 -119 35 -119 103c0 70 49 119 96 147c33 20 70 32 108 32z" fill="currentColor"/>
</g>
</a>
<a style="color:inherit;" xlink:href="textedit://C:/Users/jwloy/Documents/GitHub/ill20231216/public/pieces/ill20231212/notation/ILL20231216.ly:107:8:9">
<g transform="translate(86.0000, 11.9349)">
<path transform="scale(0.0052, -0.0052)" d="M222 135c53 0 104 -27 104 -86c0 -71 -56 -120 -103 -148c-36 -22 -76 -36 -118 -36c-53 0 -105 27 -105 86c0 71 57 120 104 148c36 22 76 36 118 36z" fill="currentColor"/>
</g>
</a>
<g transform="translate(74.9881, 11.9349)">
<rect x="-0.0795" y="-7.5000" width="0.1590" height="5.9015" ry="0.0400" fill="currentColor"/>
</g>
<a style="color:inherit;" xlink:href="textedit://C:/Users/jwloy/Documents/GitHub/ill20231216/public/pieces/ill20231212/notation/ILL20231216.ly:102:76:77">
<g transform="translate(74.2200, 10.4349)">
<path transform="scale(0.0026, -0.0026)" d="M204 141c63 0 120 -35 120 -103c0 -70 -50 -119 -97 -147c-33 -20 -70 -32 -108 -32c-63 0 -119 35 -119 103c0 70 49 119 96 147c33 20 70 32 108 32z" fill="currentColor"/>
</g>
</a>
<g transform="translate(108.7101, 5.0999)">
<path transform="scale(0.0066, -0.0066)" d="M0 0v-250h-14v250h14zM0 0c0 -198 207 -336 207 -534c0 -71 -16 -142 -42 -208c-4 -7 -10 -11 -17 -11c-12 0 -24 10 -21 25c26 62 41 127 41 194c0 104 -96 209 -168 284v250z" fill="currentColor"/>
</g>
<a style="color:inherit;" xlink:href="textedit://C:/Users/jwloy/Documents/GitHub/ill20231216/public/pieces/ill20231212/notation/ILL20231216.ly:110:28:29">
<g transform="translate(123.8000, 11.9349)">
<path transform="scale(0.0066, -0.0066)" d="M76 -250l116 327c-35 -12 -70 -23 -107 -23c-46 0 -87 34 -87 80c0 39 31 71 71 71c26 0 49 -16 57 -40c10 -28 6 -60 35 -60c17 0 58 54 65 70c5 11 20 10 24 0l-126 -425c-7 -6 -16 -9 -24 -9s-17 3 -24 9z" fill="currentColor"/>
</g>
</a>
<a style="color:inherit;" xlink:href="textedit://C:/Users/jwloy/Documents/GitHub/ill20231216/public/pieces/ill20231212/notation/ILL20231216.ly:110:25:26">
<g transform="translate(115.4000, 11.9349)">
<path transform="scale(0.0066, -0.0066)" d="M76 -250l116 327c-35 -12 -70 -23 -107 -23c-46 0 -87 34 -87 80c0 39 31 71 71 71c26 0 49 -16 57 -40c10 -28 6 -60 35 -60c17 0 58 54 65 70c5 11 20 10 24 0l-126 -425c-7 -6 -16 -9 -24 -9s-17 3 -24 9z" fill="currentColor"/>
</g>
</a>
<a style="color:inherit;" xlink:href="textedit://C:/Users/jwloy/Documents/GitHub/ill20231216/public/pieces/ill20231212/notation/ILL20231216.ly:119:32:33">
<g transform="translate(172.8718, 9.4349)">
<path transform="scale(0.0026, -0.0026)" d="M204 141c63 0 120 -35 120 -103c0 -70 -50 -119 -97 -147c-33 -20 -70 -32 -108 -32c-63 0 -119 35 -119 103c0 70 49 119 96 147c33 20 70 32 108 32z" fill="currentColor"/>
</g>
</a>
<g transform="translate(108.6306, 11.9349)">
<rect x="-0.0795" y="-6.8750" width="0.1590" height="6.6174" ry="0.0400" fill="currentColor"/>
</g>
<a style="color:inherit;" xlink:href="textedit://C:/Users/jwloy/Documents/GitHub/ill20231216/public/pieces/ill20231212/notation/ILL20231216.ly:110:21:22">
<g transform="translate(107.0000, 11.9349)">
<path transform="scale(0.0052, -0.0052)" d="M222 135c53 0 104 -27 104 -86c0 -71 -56 -120 -103 -148c-36 -22 -76 -36 -118 -36c-53 0 -105 27 -105 86c0 71 57 120 104 148c36 22 76 36 118 36z" fill="currentColor"/>
</g>
</a>
<g transform="translate(87.6306, 11.9349)">
<rect x="-0.0795" y="-6.8333" width="0.1590" height="6.5757" ry="0.0400" fill="currentColor"/>
</g>
<g transform="translate(177.8778, 11.9349)">
<rect x="-0.0795" y="-7.8691" width="0.1590" height="7.7706" ry="0.0400" fill="currentColor"/>
</g>
<g transform="translate(178.7254, 11.9349)">
<rect x="-0.0795" y="-7.8691" width="0.1590" height="7.2706" ry="0.0400" fill="currentColor"/>
</g>
<a style="color:inherit;" xlink:href="textedit://C:/Users/jwloy/Documents/GitHub/ill20231216/public/pieces/ill20231212/notation/ILL20231216.ly:119:122:123">
<g transform="translate(177.9573, 11.4349)">
<path transform="scale(0.0026, -0.0026)" d="M204 141c63 0 120 -35 120 -103c0 -70 -50 -119 -97 -147c-33 -20 -70 -32 -108 -32c-63 0 -119 35 -119 103c0 70 49 119 96 147c33 20 70 32 108 32z" fill="currentColor"/>
</g>
</a>
<a style="color:inherit;" xlink:href="textedit://C:/Users/jwloy/Documents/GitHub/ill20231216/public/pieces/ill20231212/notation/ILL20231216.ly:119:118:119">
<g transform="translate(177.9573, 9.4349)">
<path transform="scale(0.0026, -0.0026)" d="M204 141c63 0 120 -35 120 -103c0 -70 -50 -119 -97 -147c-33 -20 -70 -32 -108 -32c-63 0 -119 35 -119 103c0 70 49 119 96 147c33 20 70 32 108 32z" fill="currentColor"/>
</g>
</a>
<a style="color:inherit;" xlink:href="textedit://C:/Users/jwloy/Documents/GitHub/ill20231216/public/pieces/ill20231212/notation/ILL20231216.ly:119:111:112">
<g transform="translate(177.1097, 8.9349)">
<path transform="scale(0.0026, -0.0026)" d="M204 141c63 0 120 -35 120 -103c0 -70 -50 -119 -97 -147c-33 -20 -70 -32 -108 -32c-63 0 -119 35 -119 103c0 70 49 119 96 147c33 20 70 32 108 32z" fill="currentColor"/>
</g>
</a>
<a style="color:inherit;" xlink:href="textedit://C:/Users/jwloy/Documents/GitHub/ill20231216/public/pieces/ill20231212/notation/ILL20231216.ly:119:107:108">
<g transform="translate(177.1097, 10.4349)">
<path transform="scale(0.0026, -0.0026)" d="M204 141c63 0 120 -35 120 -103c0 -70 -50 -119 -97 -147c-33 -20 -70 -32 -108 -32c-63 0 -119 35 -119 103c0 70 49 119 96 147c33 20 70 32 108 32z" fill="currentColor"/>
</g>
</a>
<a style="color:inherit;" xlink:href="textedit://C:/Users/jwloy/Documents/GitHub/ill20231216/public/pieces/ill20231212/notation/ILL20231216.ly:119:104:105">
<g transform="translate(177.1097, 11.9349)">
<path transform="scale(0.0026, -0.0026)" d="M204 141c63 0 120 -35 120 -103c0 -70 -50 -119 -97 -147c-33 -20 -70 -32 -108 -32c-63 0 -119 35 -119 103c0 70 49 119 96 147c33 20 70 32 108 32z" fill="currentColor"/>
</g>
</a>
<a style="color:inherit;" xlink:href="textedit://C:/Users/jwloy/Documents/GitHub/ill20231216/public/pieces/ill20231212/notation/ILL20231216.ly:88:10:11">
<g transform="translate(35.7286, 4.4349)">
<polygon stroke-linejoin="round" stroke-linecap="round" stroke-width="0.0800" fill="currentColor" stroke="currentColor" points="7.7990 -0.1520 7.7990 0.1520 0.0400 0.1520 0.0400 -0.1520"/>
</g>
<g transform="translate(35.7286, 5.0919)">
<polygon stroke-linejoin="round" stroke-linecap="round" stroke-width="0.0800" fill="currentColor" stroke="currentColor" points="7.7990 -0.1520 7.7990 0.1520 0.0400 0.1520 0.0400 -0.1520"/>
</g>
<g transform="translate(35.7286, 5.7488)">
<polygon stroke-linejoin="round" stroke-linecap="round" stroke-width="0.0800" fill="currentColor" stroke="currentColor" points="7.7990 -0.1520 7.7990 0.1520 0.0400 0.1520 0.0400 -0.1520"/>
</g>
</a>
<a style="color:inherit;" xlink:href="textedit://C:/Users/jwloy/Documents/GitHub/ill20231216/public/pieces/ill20231212/notation/ILL20231216.ly:102:10:11">
<g transform="translate(67.6773, 4.4349)">
<polygon stroke-linejoin="round" stroke-linecap="round" stroke-width="0.0800" fill="currentColor" stroke="currentColor" points="7.3503 -0.1520 7.3503 0.1520 0.0400 0.1520 0.0400 -0.1520"/>
</g>
<g transform="translate(67.6773, 5.0919)">
<polygon stroke-linejoin="round" stroke-linecap="round" stroke-width="0.0800" fill="currentColor" stroke="currentColor" points="7.3503 -0.1520 7.3503 0.1520 0.0400 0.1520 0.0400 -0.1520"/>
</g>
<g transform="translate(67.6773, 5.7488)">
<polygon stroke-linejoin="round" stroke-linecap="round" stroke-width="0.0800" fill="currentColor" stroke="currentColor" points="7.3503 -0.1520 7.3503 0.1520 0.0400 0.1520 0.0400 -0.1520"/>
</g>
</a>
<a style="color:inherit;" xlink:href="textedit://C:/Users/jwloy/Documents/GitHub/ill20231216/public/pieces/ill20231212/notation/ILL20231216.ly:107:11:12">
<g transform="translate(86.0000, 11.9349)">
<path stroke-width="0.0978" stroke-linejoin="round" stroke-linecap="round" stroke="currentColor" fill="currentColor" d="M1.0550 0.7500C2.5924 1.7645 20.1177 1.7645 21.6550 0.7500L21.6550 0.7500C20.1177 1.6177 2.5924 1.6177 1.0550 0.7500z"/>
</g>
</a>
<a style="color:inherit;" xlink:href="textedit://C:/Users/jwloy/Documents/GitHub/ill20231216/public/pieces/ill20231212/notation/ILL20231216.ly:110:8:9">
<g transform="translate(108.5511, 2.0072)">
<line stroke-linejoin="round" stroke-linecap="round" stroke-width="0.1957" stroke="currentColor" x1="39.1489" y1="-0.0000" x2="39.1489" y2="0.7000"/>
</g>
<g transform="translate(108.5511, 2.0072)">
<line stroke-linejoin="round" stroke-linecap="round" stroke-width="0.1957" stroke="currentColor" x1="-0.2000" y1="-0.0000" x2="-0.2000" y2="0.7000"/>
</g>
<g transform="translate(108.5511, 2.0072)">
<line stroke-linejoin="round" stroke-linecap="round" stroke-width="0.1957" stroke="currentColor" x1="39.1489" y1="-0.0000" x2="21.9865" y2="-0.0000"/>
</g>
<g transform="translate(108.5511, 2.0072)">
<line stroke-linejoin="round" stroke-linecap="round" stroke-width="0.1957" stroke="currentColor" x1="-0.2000" y1="-0.0000" x2="17.1624" y2="-0.0000"/>
</g>
</a>
<a style="color:inherit;" xlink:href="textedit://C:/Users/jwloy/Documents/GitHub/ill20231216/public/pieces/ill20231212/notation/ILL20231216.ly:110:8:9">
<g transform="translate(126.1135, 2.9462)">
<text font-family="serif" font-style="italic" font-size="2.8814" text-anchor="start" fill="currentColor">
<tspan>5:2</tspan>
</text>
</g>
</a>
<a style="color:inherit;" xlink:href="textedit://C:/Users/jwloy/Documents/GitHub/ill20231216/public/pieces/ill20231212/notation/ILL20231216.ly:110:33:34">
<g transform="translate(132.2000, 11.9349)">
<path stroke-width="0.0978" stroke-linejoin="round" stroke-linecap="round" stroke="currentColor" fill="currentColor" d="M1.0550 0.7500C2.5064 1.7495 16.0037 1.7495 17.4550 0.7500L17.4550 0.7500C16.0037 1.6028 2.5064 1.6028 1.0550 0.7500z"/>
</g>
</a>
<g transform="translate(177.0302, 11.9349)">
<rect x="-0.0795" y="-7.8691" width="0.1590" height="8.2706" ry="0.0400" fill="currentColor"/>
</g>
<a style="color:inherit;" xlink:href="textedit://C:/Users/jwloy/Documents/GitHub/ill20231216/public/pieces/ill20231212/notation/ILL20231216.ly:119:10:11">
<g transform="translate(171.8652, 4.0658)">
<polygon stroke-linejoin="round" stroke-linecap="round" stroke-width="0.0800" fill="currentColor" stroke="currentColor" points="8.5948 -0.1520 8.5948 0.1520 0.0400 0.1520 0.0400 -0.1520"/>
</g>
<g transform="translate(171.8652, 4.7227)">
<polygon stroke-linejoin="round" stroke-linecap="round" stroke-width="0.0800" fill="currentColor" stroke="currentColor" points="8.5948 -0.1520 8.5948 0.1520 0.0400 0.1520 0.0400 -0.1520"/>
</g>
<g transform="translate(171.8652, 5.3796)">
<polygon stroke-linejoin="round" stroke-linecap="round" stroke-width="0.0800" fill="currentColor" stroke="currentColor" points="8.5948 -0.1520 8.5948 0.1520 0.0400 0.1520 0.0400 -0.1520"/>
</g>
</a>
<g transform="translate(179.5729, 11.9349)">
<rect x="-0.0795" y="-7.8691" width="0.1590" height="6.7706" ry="0.0400" fill="currentColor"/>
</g>
<a style="color:inherit;" xlink:href="textedit://C:/Users/jwloy/Documents/GitHub/ill20231216/public/pieces/ill20231212/notation/ILL20231216.ly:119:133:134">
<g transform="translate(178.8048, 10.9349)">
<path transform="scale(0.0026, -0.0026)" d="M204 141c63 0 120 -35 120 -103c0 -70 -50 -119 -97 -147c-33 -20 -70 -32 -108 -32c-63 0 -119 35 -119 103c0 70 49 119 96 147c33 20 70 32 108 32z" fill="currentColor"/>
</g>
</a>
<a style="color:inherit;" xlink:href="textedit://C:/Users/jwloy/Documents/GitHub/ill20231216/public/pieces/ill20231212/notation/ILL20231216.ly:119:129:130">
<g transform="translate(178.8048, 9.9349)">
<path transform="scale(0.0026, -0.0026)" d="M204 141c63 0 120 -35 120 -103c0 -70 -50 -119 -97 -147c-33 -20 -70 -32 -108 -32c-63 0 -119 35 -119 103c0 70 49 119 96 147c33 20 70 32 108 32z" fill="currentColor"/>
</g>
</a>
<a style="color:inherit;" xlink:href="textedit://C:/Users/jwloy/Documents/GitHub/ill20231216/public/pieces/ill20231212/notation/ILL20231216.ly:119:45:46">
<g transform="translate(173.7194, 10.4349)">
<path transform="scale(0.0026, -0.0026)" d="M204 141c63 0 120 -35 120 -103c0 -70 -50 -119 -97 -147c-33 -20 -70 -32 -108 -32c-63 0 -119 35 -119 103c0 70 49 119 96 147c33 20 70 32 108 32z" fill="currentColor"/>
</g>
</a>
<a style="color:inherit;" xlink:href="textedit://C:/Users/jwloy/Documents/GitHub/ill20231216/public/pieces/ill20231212/notation/ILL20231216.ly:119:59:60">
<g transform="translate(174.5669, 10.4349)">
<path transform="scale(0.0026, -0.0026)" d="M204 141c63 0 120 -35 120 -103c0 -70 -50 -119 -97 -147c-33 -20 -70 -32 -108 -32c-63 0 -119 35 -119 103c0 70 49 119 96 147c33 20 70 32 108 32z" fill="currentColor"/>
</g>
</a>
<a style="color:inherit;" xlink:href="textedit://C:/Users/jwloy/Documents/GitHub/ill20231216/public/pieces/ill20231212/notation/ILL20231216.ly:119:56:57">
<g transform="translate(174.5669, 12.4349)">
<path transform="scale(0.0026, -0.0026)" d="M204 141c63 0 120 -35 120 -103c0 -70 -50 -119 -97 -147c-33 -20 -70 -32 -108 -32c-63 0 -119 35 -119 103c0 70 49 119 96 147c33 20 70 32 108 32z" fill="currentColor"/>
</g>
</a>
<a style="color:inherit;" xlink:href="textedit://C:/Users/jwloy/Documents/GitHub/ill20231216/public/pieces/ill20231212/notation/ILL20231216.ly:119:138:139">
<g transform="translate(179.6524, 10.4349)">
<path transform="scale(0.0026, -0.0026)" d="M204 141c63 0 120 -35 120 -103c0 -70 -50 -119 -97 -147c-33 -20 -70 -32 -108 -32c-63 0 -119 35 -119 103c0 70 49 119 96 147c33 20 70 32 108 32z" fill="currentColor"/>
</g>
</a>
<g transform="translate(174.4874, 11.9349)">
<rect x="-0.0795" y="-7.8691" width="0.1590" height="7.7706" ry="0.0400" fill="currentColor"/>
</g>
<a style="color:inherit;" xlink:href="textedit://C:/Users/jwloy/Documents/GitHub/ill20231216/public/pieces/ill20231212/notation/ILL20231216.ly:119:49:50">
<g transform="translate(173.7194, 8.9349)">
<path transform="scale(0.0026, -0.0026)" d="M204 141c63 0 120 -35 120 -103c0 -70 -50 -119 -97 -147c-33 -20 -70 -32 -108 -32c-63 0 -119 35 -119 103c0 70 49 119 96 147c33 20 70 32 108 32z" fill="currentColor"/>
</g>
</a>
<a style="color:inherit;" xlink:href="textedit://C:/Users/jwloy/Documents/GitHub/ill20231216/public/pieces/ill20231212/notation/ILL20231216.ly:119:63:64">
<g transform="translate(174.5669, 8.4349)">
<path transform="scale(0.0026, -0.0026)" d="M204 141c63 0 120 -35 120 -103c0 -70 -50 -119 -97 -147c-33 -20 -70 -32 -108 -32c-63 0 -119 35 -119 103c0 70 49 119 96 147c33 20 70 32 108 32z" fill="currentColor"/>
</g>
</a>
<a style="color:inherit;" xlink:href="textedit://C:/Users/jwloy/Documents/GitHub/ill20231216/public/pieces/ill20231212/notation/ILL20231216.ly:119:42:43">
<g transform="translate(173.7194, 11.9349)">
<path transform="scale(0.0026, -0.0026)" d="M204 141c63 0 120 -35 120 -103c0 -70 -50 -119 -97 -147c-33 -20 -70 -32 -108 -32c-63 0 -119 35 -119 103c0 70 49 119 96 147c33 20 70 32 108 32z" fill="currentColor"/>
</g>
</a>
<g transform="translate(180.4205, 11.9349)">
<rect x="-0.0795" y="-7.8691" width="0.1590" height="6.2706" ry="0.0400" fill="currentColor"/>
</g>
<g transform="translate(173.6399, 11.9349)">
<rect x="-0.0795" y="-7.8691" width="0.1590" height="7.2706" ry="0.0400" fill="currentColor"/>
</g>
<a style="color:inherit;" xlink:href="textedit://C:/Users/jwloy/Documents/GitHub/ill20231216/public/pieces/ill20231212/notation/ILL20231216.ly:119:36:37">
<g transform="translate(172.8718, 11.4349)">
<path transform="scale(0.0026, -0.0026)" d="M204 141c63 0 120 -35 120 -103c0 -70 -50 -119 -97 -147c-33 -20 -70 -32 -108 -32c-63 0 -119 35 -119 103c0 70 49 119 96 147c33 20 70 32 108 32z" fill="currentColor"/>
</g>
</a>
<a style="color:inherit;" xlink:href="textedit://C:/Users/jwloy/Documents/GitHub/ill20231216/public/pieces/ill20231212/notation/ILL20231216.ly:119:81:82">
<g transform="translate(175.4145, 7.9349)">
<path transform="scale(0.0026, -0.0026)" d="M204 141c63 0 120 -35 120 -103c0 -70 -50 -119 -97 -147c-33 -20 -70 -32 -108 -32c-63 0 -119 35 -119 103c0 70 49 119 96 147c33 20 70 32 108 32z" fill="currentColor"/>
</g>
</a>
<a style="color:inherit;" xlink:href="textedit://C:/Users/jwloy/Documents/GitHub/ill20231216/public/pieces/ill20231212/notation/ILL20231216.ly:119:97:98">
<g transform="translate(176.2621, 8.4349)">
<path transform="scale(0.0026, -0.0026)" d="M204 141c63 0 120 -35 120 -103c0 -70 -50 -119 -97 -147c-33 -20 -70 -32 -108 -32c-63 0 -119 35 -119 103c0 70 49 119 96 147c33 20 70 32 108 32z" fill="currentColor"/>
</g>
</a>
<a style="color:inherit;" xlink:href="textedit://C:/Users/jwloy/Documents/GitHub/ill20231216/public/pieces/ill20231212/notation/ILL20231216.ly:119:93:94">
<g transform="translate(176.2621, 10.4349)">
<path transform="scale(0.0026, -0.0026)" d="M204 141c63 0 120 -35 120 -103c0 -70 -50 -119 -97 -147c-33 -20 -70 -32 -108 -32c-63 0 -119 35 -119 103c0 70 49 119 96 147c33 20 70 32 108 32z" fill="currentColor"/>
</g>
</a>
<a style="color:inherit;" xlink:href="textedit://C:/Users/jwloy/Documents/GitHub/ill20231216/public/pieces/ill20231212/notation/ILL20231216.ly:119:90:91">
<g transform="translate(176.2621, 12.4349)">
<path transform="scale(0.0026, -0.0026)" d="M204 141c63 0 120 -35 120 -103c0 -70 -50 -119 -97 -147c-33 -20 -70 -32 -108 -32c-63 0 -119 35 -119 103c0 70 49 119 96 147c33 20 70 32 108 32z" fill="currentColor"/>
</g>
</a>
<g transform="translate(176.1826, 11.9349)">
<rect x="-0.0795" y="-7.8691" width="0.1590" height="8.7706" ry="0.0400" fill="currentColor"/>
</g>
<a style="color:inherit;" xlink:href="textedit://C:/Users/jwloy/Documents/GitHub/ill20231216/public/pieces/ill20231212/notation/ILL20231216.ly:119:77:78">
<g transform="translate(175.4145, 9.9349)">
<path transform="scale(0.0026, -0.0026)" d="M204 141c63 0 120 -35 120 -103c0 -70 -50 -119 -97 -147c-33 -20 -70 -32 -108 -32c-63 0 -119 35 -119 103c0 70 49 119 96 147c33 20 70 32 108 32z" fill="currentColor"/>
</g>
</a>
<a style="color:inherit;" xlink:href="textedit://C:/Users/jwloy/Documents/GitHub/ill20231216/public/pieces/ill20231212/notation/ILL20231216.ly:119:73:74">
<g transform="translate(175.4145, 10.9349)">
<path transform="scale(0.0026, -0.0026)" d="M204 141c63 0 120 -35 120 -103c0 -70 -50 -119 -97 -147c-33 -20 -70 -32 -108 -32c-63 0 -119 35 -119 103c0 70 49 119 96 147c33 20 70 32 108 32z" fill="currentColor"/>
</g>
</a>
<a style="color:inherit;" xlink:href="textedit://C:/Users/jwloy/Documents/GitHub/ill20231216/public/pieces/ill20231212/notation/ILL20231216.ly:119:70:71">
<g transform="translate(175.4145, 12.9349)">
<path transform="scale(0.0026, -0.0026)" d="M204 141c63 0 120 -35 120 -103c0 -70 -50 -119 -97 -147c-33 -20 -70 -32 -108 -32c-63 0 -119 35 -119 103c0 70 49 119 96 147c33 20 70 32 108 32z" fill="currentColor"/>
</g>
</a>
<g transform="translate(175.3350, 11.9349)">
<rect x="-0.0795" y="-7.8691" width="0.1590" height="8.2706" ry="0.0400" fill="currentColor"/>
</g>
<a style="color:inherit;" xlink:href="textedit://C:/Users/jwloy/Documents/GitHub/ill20231216/public/pieces/ill20231212/notation/ILL20231216.ly:88:67:68">
<g transform="translate(41.4400, 9.9349)">
<path transform="scale(0.0026, -0.0026)" d="M204 141c63 0 120 -35 120 -103c0 -70 -50 -119 -97 -147c-33 -20 -70 -32 -108 -32c-63 0 -119 35 -119 103c0 70 49 119 96 147c33 20 70 32 108 32z" fill="currentColor"/>
</g>
</a>
<g transform="translate(40.9281, 11.9349)">
<rect x="-0.0795" y="-7.5000" width="0.1590" height="6.9015" ry="0.0400" fill="currentColor"/>
</g>
<a style="color:inherit;" xlink:href="textedit://C:/Users/jwloy/Documents/GitHub/ill20231216/public/pieces/ill20231212/notation/ILL20231216.ly:88:60:61">
<g transform="translate(40.1600, 11.4349)">
<path transform="scale(0.0026, -0.0026)" d="M204 141c63 0 120 -35 120 -103c0 -70 -50 -119 -97 -147c-33 -20 -70 -32 -108 -32c-63 0 -119 35 -119 103c0 70 49 119 96 147c33 20 70 32 108 32z" fill="currentColor"/>
</g>
</a>
<a style="color:inherit;" xlink:href="textedit://C:/Users/jwloy/Documents/GitHub/ill20231216/public/pieces/ill20231212/notation/ILL20231216.ly:88:56:57">
<g transform="translate(40.1600, 9.4349)">
<path transform="scale(0.0026, -0.0026)" d="M204 141c63 0 120 -35 120 -103c0 -70 -50 -119 -97 -147c-33 -20 -70 -32 -108 -32c-63 0 -119 35 -119 103c0 70 49 119 96 147c33 20 70 32 108 32z" fill="currentColor"/>
</g>
</a>
<a style="color:inherit;" xlink:href="textedit://C:/Users/jwloy/Documents/GitHub/ill20231216/public/pieces/ill20231212/notation/ILL20231216.ly:88:71:72">
<g transform="translate(41.4400, 10.9349)">
<path transform="scale(0.0026, -0.0026)" d="M204 141c63 0 120 -35 120 -103c0 -70 -50 -119 -97 -147c-33 -20 -70 -32 -108 -32c-63 0 -119 35 -119 103c0 70 49 119 96 147c33 20 70 32 108 32z" fill="currentColor"/>
</g>
</a>
<g transform="translate(39.6481, 11.9349)">
<rect x="-0.0795" y="-7.5000" width="0.1590" height="7.4015" ry="0.0400" fill="currentColor"/>
</g>
<a style="color:inherit;" xlink:href="textedit://C:/Users/jwloy/Documents/GitHub/ill20231216/public/pieces/ill20231212/notation/ILL20231216.ly:88:50:51">
<g transform="translate(38.8800, 11.9349)">
<path transform="scale(0.0026, -0.0026)" d="M204 141c63 0 120 -35 120 -103c0 -70 -50 -119 -97 -147c-33 -20 -70 -32 -108 -32c-63 0 -119 35 -119 103c0 70 49 119 96 147c33 20 70 32 108 32z" fill="currentColor"/>
</g>
</a>
<a style="color:inherit;" xlink:href="textedit://C:/Users/jwloy/Documents/GitHub/ill20231216/public/pieces/ill20231212/notation/ILL20231216.ly:88:46:47">
<g transform="translate(38.8800, 10.4349)">
<path transform="scale(0.0026, -0.0026)" d="M204 141c63 0 120 -35 120 -103c0 -70 -50 -119 -97 -147c-33 -20 -70 -32 -108 -32c-63 0 -119 35 -119 103c0 70 49 119 96 147c33 20 70 32 108 32z" fill="currentColor"/>
</g>
</a>
<a style="color:inherit;" xlink:href="textedit://C:/Users/jwloy/Documents/GitHub/ill20231216/public/pieces/ill20231212/notation/ILL20231216.ly:88:42:43">
<g transform="translate(38.8800, 8.9349)">
<path transform="scale(0.0026, -0.0026)" d="M204 141c63 0 120 -35 120 -103c0 -70 -50 -119 -97 -147c-33 -20 -70 -32 -108 -32c-63 0 -119 35 -119 103c0 70 49 119 96 147c33 20 70 32 108 32z" fill="currentColor"/>
</g>
</a>
<g transform="translate(44.1590, 17.3949)">
<path transform="scale(0.0066, -0.0066)" d="M0 0h-14v250h14v-250zM0 0v250c98 58 228 147 228 259c0 57 -15 112 -40 164c-3 15 9 25 21 25c7 0 14 -3 18 -10c25 -56 40 -117 40 -179c0 -203 -267 -306 -267 -509z" fill="currentColor"/>
</g>
<g transform="translate(44.0795, 11.9349)">
<rect x="-0.0795" y="-1.2424" width="0.1590" height="6.7424" ry="0.0400" fill="currentColor"/>
</g>
<a style="color:inherit;" xlink:href="textedit://C:/Users/jwloy/Documents/GitHub/ill20231216/public/pieces/ill20231212/notation/ILL20231216.ly:93:13:14">
<g transform="translate(44.8550, 9.5292)">
<path transform="scale(0.0052, -0.0052)" d="M-114 0c-8 0 -13 8 -10 15l114 254c2 4 6 6 10 6s8 -2 10 -6l114 -254c3 -7 -2 -15 -10 -15h-68c-4 0 -7 2 -9 6l-71 156l-70 -156c-2 -4 -6 -6 -10 -6z" fill="currentColor"/>
</g>
</a>
<a style="color:inherit;" xlink:href="textedit://C:/Users/jwloy/Documents/GitHub/ill20231216/public/pieces/ill20231212/notation/ILL20231216.ly:93:8:9">
<g transform="translate(44.0000, 10.4349)">
<path transform="scale(0.0052, -0.0052)" d="M222 135c53 0 104 -27 104 -86c0 -71 -56 -120 -103 -148c-36 -22 -76 -36 -118 -36c-53 0 -105 27 -105 86c0 71 57 120 104 148c36 22 76 36 118 36z" fill="currentColor"/>
</g>
</a>
<g transform="translate(73.7081, 11.9349)">
<rect x="-0.0795" y="-7.5000" width="0.1590" height="6.4015" ry="0.0400" fill="currentColor"/>
</g>
<g transform="translate(43.4881, 11.9349)">
<rect x="-0.0795" y="-7.5000" width="0.1590" height="5.9015" ry="0.0400" fill="currentColor"/>
</g>
<a style="color:inherit;" xlink:href="textedit://C:/Users/jwloy/Documents/GitHub/ill20231216/public/pieces/ill20231212/notation/ILL20231216.ly:88:76:77">
<g transform="translate(42.7200, 10.4349)">
<path transform="scale(0.0026, -0.0026)" d="M204 141c63 0 120 -35 120 -103c0 -70 -50 -119 -97 -147c-33 -20 -70 -32 -108 -32c-63 0 -119 35 -119 103c0 70 49 119 96 147c33 20 70 32 108 32z" fill="currentColor"/>
</g>
</a>
<g transform="translate(42.2081, 11.9349)">
<rect x="-0.0795" y="-7.5000" width="0.1590" height="6.4015" ry="0.0400" fill="currentColor"/>
</g>
<a style="color:inherit;" xlink:href="textedit://C:/Users/jwloy/Documents/GitHub/ill20231216/public/pieces/ill20231212/notation/ILL20231216.ly:84:11:12">
<g transform="translate(23.0000, 11.9349)">
<path transform="scale(0.0066, -0.0066)" d="M-23 -113c0 26 10 40 36 40c34 0 85 -15 130 -37l-137 164c-7 8 -10 17 -10 25c0 33 49 64 86 96c26 22 39 54 39 85c0 24 -8 47 -24 67l-39 46c-2 3 -3 6 -3 9c0 7 7 14 14 14c3 0 7 -1 10 -5l152 -182c7 -8 10 -17 10 -25c0 -33 -49 -64 -86 -96
c-26 -22 -39 -54 -39 -85c0 -24 8 -47 24 -67l87 -104c2 -3 3 -5 3 -8c0 -7 -7 -14 -14 -14c-3 0 -7 1 -10 5c-19 22 -66 43 -102 43c-40 0 -52 -29 -52 -70c0 -35 11 -75 28 -96c6 -7 -4 -16 -10 -9c-46 55 -93 150 -93 204z" fill="currentColor"/>
</g>
</a>
<a style="color:inherit;" xlink:href="textedit://C:/Users/jwloy/Documents/GitHub/ill20231216/public/pieces/ill20231212/notation/ILL20231216.ly:80:8:9">
</a>
<a style="color:inherit;" xlink:href="textedit://C:/Users/jwloy/Documents/GitHub/ill20231216/public/pieces/ill20231212/notation/ILL20231216.ly:84:8:9">
<g transform="translate(2.0000, 11.9349)">
<path transform="scale(0.0066, -0.0066)" d="M-23 -113c0 26 10 40 36 40c34 0 85 -15 130 -37l-137 164c-7 8 -10 17 -10 25c0 33 49 64 86 96c26 22 39 54 39 85c0 24 -8 47 -24 67l-39 46c-2 3 -3 6 -3 9c0 7 7 14 14 14c3 0 7 -1 10 -5l152 -182c7 -8 10 -17 10 -25c0 -33 -49 -64 -86 -96
c-26 -22 -39 -54 -39 -85c0 -24 8 -47 24 -67l87 -104c2 -3 3 -5 3 -8c0 -7 -7 -14 -14 -14c-3 0 -7 1 -10 5c-19 22 -66 43 -102 43c-40 0 -52 -29 -52 -70c0 -35 11 -75 28 -96c6 -7 -4 -16 -10 -9c-46 55 -93 150 -93 204z" fill="currentColor"/>
</g>
</a>
<a style="color:inherit;" xlink:href="textedit://C:/Users/jwloy/Documents/GitHub/ill20231216/public/pieces/ill20231212/notation/ILL20231216.ly:88:22:23">
<g transform="translate(36.3200, 9.9349)">
<path transform="scale(0.0026, -0.0026)" d="M204 141c63 0 120 -35 120 -103c0 -70 -50 -119 -97 -147c-33 -20 -70 -32 -108 -32c-63 0 -119 35 -119 103c0 70 49 119 96 147c33 20 70 32 108 32z" fill="currentColor"/>
</g>
</a>
<g transform="translate(38.3681, 11.9349)">
<rect x="-0.0795" y="-7.5000" width="0.1590" height="6.9015" ry="0.0400" fill="currentColor"/>
</g>
<a style="color:inherit;" xlink:href="textedit://C:/Users/jwloy/Documents/GitHub/ill20231216/public/pieces/ill20231212/notation/ILL20231216.ly:88:36:37">
<g transform="translate(37.6000, 11.4349)">
<path transform="scale(0.0026, -0.0026)" d="M204 141c63 0 120 -35 120 -103c0 -70 -50 -119 -97 -147c-33 -20 -70 -32 -108 -32c-63 0 -119 35 -119 103c0 70 49 119 96 147c33 20 70 32 108 32z" fill="currentColor"/>
</g>
</a>
<a style="color:inherit;" xlink:href="textedit://C:/Users/jwloy/Documents/GitHub/ill20231216/public/pieces/ill20231212/notation/ILL20231216.ly:88:32:33">
<g transform="translate(37.6000, 9.4349)">
<path transform="scale(0.0026, -0.0026)" d="M204 141c63 0 120 -35 120 -103c0 -70 -50 -119 -97 -147c-33 -20 -70 -32 -108 -32c-63 0 -119 35 -119 103c0 70 49 119 96 147c33 20 70 32 108 32z" fill="currentColor"/>
</g>
</a>
<g transform="translate(37.0881, 11.9349)">
<rect x="-0.0795" y="-7.5000" width="0.1590" height="6.4015" ry="0.0400" fill="currentColor"/>
</g>
<a style="color:inherit;" xlink:href="textedit://C:/Users/jwloy/Documents/GitHub/ill20231216/public/pieces/ill20231212/notation/ILL20231216.ly:88:26:27">
<g transform="translate(36.3200, 10.9349)">
<path transform="scale(0.0026, -0.0026)" d="M204 141c63 0 120 -35 120 -103c0 -70 -50 -119 -97 -147c-33 -20 -70 -32 -108 -32c-63 0 -119 35 -119 103c0 70 49 119 96 147c33 20 70 32 108 32z" fill="currentColor"/>
</g>
</a>
<g transform="translate(35.8081, 11.9349)">
<rect x="-0.0795" y="-7.5000" width="0.1590" height="5.9015" ry="0.0400" fill="currentColor"/>
</g>
<a style="color:inherit;" xlink:href="textedit://C:/Users/jwloy/Documents/GitHub/ill20231216/public/pieces/ill20231212/notation/ILL20231216.ly:88:12:13">
<g transform="translate(35.0400, 10.4349)">
<path transform="scale(0.0026, -0.0026)" d="M204 141c63 0 120 -35 120 -103c0 -70 -50 -119 -97 -147c-33 -20 -70 -32 -108 -32c-63 0 -119 35 -119 103c0 70 49 119 96 147c33 20 70 32 108 32z" fill="currentColor"/>
</g>
</a>
<a style="color:inherit;" xlink:href="textedit://C:/Users/jwloy/Documents/GitHub/ill20231216/public/pieces/ill20231212/notation/ILL20231216.ly:102:36:37">
<g transform="translate(69.1000, 11.4349)">
<path transform="scale(0.0026, -0.0026)" d="M204 141c63 0 120 -35 120 -103c0 -70 -50 -119 -97 -147c-33 -20 -70 -32 -108 -32c-63 0 -119 35 -119 103c0 70 49 119 96 147c33 20 70 32 108 32z" fill="currentColor"/>
</g>
</a>
<a style="color:inherit;" xlink:href="textedit://C:/Users/jwloy/Documents/GitHub/ill20231216/public/pieces/ill20231212/notation/ILL20231216.ly:102:46:47">
<g transform="translate(70.3800, 10.4349)">
<path transform="scale(0.0026, -0.0026)" d="M204 141c63 0 120 -35 120 -103c0 -70 -50 -119 -97 -147c-33 -20 -70 -32 -108 -32c-63 0 -119 35 -119 103c0 70 49 119 96 147c33 20 70 32 108 32z" fill="currentColor"/>
</g>
</a>
<a style="color:inherit;" xlink:href="textedit://C:/Users/jwloy/Documents/GitHub/ill20231216/public/pieces/ill20231212/notation/ILL20231216.ly:102:42:43">
<g transform="translate(70.3800, 8.9349)">
<path transform="scale(0.0026, -0.0026)" d="M204 141c63 0 120 -35 120 -103c0 -70 -50 -119 -97 -147c-33 -20 -70 -32 -108 -32c-63 0 -119 35 -119 103c0 70 49 119 96 147c33 20 70 32 108 32z" fill="currentColor"/>
</g>
</a>
<g transform="translate(69.8681, 11.9349)">
<rect x="-0.0795" y="-7.5000" width="0.1590" height="6.9015" ry="0.0400" fill="currentColor"/>
</g>
<a style="color:inherit;" xlink:href="textedit://C:/Users/jwloy/Documents/GitHub/ill20231216/public/pieces/ill20231212/notation/ILL20231216.ly:102:50:51">
<g transform="translate(70.3800, 11.9349)">
<path transform="scale(0.0026, -0.0026)" d="M204 141c63 0 120 -35 120 -103c0 -70 -50 -119 -97 -147c-33 -20 -70 -32 -108 -32c-63 0 -119 35 -119 103c0 70 49 119 96 147c33 20 70 32 108 32z" fill="currentColor"/>
</g>
</a>
<a style="color:inherit;" xlink:href="textedit://C:/Users/jwloy/Documents/GitHub/ill20231216/public/pieces/ill20231212/notation/ILL20231216.ly:102:32:33">
<g transform="translate(69.1000, 9.4349)">
<path transform="scale(0.0026, -0.0026)" d="M204 141c63 0 120 -35 120 -103c0 -70 -50 -119 -97 -147c-33 -20 -70 -32 -108 -32c-63 0 -119 35 -119 103c0 70 49 119 96 147c33 20 70 32 108 32z" fill="currentColor"/>
</g>
</a>
<g transform="translate(68.7544, 11.9349)">
<rect x="-0.0795" y="-7.5000" width="0.1590" height="6.4015" ry="0.0400" fill="currentColor"/>
</g>
<a style="color:inherit;" xlink:href="textedit://C:/Users/jwloy/Documents/GitHub/ill20231216/public/pieces/ill20231212/notation/ILL20231216.ly:102:26:27">
<g transform="translate(67.9863, 10.9349)">
<path transform="scale(0.0026, -0.0026)" d="M204 141c63 0 120 -35 120 -103c0 -70 -50 -119 -97 -147c-33 -20 -70 -32 -108 -32c-63 0 -119 35 -119 103c0 70 49 119 96 147c33 20 70 32 108 32z" fill="currentColor"/>
</g>
</a>
<a style="color:inherit;" xlink:href="textedit://C:/Users/jwloy/Documents/GitHub/ill20231216/public/pieces/ill20231212/notation/ILL20231216.ly:102:22:23">
<g transform="translate(67.9863, 9.9349)">
<path transform="scale(0.0026, -0.0026)" d="M204 141c63 0 120 -35 120 -103c0 -70 -50 -119 -97 -147c-33 -20 -70 -32 -108 -32c-63 0 -119 35 -119 103c0 70 49 119 96 147c33 20 70 32 108 32z" fill="currentColor"/>
</g>
</a>
<a style="color:inherit;" xlink:href="textedit://C:/Users/jwloy/Documents/GitHub/ill20231216/public/pieces/ill20231212/notation/ILL20231216.ly:102:60:61">
<g transform="translate(71.6600, 11.4349)">
<path transform="scale(0.0026, -0.0026)" d="M204 141c63 0 120 -35 120 -103c0 -70 -50 -119 -97 -147c-33 -20 -70 -32 -108 -32c-63 0 -119 35 -119 103c0 70 49 119 96 147c33 20 70 32 108 32z" fill="currentColor"/>
</g>
</a>
<a style="color:inherit;" xlink:href="textedit://C:/Users/jwloy/Documents/GitHub/ill20231216/public/pieces/ill20231212/notation/ILL20231216.ly:102:71:72">
<g transform="translate(72.9400, 10.9349)">
<path transform="scale(0.0026, -0.0026)" d="M204 141c63 0 120 -35 120 -103c0 -70 -50 -119 -97 -147c-33 -20 -70 -32 -108 -32c-63 0 -119 35 -119 103c0 70 49 119 96 147c33 20 70 32 108 32z" fill="currentColor"/>
</g>
</a>
<a style="color:inherit;" xlink:href="textedit://C:/Users/jwloy/Documents/GitHub/ill20231216/public/pieces/ill20231212/notation/ILL20231216.ly:102:67:68">
<g transform="translate(72.9400, 9.9349)">
<path transform="scale(0.0026, -0.0026)" d="M204 141c63 0 120 -35 120 -103c0 -70 -50 -119 -97 -147c-33 -20 -70 -32 -108 -32c-63 0 -119 35 -119 103c0 70 49 119 96 147c33 20 70 32 108 32z" fill="currentColor"/>
</g>
</a>
<a style="color:inherit;" xlink:href="textedit://C:/Users/jwloy/Documents/GitHub/ill20231216/public/pieces/ill20231212/notation/ILL20231216.ly:138:8:9">
<g transform="translate(191.0000, 9.4349)">
<path transform="scale(0.0052, -0.0052)" d="M222 135c53 0 104 -27 104 -86c0 -71 -56 -120 -103 -148c-36 -22 -76 -36 -118 -36c-53 0 -105 27 -105 86c0 71 57 120 104 148c36 22 76 36 118 36z" fill="currentColor"/>
</g>
</a>
<g transform="translate(72.4281, 11.9349)">
<rect x="-0.0795" y="-7.5000" width="0.1590" height="6.9015" ry="0.0400" fill="currentColor"/>
</g>
<a style="color:inherit;" xlink:href="textedit://C:/Users/jwloy/Documents/GitHub/ill20231216/public/pieces/ill20231212/notation/ILL20231216.ly:102:56:57">
<g transform="translate(71.6600, 9.4349)">
<path transform="scale(0.0026, -0.0026)" d="M204 141c63 0 120 -35 120 -103c0 -70 -50 -119 -97 -147c-33 -20 -70 -32 -108 -32c-63 0 -119 35 -119 103c0 70 49 119 96 147c33 20 70 32 108 32z" fill="currentColor"/>
</g>
</a>
<g transform="translate(191.0795, 11.9349)">
<rect x="-0.0795" y="-2.2424" width="0.1590" height="6.7424" ry="0.0400" fill="currentColor"/>
</g>
<g transform="translate(71.1481, 11.9349)">
<rect x="-0.0795" y="-7.5000" width="0.1590" height="7.4015" ry="0.0400" fill="currentColor"/>
</g>
<a style="color:inherit;" xlink:href="textedit://C:/Users/jwloy/Documents/GitHub/ill20231216/public/pieces/ill20231212/notation/ILL20231216.ly:99:8:9">
<g transform="translate(65.0000, 10.4349)">
<path transform="scale(0.0052, -0.0052)" d="M222 135c53 0 104 -27 104 -86c0 -71 -56 -120 -103 -148c-36 -22 -76 -36 -118 -36c-53 0 -105 27 -105 86c0 71 57 120 104 148c36 22 76 36 118 36z" fill="currentColor"/>
</g>
</a>
<a style="color:inherit;" xlink:href="textedit://C:/Users/jwloy/Documents/GitHub/ill20231216/public/pieces/ill20231212/notation/ILL20231216.ly:99:13:14">
<g transform="translate(65.8550, 9.5292)">
<path transform="scale(0.0052, -0.0052)" d="M-114 0c-8 0 -13 8 -10 15l114 254c2 4 6 6 10 6s8 -2 10 -6l114 -254c3 -7 -2 -15 -10 -15h-68c-4 0 -7 2 -9 6l-71 156l-70 -156c-2 -4 -6 -6 -10 -6z" fill="currentColor"/>
</g>
</a>
<g transform="translate(65.0795, 11.9349)">
<rect x="-0.0795" y="-1.2424" width="0.1590" height="6.7424" ry="0.0400" fill="currentColor"/>
</g>
<g transform="translate(65.1590, 17.3949)">
<path transform="scale(0.0066, -0.0066)" d="M0 0h-14v250h14v-250zM0 0v250c98 58 228 147 228 259c0 57 -15 112 -40 164c-3 15 9 25 21 25c7 0 14 -3 18 -10c25 -56 40 -117 40 -179c0 -203 -267 -306 -267 -509z" fill="currentColor"/>
</g>
<a style="color:inherit;" xlink:href="textedit://C:/Users/jwloy/Documents/GitHub/ill20231216/public/pieces/ill20231212/notation/ILL20231216.ly:102:12:13">
<g transform="translate(66.9887, 10.4349)">
<path transform="scale(0.0026, -0.0026)" d="M204 141c63 0 120 -35 120 -103c0 -70 -50 -119 -97 -147c-33 -20 -70 -32 -108 -32c-63 0 -119 35 -119 103c0 70 49 119 96 147c33 20 70 32 108 32z" fill="currentColor"/>
</g>
</a>
<g transform="translate(67.7568, 11.9349)">
<rect x="-0.0795" y="-7.5000" width="0.1590" height="5.9015" ry="0.0400" fill="currentColor"/>
</g>
</svg>
